{"glyphs":{"0":{"ha":917,"x_min":196,"x_max":1018,"o":"m 789 800 q 892 784 850 799 q 958 742 935 769 q 996 683 982 714 q 1014 618 1010 651 q 1015 610 1014 614 q 1015 604 1015 607 q 1016 597 1015 600 q 1017 590 1017 593 q 1017 583 1017 586 q 1018 576 1017 579 q 1018 570 1018 574 q 1018 564 1018 567 q 1015 526 1018 546 q 1010 486 1013 507 q 1003 444 1007 465 q 992 403 999 424 q 972 350 982 376 q 950 299 963 324 q 933 265 942 282 q 914 235 924 249 q 905 219 910 226 q 896 206 900 213 q 863 163 881 183 q 825 124 844 143 q 779 88 804 104 q 726 56 754 71 q 665 28 697 40 q 596 7 632 15 q 522 -4 560 0 q 447 -8 485 -8 q 322 8 372 -8 q 247 58 272 24 q 209 131 222 93 q 196 213 196 169 q 196 215 196 214 q 196 218 196 217 q 196 221 196 219 q 196 224 196 222 q 197 259 196 240 q 201 297 199 278 q 210 336 204 317 q 221 375 215 356 q 239 431 228 403 q 264 486 250 460 q 295 539 279 514 q 329 586 311 564 q 363 625 344 606 q 404 663 382 644 q 450 698 426 682 q 501 728 474 714 q 550 749 524 739 q 604 769 576 760 q 662 784 632 778 q 722 794 692 790 q 728 794 725 794 q 733 794 731 794 q 744 797 739 796 q 756 797 750 797 q 761 797 758 797 q 767 797 764 797 q 769 797 768 797 q 772 799 771 797 q 781 799 776 799 q 789 799 785 799 l 789 800 l 789 800 m 681 744 q 584 722 628 743 q 508 660 540 701 q 450 572 475 618 q 410 476 425 526 q 390 408 397 442 q 376 343 382 375 q 369 286 371 311 q 367 243 367 261 q 367 226 367 235 q 368 207 367 217 q 371 188 368 197 q 376 169 374 179 q 396 122 383 144 q 429 81 408 100 q 478 50 449 60 q 547 40 507 40 q 606 50 579 40 q 656 78 633 60 q 699 119 679 97 q 735 163 719 140 q 753 185 744 174 q 767 208 761 197 q 774 224 771 217 q 781 238 778 231 q 784 244 782 240 q 788 250 786 247 q 794 267 790 258 q 801 285 797 275 q 808 302 804 293 q 814 321 811 311 q 826 359 821 340 q 838 397 832 378 q 844 428 840 413 q 850 461 847 444 q 851 472 850 467 q 851 483 851 478 q 853 503 853 493 q 854 524 854 514 q 853 533 854 528 q 853 542 853 538 q 852 553 853 547 q 851 564 851 558 q 851 575 851 569 q 849 586 850 581 q 847 598 847 592 q 846 610 846 604 q 828 658 840 635 q 797 701 815 681 q 750 733 779 722 q 681 743 721 743 l 681 744 l 681 744 z "},"1":{"ha":917,"x_min":171,"x_max":904,"o":"m 171 1 l 226 39 l 297 44 l 363 50 q 367 50 365 50 q 372 50 369 50 q 376 50 374 50 q 381 50 379 50 q 384 50 382 50 q 389 51 386 50 q 392 51 390 51 q 396 51 394 51 q 432 56 418 54 q 454 63 446 58 q 467 74 461 67 q 476 92 472 82 q 478 101 476 96 q 483 111 481 106 q 487 123 485 117 q 492 136 489 129 l 672 690 l 592 668 l 442 631 l 381 649 l 676 742 l 864 811 l 760 511 l 651 172 q 651 170 651 171 q 650 168 650 169 q 648 165 649 167 q 647 160 647 163 q 647 158 647 158 q 646 156 646 157 q 644 152 644 154 q 643 149 643 150 q 643 147 643 147 q 643 144 643 146 q 642 142 642 143 q 642 142 642 142 q 641 140 642 140 q 640 139 640 139 q 640 137 640 138 q 639 136 639 136 q 638 133 639 135 q 638 129 638 131 q 635 123 636 126 q 635 117 635 119 q 633 107 633 111 q 633 100 633 103 q 635 87 633 93 q 642 75 636 81 q 654 66 646 69 q 672 60 663 63 q 685 57 678 58 q 701 54 692 56 q 721 51 711 53 q 743 50 731 50 q 762 48 753 49 q 781 47 771 47 q 797 45 790 46 q 810 44 804 44 l 904 42 l 854 4 l 238 1 l 171 1 l 171 1 l 171 1 z "},"2":{"ha":917,"x_min":97,"x_max":976,"o":"m 106 -24 l 97 17 q 176 80 135 49 q 263 140 217 111 q 351 199 307 169 q 443 257 396 228 q 444 258 444 257 q 446 258 444 258 q 449 260 447 260 q 451 263 450 261 q 453 263 453 263 q 454 264 453 264 q 457 266 456 265 q 460 268 458 267 q 465 272 463 269 q 471 275 468 274 q 474 277 472 276 q 476 279 475 278 q 481 282 479 281 q 486 285 483 283 q 491 288 489 286 q 496 290 493 289 q 515 303 506 297 q 535 315 525 310 q 549 324 542 319 q 563 332 556 328 q 569 337 565 335 q 576 342 574 339 q 658 397 619 368 q 731 457 696 426 q 783 524 765 489 q 801 597 801 558 q 791 647 801 624 q 758 693 781 671 q 703 726 736 715 q 625 738 669 738 q 551 728 582 738 q 500 701 519 719 q 468 661 478 683 q 458 613 458 639 q 458 601 458 607 q 460 588 458 594 q 461 584 461 586 q 463 579 461 582 q 465 573 464 576 q 468 565 467 569 q 469 563 469 564 q 471 560 469 561 q 471 558 471 558 q 472 557 471 557 q 474 552 472 554 q 476 547 475 550 q 479 543 478 546 q 482 539 481 540 q 485 534 483 536 q 488 529 486 532 l 338 543 q 335 550 336 546 q 333 558 333 554 q 331 567 332 563 q 331 578 331 572 q 354 651 331 618 q 425 711 378 685 q 525 756 472 739 q 633 783 578 774 q 647 785 640 785 q 661 788 654 786 q 675 790 668 789 q 689 790 682 790 q 706 792 697 792 q 725 793 715 792 q 734 793 729 793 q 743 793 739 793 q 836 782 796 793 q 904 750 876 771 q 946 701 932 728 q 960 640 960 674 q 960 632 960 636 q 958 625 960 628 q 958 617 958 621 q 956 608 957 613 q 955 600 956 604 q 953 593 954 596 q 950 585 951 589 q 947 576 949 581 q 933 545 942 560 q 913 515 924 531 q 888 490 901 501 q 860 467 875 478 l 729 385 l 339 140 l 714 100 q 716 99 715 100 q 718 99 717 99 q 719 97 718 97 q 721 97 719 97 q 724 97 722 97 q 729 97 726 97 q 729 97 729 97 q 731 97 729 97 q 731 96 731 96 q 733 96 732 96 q 735 96 733 96 q 738 96 736 96 q 739 96 738 96 q 742 96 740 96 q 744 94 743 94 q 747 94 746 94 q 750 94 749 94 q 753 94 751 94 q 756 94 754 94 q 758 94 757 94 q 777 96 768 94 q 794 99 786 97 q 812 105 803 101 q 831 114 821 108 q 864 135 849 125 q 893 158 879 146 q 899 164 896 161 q 907 169 903 167 q 915 175 911 172 q 921 181 918 178 q 926 186 924 183 q 932 192 929 189 q 938 197 935 194 q 943 201 940 200 l 960 218 l 976 186 l 918 125 l 796 3 q 791 1 793 1 q 788 0 789 0 q 783 0 785 0 q 779 0 781 0 q 774 0 776 0 q 769 -1 772 0 q 766 -1 768 -1 q 763 -1 764 -1 q 759 -1 761 -1 q 754 -3 757 -1 q 753 -3 754 -3 q 751 -3 753 -3 q 749 -3 750 -3 q 746 -3 747 -3 q 725 -2 736 -3 q 701 0 714 -1 q 693 0 697 0 q 685 0 689 0 q 680 0 682 0 q 676 0 678 0 q 663 1 669 0 q 650 3 657 1 q 647 3 649 3 q 644 4 646 3 q 640 4 642 4 q 638 4 639 4 q 635 4 636 4 q 632 6 633 4 q 629 6 631 6 q 626 6 628 6 q 607 8 617 7 q 588 11 597 10 q 569 13 578 13 q 554 15 561 14 l 483 26 q 469 27 478 26 q 450 29 460 28 q 439 31 444 31 q 428 33 433 32 q 417 35 422 35 q 406 38 411 36 q 399 38 403 38 q 393 39 396 38 q 390 39 392 39 q 388 40 389 39 q 383 40 385 40 q 381 40 382 40 q 365 42 372 42 q 350 44 357 43 q 335 45 342 44 q 321 47 328 46 q 294 51 306 50 q 276 51 283 51 q 233 47 254 51 q 196 33 213 42 q 163 15 178 24 q 133 -3 147 6 q 130 -6 132 -4 q 126 -8 128 -7 q 122 -10 124 -8 q 118 -12 119 -11 q 115 -15 117 -14 q 113 -18 114 -17 q 108 -19 110 -18 q 106 -22 107 -21 l 106 -24 l 106 -24 z "},"3":{"ha":917,"x_min":75,"x_max":951,"o":"m 375 376 l 381 414 q 416 422 396 417 q 458 433 436 428 q 503 447 481 440 q 551 461 526 453 q 638 494 596 476 q 717 533 679 511 q 774 580 754 554 q 793 635 793 606 q 784 667 793 653 q 760 694 775 682 q 722 713 743 707 q 672 719 700 719 q 625 716 647 719 q 581 706 603 713 q 539 692 558 700 q 500 676 519 685 q 489 673 494 675 q 479 668 483 671 q 474 666 476 667 q 468 665 471 665 q 463 663 465 664 q 458 661 461 663 l 458 696 l 663 788 q 676 788 669 788 q 688 790 682 789 q 694 791 690 790 q 701 793 697 792 q 708 794 704 793 q 714 794 711 794 q 727 797 721 796 q 739 797 733 797 q 745 797 742 797 q 753 799 749 797 q 760 799 757 799 q 767 799 764 799 q 835 792 803 799 q 896 772 868 785 q 938 740 924 760 q 951 694 951 721 q 946 660 951 676 q 929 629 940 644 q 902 601 917 615 q 872 574 888 586 l 713 496 q 794 482 757 492 q 864 456 832 472 q 913 415 896 439 q 929 358 929 390 q 915 289 929 322 q 876 224 901 256 q 819 165 851 193 q 750 113 788 136 q 658 63 707 85 q 556 24 608 40 q 446 0 503 7 q 329 -7 389 -7 q 261 -4 294 -7 q 196 1 228 -1 q 133 14 163 6 q 75 35 103 22 l 168 107 q 177 103 172 106 q 188 99 182 101 q 192 98 190 99 q 197 96 194 97 q 206 94 201 94 q 214 92 210 93 q 221 90 217 90 q 229 88 225 89 q 255 80 242 83 q 282 72 268 76 q 309 67 296 69 q 335 61 322 64 q 391 53 363 56 q 450 51 419 51 q 579 69 522 51 q 679 124 636 88 q 745 201 724 160 q 767 288 767 242 q 755 337 767 314 q 721 379 743 360 q 665 408 697 399 q 592 418 632 418 q 570 417 581 418 q 550 415 560 417 q 539 413 544 414 q 528 413 533 413 q 517 410 522 411 q 506 408 511 410 q 497 406 501 407 q 486 404 492 404 q 476 401 481 403 q 467 399 471 400 q 448 395 457 397 q 431 390 439 393 q 426 389 428 390 q 421 388 424 388 q 410 385 415 386 q 401 382 406 383 q 388 378 394 381 q 375 375 382 376 l 375 376 l 375 376 z "},"4":{"ha":917,"x_min":143,"x_max":947,"o":"m 525 -22 l 604 210 l 143 213 q 165 246 153 229 q 193 276 178 263 q 209 290 201 283 q 225 306 217 297 q 242 319 233 313 q 260 333 250 326 l 610 617 l 808 765 l 858 783 l 947 813 l 851 532 l 771 282 l 858 282 l 943 282 l 868 210 l 788 210 l 750 211 q 747 203 749 207 q 746 197 746 200 q 743 190 744 193 q 742 185 742 188 q 737 171 739 178 q 732 157 735 164 q 728 142 731 149 q 725 128 726 135 q 721 114 722 121 q 718 100 719 107 q 717 85 717 92 q 717 71 717 78 q 717 59 717 65 q 718 49 717 53 q 721 39 718 43 q 726 31 724 35 q 727 28 726 29 q 729 25 728 26 q 730 24 729 25 q 731 22 731 24 q 732 22 732 22 q 733 19 732 21 q 733 19 733 19 q 735 19 733 19 q 736 17 735 18 q 739 15 738 17 l 731 6 l 564 -36 q 556 -33 560 -35 q 550 -32 553 -32 q 547 -31 549 -31 q 543 -29 544 -31 q 539 -27 542 -28 q 535 -25 536 -26 q 530 -23 532 -24 q 525 -21 528 -22 l 525 -22 l 525 -22 m 629 282 l 763 676 l 758 679 l 626 572 l 285 286 l 547 282 l 629 282 l 629 282 l 629 282 z "},"5":{"ha":917,"x_min":139,"x_max":1176,"o":"m 139 14 l 238 96 q 285 78 261 86 q 333 65 308 71 q 384 58 358 60 q 438 56 410 56 q 570 72 511 56 q 672 119 629 88 q 740 192 717 151 q 763 281 763 232 q 747 337 763 311 q 701 385 732 363 q 633 418 671 407 q 547 429 594 429 q 499 426 522 429 q 454 418 476 424 q 411 406 432 413 q 371 392 390 400 l 351 407 l 560 790 l 813 775 q 894 777 857 774 q 963 788 932 781 q 1023 806 994 794 q 1079 831 1051 817 q 1092 837 1086 833 q 1103 843 1097 840 q 1115 849 1108 846 q 1126 857 1121 853 q 1151 872 1139 864 q 1176 889 1164 881 l 1160 839 l 1100 793 q 1063 767 1079 779 q 1031 743 1046 754 q 1022 737 1026 740 q 1013 731 1017 733 q 994 720 1003 725 q 976 711 985 715 q 935 694 957 701 q 888 685 913 688 q 826 679 863 681 q 743 678 790 678 l 592 683 l 475 503 q 491 505 483 504 q 507 507 499 506 q 524 508 515 507 q 542 510 533 508 q 558 510 550 510 q 576 511 567 511 q 593 513 585 513 q 610 513 601 513 q 730 501 675 513 q 826 467 785 490 q 891 410 869 444 q 913 328 913 375 q 897 260 913 293 q 854 199 882 228 q 792 144 826 169 q 721 97 758 119 q 637 54 681 74 q 547 19 593 35 q 453 -2 503 6 q 347 -10 403 -10 q 322 -9 335 -10 q 294 -8 308 -8 q 267 -6 281 -7 q 242 -3 254 -4 q 190 3 215 0 q 139 13 164 7 l 139 14 l 139 14 z "},"6":{"ha":917,"x_min":197,"x_max":1108,"o":"m 1108 794 l 1021 717 q 984 731 1003 725 q 943 743 965 738 q 922 748 932 746 q 901 751 911 750 q 880 753 890 753 q 858 754 869 754 q 757 743 806 754 q 664 708 708 732 q 585 660 621 686 q 522 607 550 635 q 522 606 522 607 q 521 606 521 606 q 519 605 519 606 q 518 604 518 604 q 518 604 518 604 q 518 604 518 604 q 518 603 518 603 q 518 603 518 603 q 464 540 488 572 q 425 475 440 508 q 394 407 407 442 q 372 336 382 372 l 460 375 q 488 385 475 381 q 513 396 500 390 q 524 401 518 399 q 535 406 529 403 q 547 410 540 407 q 558 414 553 413 q 590 424 574 419 q 625 431 607 428 q 663 435 642 433 q 708 436 683 436 q 806 424 763 436 q 883 388 850 411 q 933 333 915 364 q 950 267 950 303 q 919 171 950 215 q 826 90 888 126 q 699 30 767 53 q 558 -1 632 7 q 546 -3 553 -3 q 532 -4 539 -4 q 519 -6 525 -6 q 506 -7 513 -7 q 481 -9 493 -8 q 456 -10 468 -10 q 338 4 388 -10 q 258 49 288 18 q 213 115 228 79 q 197 193 197 151 q 200 235 197 214 q 208 278 203 256 q 223 323 215 300 q 242 368 231 346 q 348 526 279 450 q 514 672 417 603 q 726 776 613 742 q 967 811 839 811 q 985 811 976 811 q 1003 810 994 811 q 1020 809 1011 810 q 1039 807 1029 808 q 1056 804 1047 806 q 1074 801 1065 803 q 1091 797 1082 799 q 1108 793 1100 796 l 1108 794 l 1108 794 m 364 294 l 358 239 q 358 233 358 236 q 358 228 358 231 q 358 224 358 226 q 358 219 358 222 q 374 156 361 186 q 413 97 388 125 q 476 56 436 69 q 576 42 517 42 q 658 53 621 42 q 725 88 694 65 q 772 136 753 111 q 796 189 790 161 q 796 194 796 192 q 796 200 796 197 q 796 203 796 201 q 797 207 796 204 q 797 210 797 208 q 797 213 797 211 q 784 266 797 240 q 746 314 771 292 q 683 347 719 336 q 601 358 647 358 q 540 354 569 358 q 485 342 510 350 q 433 324 458 333 q 383 301 408 314 q 381 301 382 301 q 378 300 379 300 q 375 298 376 299 q 372 297 374 297 q 369 297 371 297 q 367 294 368 296 q 365 294 365 294 q 364 293 365 293 l 364 294 l 364 294 z "},"7":{"ha":917,"x_min":343,"x_max":1126,"o":"m 354 -25 l 343 60 q 343 66 343 63 q 343 74 343 69 q 344 79 343 76 q 346 85 344 82 q 347 88 346 86 q 347 90 347 89 q 347 94 347 93 q 347 99 347 96 q 348 102 347 100 q 350 106 349 104 q 351 110 350 108 q 353 114 351 113 q 355 119 354 117 q 356 122 356 121 q 443 221 396 172 q 542 317 490 269 q 644 410 592 364 q 751 500 697 456 l 975 685 l 568 672 l 401 676 l 393 683 l 446 785 l 479 849 l 513 850 q 513 847 513 849 q 513 843 513 844 q 513 842 513 843 q 514 842 513 842 q 514 840 514 840 q 514 839 514 839 q 514 836 514 838 q 514 835 514 835 q 514 832 514 833 q 514 829 514 831 q 515 827 514 828 q 515 825 515 826 q 516 823 515 824 q 517 821 517 822 q 519 809 517 815 q 525 797 522 803 q 532 788 528 792 q 542 781 536 783 q 559 774 549 776 q 585 771 569 772 q 618 768 600 769 q 654 767 636 767 q 665 767 660 767 q 676 767 671 767 q 686 767 681 767 q 697 767 692 767 q 716 767 707 767 q 735 767 725 767 q 738 767 736 767 q 743 767 740 767 q 747 767 744 767 q 750 767 749 767 q 756 767 753 767 q 763 767 760 767 l 1126 774 l 963 619 l 658 346 q 653 341 656 343 q 650 336 651 339 q 645 333 647 335 q 643 329 643 331 q 597 277 618 303 q 558 224 575 251 q 531 169 540 197 q 522 108 522 140 q 522 97 522 103 q 522 85 522 90 q 524 72 524 78 q 526 60 525 67 q 533 35 529 47 q 539 13 536 24 l 354 -25 l 354 -25 l 354 -25 z "},"8":{"ha":917,"x_min":156,"x_max":1029,"o":"m 917 540 l 708 453 q 708 451 708 451 q 710 450 708 450 q 710 449 710 449 q 710 449 710 449 q 710 449 710 449 q 711 449 711 449 q 712 447 711 447 q 713 447 713 447 q 713 447 713 447 q 714 447 714 447 q 725 441 719 444 q 736 435 731 438 q 747 428 742 432 q 758 422 753 425 q 766 419 763 421 q 772 414 769 417 q 787 408 779 411 q 800 401 794 404 q 844 374 824 388 q 879 344 864 360 q 902 310 894 331 q 910 263 910 289 q 897 202 910 231 q 860 149 885 174 q 805 103 835 124 q 738 64 775 82 q 690 44 715 54 q 638 26 665 35 q 581 11 610 18 q 525 0 553 4 q 489 -3 507 -1 q 454 -7 471 -6 q 420 -10 436 -10 q 389 -11 404 -11 q 297 -2 339 -11 q 222 25 256 7 q 172 71 188 44 q 156 132 156 97 q 165 185 156 160 q 193 236 175 211 q 237 283 213 261 q 292 322 261 304 l 522 415 q 478 449 497 431 q 443 485 458 467 q 420 525 428 504 q 413 569 413 546 q 435 643 413 610 q 506 704 458 676 q 606 752 553 732 q 717 782 658 772 q 732 785 725 783 q 747 788 739 786 q 761 790 754 789 q 776 792 768 790 q 792 792 785 792 q 807 793 800 793 q 822 794 814 794 q 838 794 829 794 q 906 788 874 794 q 968 767 939 781 q 1014 733 999 753 q 1029 688 1029 714 q 1021 646 1029 665 q 997 610 1013 626 q 965 577 982 593 q 926 546 947 561 q 926 545 926 546 q 924 544 925 544 q 922 542 922 543 q 921 542 921 542 q 918 540 919 540 q 917 539 917 539 l 917 540 l 917 540 m 579 382 l 564 389 q 472 351 514 372 q 396 306 431 331 q 344 247 361 279 q 326 176 326 215 q 336 124 326 149 q 367 79 346 100 q 420 48 386 58 q 501 38 454 38 q 585 49 546 38 q 663 85 625 61 q 720 135 699 108 q 747 190 742 161 q 748 192 747 192 q 749 194 749 193 q 749 197 749 196 q 750 199 750 197 q 750 201 750 200 q 750 204 750 203 q 750 206 750 204 q 750 208 750 207 q 741 253 750 233 q 714 290 732 274 q 675 322 696 306 q 629 351 654 338 q 617 358 624 354 q 604 365 611 361 q 598 369 601 368 q 592 374 594 371 q 585 377 589 375 q 579 381 582 379 l 579 382 l 579 382 m 664 475 q 744 506 707 488 q 813 550 782 525 q 860 603 844 575 q 876 664 876 632 q 867 697 876 682 q 843 725 858 713 q 803 744 826 738 q 751 751 779 751 q 678 740 711 751 q 621 708 646 729 q 581 665 596 688 q 564 617 567 642 q 564 614 564 615 q 564 611 564 613 q 564 608 564 610 q 564 606 564 607 q 564 603 564 604 q 564 601 564 601 q 564 599 564 600 q 564 596 564 597 q 565 592 564 594 q 567 588 565 590 q 578 556 569 571 q 600 525 586 540 q 629 497 613 510 q 664 474 646 485 l 664 475 l 664 475 z "},"9":{"ha":917,"x_min":88,"x_max":1000,"o":"m 88 21 l 189 94 q 240 77 214 85 q 293 63 265 69 q 349 52 321 56 q 404 49 376 49 q 540 69 479 49 q 647 128 600 89 q 729 212 694 168 q 788 303 764 256 q 801 338 794 321 q 814 374 808 356 q 823 407 819 390 q 829 439 826 424 q 806 430 817 435 q 783 419 794 425 q 760 409 771 414 q 738 399 749 404 q 681 376 710 386 q 625 354 653 365 q 605 348 615 351 q 585 343 594 344 q 545 337 565 339 q 504 335 525 335 q 404 347 449 335 q 326 383 360 358 q 276 439 292 408 q 260 506 260 469 q 272 566 260 538 q 308 619 283 594 q 362 667 332 644 q 426 708 392 689 q 480 733 451 721 q 539 757 508 746 q 604 776 571 768 q 672 790 638 785 q 697 794 685 793 q 722 796 710 794 q 747 798 735 797 q 772 799 760 799 q 873 785 832 799 q 939 743 914 771 q 978 685 964 715 q 997 621 993 654 q 997 610 997 615 q 997 600 997 606 q 998 594 997 597 q 999 590 999 592 q 999 585 999 588 q 1000 581 1000 583 q 997 543 1000 563 q 992 503 994 524 q 981 461 986 482 q 968 419 975 440 q 942 358 956 389 q 908 296 928 326 q 869 240 890 265 q 825 192 849 214 q 739 126 788 157 q 629 65 690 94 q 502 18 567 36 q 372 -6 438 0 q 353 -6 363 -6 q 335 -8 344 -7 q 326 -8 331 -8 q 317 -10 321 -8 q 306 -10 311 -10 q 297 -10 301 -10 q 261 -9 279 -10 q 225 -7 243 -8 q 207 -5 215 -6 q 189 -3 199 -4 q 138 6 163 0 q 88 19 113 11 l 88 21 l 88 21 m 838 486 l 843 554 q 843 559 843 557 q 843 563 843 561 q 842 567 842 565 q 842 572 842 569 q 841 577 842 575 q 840 582 840 579 q 840 586 840 583 q 839 592 839 589 q 819 642 833 618 q 783 689 806 667 q 725 724 760 713 q 643 735 690 735 q 546 722 588 735 q 476 681 504 708 q 435 624 449 654 q 421 560 421 593 q 422 533 421 546 q 429 507 424 519 q 443 482 433 494 q 467 458 453 469 q 492 440 478 449 q 525 424 507 431 q 560 415 542 418 q 600 411 579 411 q 620 412 610 411 q 642 414 631 413 q 662 417 651 415 q 683 422 672 419 q 702 427 693 425 q 719 432 711 429 q 737 439 728 436 q 756 446 746 442 q 789 460 774 453 q 818 475 804 467 q 821 476 819 475 q 824 478 822 476 q 826 478 825 478 q 829 479 828 479 q 833 482 831 481 q 838 485 835 483 l 838 486 l 838 486 z "}," ":{"ha":458,"x_min":0,"x_max":0,"o":""}," ":{"ha":458,"x_min":0,"x_max":0,"o":""},"!":{"ha":583,"x_min":226,"x_max":722,"o":"m 226 94 l 321 144 l 379 176 l 479 74 l 326 -12 q 297 10 311 -1 q 271 36 283 22 q 246 65 257 50 q 226 93 235 79 l 226 94 l 226 94 m 346 217 l 543 758 l 722 817 l 460 263 l 346 217 l 346 217 l 346 217 z "},"\"":{"ha":458,"x_min":354,"x_max":693,"o":"m 354 686 l 454 946 l 539 946 l 413 704 l 383 696 l 354 686 l 354 686 l 354 686 m 508 686 l 608 946 l 693 946 l 567 704 l 535 694 l 508 686 l 508 686 l 508 686 z "},"#":{"ha":917,"x_min":131,"x_max":1242,"o":"m 889 276 l 792 54 l 621 -1 l 756 269 l 543 258 l 514 192 l 454 56 l 281 -1 l 410 253 l 131 236 l 229 325 l 447 328 l 475 379 l 500 431 l 531 490 l 250 476 l 347 565 l 567 565 l 597 629 l 660 763 l 801 799 l 758 714 l 688 568 l 906 571 l 985 736 l 996 763 l 1138 799 l 1026 572 l 1242 575 l 1189 528 l 1000 517 l 914 333 l 1142 336 l 1085 286 l 889 276 l 889 276 l 889 276 m 576 329 l 788 332 l 875 511 l 656 499 l 601 385 l 576 329 l 576 329 l 576 329 z "},"$":{"ha":917,"x_min":125,"x_max":960,"o":"m 125 7 l 221 92 q 272 76 246 83 q 326 65 299 69 q 382 58 354 61 q 438 56 410 56 l 542 364 q 530 369 536 367 q 517 376 524 372 q 505 383 511 379 q 492 389 499 386 q 445 419 467 404 q 404 450 424 433 q 376 486 386 465 q 367 533 367 507 q 367 539 367 536 q 367 544 367 542 q 367 547 367 546 q 368 551 367 549 q 368 554 368 553 q 368 557 368 556 q 401 631 375 594 q 475 700 428 667 q 569 756 519 733 q 671 789 618 778 q 672 789 671 789 q 674 790 672 789 q 676 790 675 790 q 676 790 676 790 q 678 790 678 790 q 681 792 679 790 q 681 792 681 792 q 683 792 682 792 l 714 900 l 718 919 l 754 928 l 781 935 l 801 938 l 758 829 l 750 804 l 804 804 q 846 800 826 803 q 883 792 865 797 q 915 779 899 786 q 950 763 932 772 q 951 760 950 761 q 954 757 953 758 q 955 756 954 757 q 957 756 956 756 q 959 754 958 754 q 960 754 960 754 l 872 683 q 844 704 860 694 q 810 722 829 714 q 772 735 792 731 q 731 742 753 740 l 635 463 q 638 460 636 461 q 642 457 640 458 q 648 453 644 456 q 656 450 651 451 q 661 447 658 449 q 668 446 664 446 q 674 443 671 444 q 679 440 676 442 q 735 410 708 426 q 783 376 761 393 q 817 337 806 360 q 829 285 829 314 q 828 279 829 282 q 828 274 828 276 q 827 268 828 271 q 826 263 826 265 q 826 257 826 260 q 824 251 825 254 q 822 246 822 249 q 821 240 821 243 q 781 173 808 206 q 714 108 754 140 q 628 51 672 76 q 538 10 585 26 q 522 5 529 7 q 508 0 515 3 q 493 -2 500 0 q 479 -6 486 -4 l 454 -90 l 426 -181 l 347 -200 l 414 -19 l 342 -19 q 333 -18 338 -18 q 326 -18 329 -18 q 319 -17 322 -17 q 313 -17 315 -17 q 301 -17 307 -17 q 288 -17 294 -17 q 244 -12 265 -15 q 204 -7 224 -10 q 164 -1 183 -4 q 125 6 144 1 l 125 7 l 125 7 m 596 343 l 501 60 q 582 78 544 64 q 650 115 619 93 q 697 165 682 139 q 713 221 713 192 q 708 252 713 238 q 693 276 703 267 q 671 297 683 288 q 643 315 658 306 q 638 318 640 317 q 632 322 635 319 q 626 325 629 324 q 621 328 624 326 q 609 334 615 331 q 596 342 603 338 l 596 343 l 596 343 m 585 485 l 671 746 q 599 727 632 740 q 539 694 567 714 q 498 651 511 674 q 485 600 485 628 q 492 565 485 582 q 513 533 499 549 q 544 506 526 518 q 585 483 563 493 l 585 485 l 585 485 z "},"%":{"ha":1417,"x_min":338,"x_max":1460,"o":"m 1313 514 q 1375 503 1349 513 q 1417 478 1401 494 q 1442 442 1432 461 q 1456 404 1451 424 q 1456 399 1456 401 q 1457 393 1457 396 q 1458 388 1457 390 q 1458 382 1458 385 q 1458 376 1458 379 q 1460 371 1458 374 q 1460 365 1460 368 q 1460 360 1460 363 q 1458 330 1460 346 q 1454 299 1457 314 q 1451 282 1453 290 q 1447 267 1450 274 q 1443 250 1446 258 q 1438 233 1440 242 q 1392 145 1422 188 q 1322 65 1363 103 q 1225 10 1282 28 q 1096 -8 1168 -8 q 1015 1 1047 -8 q 968 33 983 11 q 944 80 953 56 q 933 131 935 104 q 933 135 933 133 q 933 139 933 138 q 933 142 933 140 q 933 144 933 143 q 933 146 933 144 q 933 149 933 147 q 933 167 933 157 q 935 186 933 176 q 937 205 935 196 q 942 224 939 214 q 947 244 944 235 q 954 265 950 254 q 962 285 957 275 q 971 306 967 296 q 992 344 981 325 q 1018 381 1003 363 q 1045 409 1031 396 q 1075 435 1060 422 q 1108 458 1090 447 q 1147 476 1125 468 q 1175 487 1160 482 q 1206 496 1190 492 q 1237 504 1221 500 q 1271 510 1253 508 q 1276 510 1274 510 q 1281 511 1278 510 q 1286 511 1283 511 q 1292 511 1289 511 q 1297 511 1294 511 q 1301 513 1299 511 q 1307 513 1304 513 q 1313 513 1310 513 l 1313 514 l 1313 514 m 1239 469 q 1178 455 1204 468 q 1133 415 1153 442 q 1100 361 1115 389 q 1075 303 1085 333 q 1062 259 1067 281 q 1054 218 1057 238 q 1051 182 1051 197 q 1050 156 1050 167 q 1050 150 1050 153 q 1050 144 1050 147 q 1050 138 1050 140 q 1050 132 1050 135 q 1051 120 1050 126 q 1056 107 1053 114 q 1067 78 1058 92 q 1088 51 1075 64 q 1117 33 1100 39 q 1160 26 1135 26 q 1196 32 1179 26 q 1226 49 1213 38 q 1253 73 1242 60 q 1275 100 1265 86 q 1280 108 1278 104 q 1285 115 1282 111 q 1289 122 1286 118 q 1293 129 1292 125 q 1299 142 1296 136 q 1306 154 1303 149 q 1323 197 1315 175 q 1335 242 1331 219 q 1343 287 1340 264 q 1346 332 1346 310 q 1345 338 1346 335 q 1344 343 1344 340 q 1344 350 1344 347 q 1343 357 1343 353 q 1343 363 1343 360 q 1343 371 1343 367 q 1342 378 1342 374 q 1342 386 1342 382 q 1328 415 1336 401 q 1310 442 1321 429 q 1282 461 1300 454 q 1239 468 1264 468 l 1239 469 l 1239 469 m 489 0 l 804 338 l 1225 813 l 1313 803 l 1058 533 l 583 -6 l 489 0 l 489 0 l 489 0 m 717 813 q 779 802 753 811 q 821 776 806 793 q 846 741 836 760 q 860 703 856 722 q 860 697 860 700 q 861 692 861 694 q 862 686 861 689 q 863 681 863 683 q 863 675 863 678 q 864 669 863 672 q 864 664 864 667 q 864 658 864 661 q 863 628 864 644 q 858 596 861 613 q 852 563 856 579 q 842 529 849 546 q 794 442 824 483 q 725 363 765 400 q 628 306 685 325 q 500 288 572 288 q 419 299 451 288 q 372 332 388 310 q 348 378 357 354 q 338 429 339 403 q 338 434 338 432 q 338 438 338 436 q 338 440 338 439 q 338 443 338 442 q 338 444 338 443 q 338 447 338 446 q 338 467 338 457 q 339 486 338 476 q 340 497 339 492 q 342 507 340 501 q 344 516 343 511 q 347 526 346 521 q 358 566 350 546 q 375 606 365 586 q 397 644 385 625 q 425 681 410 663 q 450 708 436 694 q 479 733 464 721 q 512 756 494 746 q 551 776 529 767 q 579 787 564 782 q 610 796 594 792 q 641 803 625 800 q 675 808 657 807 q 680 808 678 808 q 685 810 682 808 q 690 810 688 810 q 696 810 693 810 q 701 810 699 810 q 706 811 703 810 q 711 811 708 811 q 717 811 714 811 l 717 813 l 717 813 m 643 768 q 583 753 608 767 q 538 714 557 740 q 504 660 519 688 q 479 601 489 632 q 466 558 471 579 q 458 517 461 536 q 455 481 456 496 q 454 454 454 465 q 454 449 454 451 q 454 443 454 446 q 454 436 454 439 q 454 431 454 433 q 454 424 454 428 q 456 418 454 421 q 457 410 456 414 q 460 404 458 407 q 473 376 465 390 q 493 350 481 363 q 522 331 504 338 q 564 325 539 325 q 600 331 583 325 q 631 347 617 336 q 658 372 646 358 q 679 399 669 385 q 684 406 682 403 q 689 414 686 410 q 693 420 690 417 q 697 428 696 424 q 703 441 700 435 q 710 453 707 447 q 727 497 719 475 q 739 540 735 518 q 747 585 744 563 q 750 631 750 608 q 749 636 750 633 q 749 642 749 639 q 748 649 749 646 q 747 656 747 651 q 747 662 747 658 q 747 669 747 665 q 746 676 746 672 q 746 685 746 681 q 733 714 740 700 q 714 740 725 728 q 686 760 704 753 q 643 767 668 767 l 643 768 l 643 768 z "},"&":{"ha":1625,"x_min":251,"x_max":1781,"o":"m 1475 574 l 1464 526 q 1476 526 1469 526 q 1488 526 1482 526 q 1494 526 1490 526 q 1501 528 1497 526 q 1510 528 1506 528 q 1518 528 1514 528 q 1524 528 1521 528 q 1529 528 1526 528 q 1532 528 1531 528 q 1535 528 1533 528 q 1540 528 1538 528 q 1544 528 1542 528 q 1549 528 1547 528 q 1554 529 1551 529 q 1569 529 1563 529 q 1585 531 1576 529 q 1599 531 1592 531 q 1614 533 1606 532 q 1641 540 1629 536 q 1660 550 1653 544 q 1660 551 1660 550 q 1663 551 1661 551 q 1663 553 1663 553 q 1664 554 1664 554 q 1665 556 1664 556 q 1667 557 1665 557 q 1667 558 1667 557 q 1668 558 1668 558 q 1674 565 1671 561 q 1681 572 1676 568 q 1686 581 1683 576 q 1692 589 1689 585 q 1697 597 1694 593 q 1703 607 1700 601 q 1708 616 1706 611 q 1714 626 1711 621 q 1719 639 1717 633 q 1725 651 1722 644 q 1728 657 1726 654 q 1731 663 1729 660 q 1737 679 1733 671 q 1743 693 1740 688 l 1781 664 q 1774 644 1778 654 q 1764 621 1769 633 q 1752 596 1758 608 q 1739 571 1746 583 q 1733 559 1736 565 q 1726 547 1729 553 q 1719 535 1722 540 q 1713 524 1715 529 q 1697 503 1704 513 q 1683 485 1690 493 q 1677 479 1681 482 q 1671 474 1674 476 q 1666 470 1668 472 q 1663 465 1664 468 q 1639 453 1653 458 q 1608 446 1625 449 q 1597 445 1603 446 q 1585 443 1590 444 q 1562 441 1574 442 q 1538 440 1550 440 q 1526 440 1532 440 q 1513 440 1519 440 q 1501 440 1507 440 q 1488 440 1494 440 q 1472 440 1479 440 q 1458 440 1465 440 q 1452 440 1456 440 q 1446 440 1449 440 q 1440 439 1443 439 q 1435 439 1438 439 q 1406 366 1421 400 q 1371 303 1390 332 q 1328 247 1353 274 q 1271 192 1303 219 q 1260 183 1265 188 q 1249 176 1254 179 q 1238 169 1243 172 q 1226 161 1232 165 q 1215 153 1221 157 q 1204 146 1210 149 q 1193 138 1199 142 q 1181 129 1188 133 q 1061 65 1124 93 q 929 17 999 36 q 786 -11 861 -1 q 629 -21 711 -21 q 626 -21 628 -21 q 625 -21 625 -21 q 624 -21 625 -21 q 624 -21 624 -21 q 623 -21 624 -21 q 622 -21 622 -21 q 488 -10 553 -19 q 367 18 424 0 q 280 74 308 38 q 251 167 251 111 q 253 195 251 181 q 260 226 256 210 q 269 260 263 243 q 283 293 275 276 q 306 340 293 317 q 335 386 319 364 q 369 427 350 408 q 408 460 388 446 q 422 469 415 464 q 438 481 428 475 q 457 492 447 486 q 476 503 467 497 q 507 517 492 510 q 538 532 522 525 q 569 546 553 539 q 601 558 585 553 q 618 564 610 561 q 635 569 626 567 q 651 574 643 571 q 667 578 658 576 q 698 583 682 581 q 729 585 714 585 q 776 579 754 585 q 814 563 797 574 q 844 539 832 553 q 863 510 857 525 q 869 512 865 511 q 875 514 872 513 q 881 517 878 515 q 888 519 885 518 q 941 543 915 531 q 992 569 967 556 q 1027 604 1015 585 q 1039 649 1039 624 q 1039 654 1039 651 q 1038 661 1039 657 q 1037 667 1038 664 q 1035 672 1036 669 q 1032 678 1033 675 q 1031 683 1031 681 q 1028 688 1029 685 q 1025 693 1026 690 q 1023 696 1024 694 q 1022 699 1022 697 q 1020 701 1021 700 q 1018 704 1019 703 q 1017 707 1018 706 q 1015 710 1017 708 q 1013 713 1014 711 q 1013 715 1013 714 l 1158 775 q 1162 770 1160 772 q 1167 765 1164 768 q 1168 763 1167 764 q 1169 761 1169 761 q 1172 758 1171 760 q 1175 756 1174 757 q 1181 745 1178 750 q 1188 735 1185 740 q 1188 731 1188 733 q 1189 726 1189 729 q 1191 718 1190 722 q 1192 710 1192 714 q 1183 668 1192 688 q 1156 631 1174 649 q 1119 597 1139 613 q 1075 568 1099 582 q 1036 548 1057 558 q 993 526 1015 538 q 972 516 982 521 q 951 506 961 511 q 930 497 940 501 q 908 488 919 492 q 883 476 896 482 q 858 465 871 471 q 833 454 846 460 q 808 444 821 449 l 575 347 q 572 345 574 346 q 571 344 571 344 q 570 344 571 344 q 569 344 569 344 q 569 343 569 343 q 568 343 568 343 q 565 342 567 343 q 563 340 564 342 q 561 340 561 340 q 560 340 561 340 q 559 340 560 340 q 557 339 558 339 q 555 338 556 338 q 554 338 554 338 q 501 313 526 325 q 454 288 476 300 q 421 255 432 274 q 410 211 410 236 q 410 203 410 207 q 410 197 410 200 q 410 192 410 194 q 413 188 411 190 q 413 185 413 186 q 414 183 414 185 q 425 157 417 169 q 446 132 433 144 q 469 110 457 119 q 497 92 482 100 q 531 76 513 83 q 571 65 550 69 q 611 56 590 60 q 654 50 632 53 q 676 48 665 49 q 700 47 688 47 q 711 47 706 47 q 722 46 717 46 q 732 46 726 46 q 743 46 738 46 q 749 46 746 46 q 754 46 751 46 q 765 46 760 46 q 776 46 771 46 q 785 46 781 46 q 794 47 790 46 q 803 48 799 47 q 813 49 808 49 q 908 63 861 53 q 1001 86 954 72 q 1085 122 1047 101 q 1154 169 1124 143 q 1194 211 1176 189 q 1226 258 1211 233 q 1254 308 1242 283 q 1276 358 1267 333 q 1279 369 1278 364 q 1283 379 1281 374 q 1286 388 1285 383 q 1289 399 1288 393 q 1292 409 1290 404 q 1296 419 1293 414 q 1299 428 1297 424 q 1301 439 1300 433 l 1246 440 q 1116 424 1169 439 q 1033 381 1063 410 q 978 317 1003 351 q 935 243 954 283 q 934 240 935 242 q 932 238 933 239 q 930 235 931 236 q 929 232 929 233 q 927 229 928 231 q 926 228 926 228 q 925 225 925 226 q 925 222 925 224 l 876 232 q 878 235 878 233 q 881 238 879 236 q 881 241 881 239 q 883 244 882 243 q 885 249 883 247 q 886 253 886 250 q 889 256 888 254 q 892 260 890 258 q 895 271 893 265 q 900 282 897 276 q 906 292 903 288 q 913 303 910 297 q 922 324 917 314 q 932 344 926 333 q 943 365 938 354 q 954 385 949 375 q 979 425 965 406 q 1010 463 993 444 q 1057 500 1032 486 q 1113 518 1082 514 q 1173 524 1140 522 q 1243 526 1206 526 q 1244 526 1244 526 q 1246 526 1244 526 q 1249 526 1247 526 q 1251 526 1250 526 q 1253 526 1253 526 q 1254 526 1253 526 q 1257 526 1256 526 q 1260 526 1258 526 l 1347 528 l 1475 574 l 1475 574 l 1475 574 m 410 331 l 717 450 q 716 450 717 450 q 715 450 715 450 q 715 451 715 450 q 714 451 714 451 q 714 453 714 453 q 714 456 714 454 q 704 478 711 467 q 688 499 697 489 q 660 513 676 508 q 625 518 644 518 q 569 509 594 518 q 521 482 543 500 q 478 444 497 464 q 446 404 460 425 q 434 384 440 394 q 422 364 428 374 q 415 345 418 354 q 410 329 413 336 l 410 331 l 410 331 z "},"'":{"ha":333,"x_min":354,"x_max":539,"o":"m 354 686 l 454 946 l 539 946 l 413 704 l 354 686 l 354 686 l 354 686 z "},"(":{"ha":542,"x_min":242,"x_max":858,"o":"m 801 924 l 822 926 l 858 913 q 699 797 771 861 q 572 658 628 733 q 478 506 518 583 q 414 349 439 428 q 397 282 404 315 q 385 217 390 249 q 377 152 379 183 q 375 89 375 121 q 375 77 375 83 q 375 64 375 71 q 375 52 375 58 q 376 39 375 46 q 383 -22 379 8 q 397 -83 388 -53 q 419 -145 407 -115 q 450 -204 432 -175 q 439 -207 444 -206 q 428 -210 433 -208 q 417 -211 422 -210 q 406 -214 411 -212 q 394 -216 400 -215 q 385 -218 389 -217 q 374 -219 379 -218 q 363 -221 368 -219 q 360 -221 361 -221 q 357 -222 358 -221 q 356 -222 357 -222 q 354 -222 354 -222 q 351 -222 353 -222 q 349 -224 350 -222 q 347 -224 349 -224 q 346 -224 346 -224 q 342 -224 344 -224 q 339 -225 340 -224 q 334 -225 336 -225 q 331 -225 332 -225 q 324 -226 328 -225 q 318 -228 321 -226 q 284 -171 299 -200 q 260 -112 269 -142 q 246 -52 250 -82 q 242 6 242 -22 q 245 78 242 42 q 254 151 249 114 q 271 226 261 189 q 293 303 281 264 q 372 477 325 392 q 483 646 419 563 q 627 797 547 728 q 801 922 707 867 l 801 924 l 801 924 z "},")":{"ha":458,"x_min":35,"x_max":651,"o":"m 92 -225 l 71 -228 l 35 -214 q 194 -99 122 -161 q 321 38 265 -36 q 415 190 375 113 q 479 349 454 268 q 496 413 489 381 q 508 479 503 446 q 515 544 513 511 q 518 607 518 576 q 514 682 518 644 q 501 757 510 719 q 478 831 492 794 q 443 904 464 868 q 453 907 447 906 q 464 910 458 908 q 467 910 465 910 q 471 911 468 910 q 478 913 474 911 q 485 914 482 914 q 492 915 489 915 q 500 917 496 915 q 503 917 501 917 q 507 918 506 917 q 519 919 513 918 q 531 921 525 919 q 534 921 532 921 q 538 921 536 921 q 544 923 540 922 q 551 924 547 924 q 557 924 554 924 q 564 925 560 924 q 569 926 567 925 q 575 926 572 926 q 609 869 594 899 q 633 811 624 840 q 647 752 643 782 q 651 690 651 722 q 648 619 651 656 q 638 544 644 582 q 631 507 635 526 q 622 469 626 488 q 612 431 617 450 q 600 393 607 413 q 521 218 569 304 q 408 50 472 132 q 265 -99 344 -31 q 92 -224 186 -168 l 92 -225 l 92 -225 z "},"*":{"ha":875,"x_min":458,"x_max":1067,"o":"m 458 654 l 675 724 l 692 750 l 546 836 l 617 872 l 654 846 l 742 785 l 760 789 l 789 883 l 806 940 l 872 940 l 896 940 l 872 893 l 826 793 l 843 785 l 1035 854 l 1050 832 l 1067 808 l 856 749 l 846 725 l 897 692 l 943 665 l 1000 629 l 926 597 l 804 683 l 783 681 l 729 524 l 689 524 l 638 524 l 717 682 l 704 692 l 635 665 l 575 642 l 500 613 l 458 654 l 458 654 l 458 654 z "},"+":{"ha":1083,"x_min":214,"x_max":1068,"o":"m 214 319 l 589 319 l 589 569 l 693 569 l 693 319 l 1068 319 l 1068 250 l 693 250 l 693 0 l 589 0 l 589 250 l 214 250 l 214 319 l 214 319 l 214 319 z "},",":{"ha":458,"x_min":63,"x_max":447,"o":"m 297 208 l 447 238 q 444 226 446 232 q 443 217 443 221 q 440 206 442 211 q 438 194 439 200 q 434 183 436 189 q 431 172 432 178 q 426 161 428 167 q 422 150 424 156 q 410 117 417 133 q 396 86 403 101 q 378 57 388 71 q 358 31 369 43 q 327 1 344 15 q 289 -28 310 -14 q 245 -57 267 -43 q 201 -85 224 -71 q 190 -91 196 -87 q 178 -99 183 -94 q 168 -105 174 -101 q 158 -111 163 -108 q 147 -117 153 -114 q 136 -124 142 -119 q 126 -129 132 -126 q 117 -135 121 -132 l 63 -119 q 165 -49 122 -85 q 235 25 208 -12 q 278 110 263 65 q 297 207 293 156 l 297 208 l 297 208 z "},"-":{"ha":583,"x_min":239,"x_max":625,"o":"m 339 328 l 625 328 l 533 240 q 531 239 533 239 q 526 239 529 239 q 516 239 524 239 q 493 240 508 239 q 458 240 479 240 q 406 240 436 240 q 334 240 376 240 q 239 240 292 240 q 247 248 243 244 q 254 256 250 251 q 269 270 261 263 q 285 285 276 278 q 310 306 297 296 q 339 326 324 317 l 339 328 l 339 328 z "},".":{"ha":458,"x_min":222,"x_max":475,"o":"m 222 94 l 317 144 l 375 176 l 475 74 l 322 -12 q 293 10 307 -1 q 267 36 279 22 q 242 65 253 50 q 222 93 231 79 l 222 94 l 222 94 z "},"/":{"ha":708,"x_min":-12,"x_max":1114,"o":"m -12 -228 l 239 43 l 1025 940 l 1067 938 l 1114 935 l 885 688 l 81 -233 l -12 -228 l -12 -228 l -12 -228 z "},":":{"ha":542,"x_min":204,"x_max":601,"o":"m 204 93 l 300 143 l 356 176 l 456 74 l 306 -12 q 275 10 290 -1 q 247 36 260 22 q 224 63 235 49 q 204 92 214 78 l 204 93 l 204 93 m 601 460 l 508 410 l 450 378 l 350 481 l 501 567 q 515 554 508 561 q 531 540 522 547 q 544 528 538 535 q 558 514 551 521 q 581 487 571 500 q 601 458 592 474 l 601 460 l 601 460 z "},";":{"ha":500,"x_min":60,"x_max":576,"o":"m 296 208 l 446 238 q 443 226 444 232 q 440 217 442 221 q 438 206 439 211 q 435 194 436 200 q 431 183 433 189 q 428 172 429 178 q 424 161 426 167 q 421 150 422 156 q 412 128 417 139 q 401 107 407 118 q 397 97 399 101 q 392 86 394 92 q 374 57 383 71 q 356 31 365 43 q 324 1 342 15 q 288 -28 307 -14 q 244 -57 265 -43 q 200 -85 222 -71 q 188 -91 194 -87 q 176 -99 182 -94 q 165 -105 171 -101 q 156 -111 160 -108 q 149 -115 153 -114 q 142 -119 144 -117 q 138 -121 139 -119 q 135 -124 136 -122 q 124 -129 129 -126 q 114 -135 118 -132 l 60 -119 q 163 -49 119 -85 q 233 25 206 -12 q 275 110 260 65 q 296 207 290 156 l 296 208 l 296 208 m 576 461 l 483 411 l 425 379 l 325 482 l 475 568 q 504 542 490 556 q 531 515 518 529 q 555 488 543 501 q 576 460 567 475 l 576 461 l 576 461 z "},"<":{"ha":1083,"x_min":250,"x_max":1160,"o":"m 1160 46 l 1160 -24 l 250 253 l 250 317 l 1160 596 l 1160 525 l 368 283 l 1160 46 l 1160 46 l 1160 46 z "},"=":{"ha":1083,"x_min":225,"x_max":1079,"o":"m 225 226 l 1079 226 l 1079 157 l 225 157 l 225 226 l 225 226 l 225 226 m 225 413 l 1079 413 l 1079 343 l 225 343 l 225 413 l 225 413 l 225 413 z "},">":{"ha":1083,"x_min":247,"x_max":1158,"o":"m 247 46 l 1039 283 l 247 525 l 247 596 l 1158 317 l 1158 253 l 247 -24 l 247 46 l 247 46 l 247 46 z "},"?":{"ha":792,"x_min":271,"x_max":1035,"o":"m 271 94 l 364 144 l 422 176 l 522 74 l 371 -12 q 341 10 356 -1 q 314 36 326 22 q 289 65 300 50 q 271 93 278 79 l 271 94 l 271 94 m 397 228 l 422 426 l 429 451 l 464 472 q 469 470 467 471 q 476 469 472 469 q 482 467 479 468 q 488 467 485 467 q 501 465 494 465 q 513 465 507 465 q 518 465 515 465 q 524 464 521 464 q 529 463 526 463 q 535 463 532 463 q 548 463 542 463 q 560 463 554 463 q 619 466 592 463 q 672 475 647 469 q 722 493 697 482 q 768 518 746 504 q 808 551 790 533 q 839 588 825 568 q 859 628 851 607 q 867 671 867 649 q 859 706 867 690 q 838 736 851 722 q 800 758 822 751 q 747 765 778 765 q 679 756 713 765 q 618 731 646 747 q 567 695 590 714 q 529 657 544 676 q 527 655 528 656 q 526 654 526 654 q 524 652 525 653 q 522 650 524 651 q 522 649 522 650 q 521 647 521 649 q 520 647 521 647 q 519 647 519 647 q 519 645 519 646 q 518 643 518 644 l 472 729 q 539 765 504 750 q 614 790 574 781 q 697 803 654 799 q 785 808 740 808 q 877 801 833 808 q 958 778 921 793 q 1015 738 996 764 q 1035 675 1035 711 q 1035 669 1035 672 q 1035 665 1035 667 q 1033 660 1033 663 q 1033 656 1033 658 q 1033 652 1033 654 q 1032 647 1032 650 q 1031 644 1032 646 q 1031 639 1031 642 q 1015 597 1025 618 q 989 557 1004 576 q 956 521 974 538 q 917 489 939 504 q 851 455 886 469 q 779 431 817 440 q 699 415 740 421 q 618 407 658 410 q 615 407 617 407 q 611 407 613 407 q 608 406 610 406 q 604 406 606 406 q 598 406 601 406 q 592 406 594 406 q 559 402 574 404 q 533 397 544 400 q 513 386 522 394 q 496 364 503 378 q 487 349 490 357 q 481 332 483 340 q 478 324 479 328 q 475 315 476 319 q 472 306 474 310 q 471 297 471 301 q 468 283 469 290 q 467 269 467 276 q 465 256 465 263 q 464 243 464 250 l 397 228 l 397 228 l 397 228 z "},"@":{"ha":1458,"x_min":213,"x_max":1593,"o":"m 1085 596 l 1122 693 l 1272 693 l 1121 311 q 1118 306 1119 308 q 1117 301 1117 304 q 1117 299 1117 300 q 1117 296 1117 297 q 1114 290 1115 293 q 1113 285 1113 288 q 1113 282 1113 283 q 1113 281 1113 281 q 1113 278 1113 279 q 1113 275 1113 276 q 1116 256 1113 265 q 1129 239 1119 246 q 1150 228 1139 232 q 1176 225 1161 225 q 1191 226 1183 225 q 1208 228 1199 226 q 1224 231 1215 229 q 1242 236 1232 233 q 1268 247 1254 240 q 1296 260 1282 253 q 1322 275 1310 267 q 1347 292 1335 283 q 1353 297 1350 294 q 1361 301 1357 299 q 1369 306 1365 303 q 1375 311 1372 308 q 1381 316 1378 314 q 1386 321 1383 318 q 1392 325 1389 322 q 1397 329 1394 328 q 1433 369 1417 349 q 1464 413 1450 390 q 1489 460 1479 436 q 1504 508 1499 483 q 1506 523 1504 515 q 1508 538 1507 531 q 1508 544 1508 540 q 1510 551 1508 547 q 1510 558 1510 554 q 1510 565 1510 561 q 1469 692 1510 635 q 1350 794 1429 750 q 1181 864 1269 839 q 996 894 1093 889 q 990 894 993 894 q 985 896 988 894 q 978 896 981 896 q 972 896 975 896 q 965 896 968 896 q 958 896 961 896 q 955 896 957 896 q 951 896 953 896 q 700 866 814 896 q 492 776 586 836 q 351 640 399 717 q 304 468 304 563 q 351 293 304 371 q 496 157 399 215 q 708 68 590 97 q 964 39 825 39 q 1119 53 1046 39 q 1260 93 1193 67 q 1383 158 1328 121 q 1481 240 1438 194 l 1583 242 q 1472 134 1538 182 q 1322 50 1407 86 q 1145 -2 1238 15 q 954 -19 1053 -19 q 672 13 803 -19 q 431 113 540 46 q 267 266 321 179 q 213 458 213 353 q 264 651 213 563 q 418 811 315 739 q 652 921 521 885 q 939 957 783 957 q 945 957 942 957 q 951 957 949 957 q 957 957 954 957 q 963 957 960 957 q 965 957 964 957 q 968 957 967 957 q 1074 948 1021 956 q 1181 928 1128 940 q 1283 898 1233 915 q 1375 858 1332 881 q 1470 799 1429 831 q 1539 732 1511 768 q 1580 656 1567 697 q 1593 567 1593 614 q 1584 494 1593 529 q 1558 424 1575 458 q 1513 359 1540 389 q 1447 301 1485 329 q 1444 299 1446 300 q 1440 297 1442 297 q 1437 294 1439 296 q 1433 292 1435 293 q 1428 289 1431 290 q 1425 288 1426 288 q 1421 285 1422 286 q 1418 282 1419 283 q 1376 260 1399 271 q 1329 238 1354 249 q 1304 228 1317 232 q 1281 219 1292 224 q 1256 211 1268 215 q 1231 204 1243 207 q 1206 198 1218 200 q 1181 193 1193 196 q 1156 191 1168 192 q 1133 190 1144 190 q 1069 199 1096 190 q 1022 226 1042 208 q 994 264 1004 244 q 985 306 985 283 l 981 307 q 977 303 979 306 q 974 300 975 301 q 970 296 972 297 q 967 293 968 294 q 960 288 964 290 q 954 282 957 285 q 910 248 932 264 q 864 221 888 232 q 809 203 839 208 q 743 197 779 197 q 692 201 717 197 q 642 213 667 204 q 596 230 617 219 q 558 253 575 240 q 521 285 536 268 q 496 319 506 301 q 483 356 486 336 q 479 396 479 375 q 487 451 479 424 q 510 504 494 478 q 547 554 525 531 q 596 599 569 578 q 655 636 622 618 q 726 669 688 654 q 807 694 767 685 q 889 704 847 703 q 890 704 890 704 q 892 704 890 704 q 894 704 893 704 q 897 704 896 704 q 899 704 899 704 q 900 704 899 704 q 903 704 901 704 q 906 704 904 704 q 975 697 946 704 q 1026 674 1004 689 q 1062 638 1049 658 q 1081 594 1075 618 l 1085 596 l 1085 596 l 1085 596 m 767 231 q 847 244 811 229 q 914 289 883 258 q 969 351 946 318 q 1010 419 993 385 q 1027 459 1019 439 q 1039 499 1035 479 q 1047 535 1044 518 q 1050 565 1050 551 q 1049 568 1050 567 q 1049 571 1049 569 q 1048 574 1049 572 q 1047 578 1047 576 q 1047 584 1047 581 q 1047 590 1047 588 q 1034 619 1043 606 q 1013 646 1025 633 q 980 665 1000 658 q 935 672 960 672 q 849 658 888 672 q 775 615 810 643 q 714 555 740 586 q 668 489 688 524 q 651 454 658 471 q 639 421 644 438 q 633 390 635 404 q 631 363 631 375 q 631 352 631 357 q 633 342 632 347 q 635 331 633 336 q 638 321 636 326 q 653 288 642 303 q 679 257 664 272 q 717 236 694 243 q 767 229 739 229 l 767 231 l 767 231 z "},"A":{"ha":1292,"x_min":47,"x_max":1431,"o":"m 997 790 l 1164 778 q 1185 778 1175 776 q 1201 782 1194 779 q 1210 785 1206 783 q 1218 788 1214 786 q 1225 792 1221 790 q 1233 797 1229 794 q 1238 801 1235 799 q 1243 804 1240 803 q 1249 809 1246 807 q 1256 813 1253 811 l 1268 824 l 1296 810 l 1218 465 l 1167 115 q 1172 79 1167 93 q 1188 58 1176 65 q 1220 48 1199 51 q 1272 44 1242 44 l 1431 54 l 1397 24 l 1271 7 q 1264 5 1268 6 q 1254 4 1260 4 q 1244 2 1250 3 q 1229 0 1238 1 q 1198 -2 1214 0 q 1164 -6 1182 -4 q 1163 -6 1164 -6 q 1161 -7 1163 -6 q 1159 -7 1160 -7 q 1158 -7 1158 -7 q 1156 -7 1157 -7 q 1154 -7 1154 -7 q 1134 -10 1144 -8 q 1115 -12 1124 -11 q 1097 -14 1106 -12 q 1079 -17 1088 -15 q 1051 -20 1061 -19 q 1035 -21 1040 -21 q 1034 -21 1035 -21 q 1032 -21 1033 -21 q 1030 -21 1031 -21 q 1029 -21 1029 -21 q 1026 -21 1028 -21 q 1025 -21 1025 -21 q 1010 -18 1017 -19 q 997 -14 1004 -17 q 988 -8 992 -12 q 985 0 985 -4 q 992 62 988 31 q 1001 124 996 93 q 1015 187 1008 156 q 1029 249 1021 218 l 917 253 l 718 256 l 660 256 l 447 93 q 428 80 438 86 q 413 68 419 74 q 394 58 403 63 q 379 49 386 53 q 329 24 354 35 q 279 6 304 13 q 222 -3 253 0 q 154 -7 190 -7 q 126 -6 140 -7 q 100 -4 113 -6 q 88 -2 94 -3 q 74 -1 81 -1 q 60 0 67 0 q 47 0 54 0 l 125 99 l 213 93 q 276 94 247 92 q 329 103 306 97 q 345 108 338 106 q 360 113 353 110 q 391 124 375 118 q 421 139 407 131 q 436 149 428 143 q 454 161 444 156 q 474 174 464 168 q 493 189 483 181 l 763 415 l 1079 697 l 772 714 q 772 713 772 714 q 769 713 771 713 q 767 713 768 713 q 767 713 767 713 q 765 713 765 713 q 764 713 764 713 q 762 713 763 713 q 760 713 761 713 q 682 703 719 711 q 610 679 644 694 q 559 642 575 665 q 543 589 543 619 q 544 573 543 581 q 546 558 544 565 q 550 542 547 550 q 556 528 553 535 q 557 524 557 526 q 558 519 557 522 q 561 511 560 515 q 564 503 563 507 q 567 497 565 500 q 569 492 568 494 q 572 486 571 489 q 575 481 574 483 q 576 477 575 479 q 578 474 576 475 q 580 469 579 471 q 581 467 581 468 q 583 464 582 465 q 585 461 583 463 q 585 457 585 458 q 588 454 586 456 l 435 397 q 423 423 429 410 q 414 450 417 436 q 410 478 411 464 q 408 506 408 492 q 419 563 408 536 q 451 613 429 590 q 501 657 474 636 q 560 699 529 678 q 625 737 592 719 q 693 768 658 754 q 769 790 728 783 q 858 797 811 797 l 997 790 l 997 790 l 997 790 m 718 308 l 1042 308 l 1121 664 l 1117 667 l 718 308 l 718 308 l 718 308 z "},"B":{"ha":1250,"x_min":156,"x_max":1338,"o":"m 776 804 l 946 858 l 929 813 l 976 813 q 1007 810 992 811 q 1039 810 1022 810 q 1072 809 1054 810 q 1108 807 1090 808 q 1190 794 1150 803 q 1264 772 1229 786 q 1319 735 1300 758 q 1338 679 1338 713 q 1319 614 1338 644 q 1263 558 1300 583 q 1183 513 1225 533 q 1097 476 1142 492 q 1089 474 1093 475 q 1081 471 1085 472 q 1072 468 1076 469 q 1063 465 1067 467 q 1044 460 1053 463 q 1029 456 1036 458 l 1029 454 q 1033 453 1031 454 q 1036 453 1035 453 q 1040 453 1038 453 q 1043 453 1042 453 q 1047 453 1044 453 q 1051 453 1049 453 q 1052 451 1051 451 q 1054 451 1053 451 q 1057 451 1056 451 q 1060 451 1058 451 q 1147 438 1106 449 q 1226 410 1189 428 q 1284 366 1264 392 q 1304 306 1304 340 q 1285 227 1304 263 q 1231 164 1267 192 q 1149 112 1193 135 q 1054 69 1106 89 q 1027 60 1040 64 q 1001 51 1014 56 q 989 48 996 50 q 976 44 982 46 q 963 40 969 42 q 950 38 957 39 q 926 31 938 35 q 901 25 914 28 q 853 15 878 19 q 804 7 829 10 q 726 1 767 3 q 646 0 686 0 l 518 1 l 293 1 l 200 1 l 296 68 q 351 71 324 68 q 404 79 379 74 q 452 94 429 83 q 496 121 475 104 q 521 147 508 132 q 543 179 533 161 q 562 217 553 199 q 581 257 571 236 q 586 272 583 264 q 593 288 589 279 q 599 302 596 294 q 604 318 601 310 q 609 332 607 325 q 614 346 611 339 q 618 359 615 353 q 622 371 621 365 l 764 767 q 761 766 763 767 q 758 765 760 765 q 753 765 756 765 q 747 764 750 764 q 744 764 746 764 q 742 764 743 764 q 736 764 739 764 q 731 764 733 764 q 686 760 708 763 q 642 754 664 758 q 619 751 631 753 q 597 747 608 750 q 535 732 565 742 q 476 711 504 722 q 398 671 429 693 q 351 625 367 649 q 326 571 335 600 q 318 507 318 542 q 320 481 318 493 q 325 456 322 468 q 331 431 328 443 q 339 406 335 418 l 176 354 q 167 376 171 365 q 160 399 163 388 q 156 422 157 410 q 156 446 156 433 q 201 593 156 531 q 339 697 247 656 q 531 764 429 738 q 742 800 632 790 q 747 800 744 800 q 751 800 749 800 q 756 801 753 800 q 760 801 758 801 q 763 801 761 801 q 768 803 765 801 q 769 803 768 803 q 771 803 769 803 q 774 803 772 803 q 776 803 775 803 l 776 804 l 776 804 m 492 74 l 671 61 l 785 57 q 857 59 822 56 q 925 68 892 63 q 987 88 957 75 q 1043 121 1017 101 q 1067 142 1056 131 q 1088 165 1078 153 q 1105 191 1097 178 q 1118 218 1113 204 q 1120 224 1119 221 q 1122 232 1121 228 q 1123 238 1122 235 q 1125 244 1124 242 q 1126 249 1125 247 q 1126 253 1126 251 q 1127 256 1126 254 q 1128 258 1128 257 q 1128 265 1128 261 q 1129 271 1129 268 q 1108 339 1129 311 q 1046 381 1086 367 q 959 403 1006 396 q 860 410 913 410 l 785 408 l 772 376 q 772 372 772 374 q 769 367 771 369 q 767 363 768 365 q 767 358 767 361 q 764 351 765 354 q 763 344 763 347 q 754 325 758 335 q 747 306 750 315 q 739 288 743 297 q 731 269 735 278 q 708 235 721 251 q 679 201 696 218 q 642 170 661 185 q 600 140 622 156 q 578 126 589 133 q 557 113 568 119 q 535 99 546 106 q 514 86 525 93 q 508 83 511 85 q 501 78 504 81 q 499 76 500 76 q 497 75 497 75 q 494 73 496 74 q 492 72 493 72 l 492 74 l 492 74 m 917 776 l 797 446 q 803 446 800 446 q 810 446 806 446 q 815 446 813 446 q 821 446 818 446 q 826 446 824 446 q 832 447 829 446 q 838 447 835 447 q 843 447 840 447 q 897 453 871 450 q 947 461 922 456 q 997 474 972 465 q 1043 492 1021 482 q 1089 520 1068 504 q 1125 557 1110 536 q 1149 597 1140 576 q 1160 640 1157 618 q 1160 642 1160 642 q 1161 644 1161 643 q 1162 647 1161 646 q 1163 649 1163 647 q 1163 653 1163 651 q 1163 657 1163 656 q 1163 662 1163 660 q 1163 665 1163 664 q 1162 667 1163 667 q 1161 669 1161 668 q 1160 672 1161 671 q 1160 675 1160 674 q 1156 688 1158 682 q 1150 700 1154 693 q 1143 712 1147 706 q 1135 724 1139 718 q 1110 746 1125 736 q 1076 761 1096 756 q 1056 766 1067 764 q 1035 769 1046 768 q 1013 772 1025 771 q 989 774 1001 772 q 977 774 983 774 q 964 774 971 774 q 952 774 958 774 q 939 775 946 774 q 933 775 936 775 q 926 775 929 775 q 924 775 925 775 q 922 775 922 775 q 919 775 921 775 q 917 775 918 775 l 917 776 l 917 776 z "},"C":{"ha":1083,"x_min":183,"x_max":1322,"o":"m 1113 90 l 1097 50 q 1006 8 1054 28 q 904 -31 957 -12 q 796 -62 851 -49 q 683 -85 740 -75 q 661 -87 672 -86 q 639 -90 650 -89 q 615 -93 626 -92 q 593 -96 604 -94 q 549 -99 571 -99 q 506 -100 528 -100 q 365 -83 426 -100 q 264 -35 304 -67 q 203 37 224 -4 q 183 128 183 78 q 183 142 183 135 q 183 156 183 149 q 183 162 183 158 q 185 169 183 165 q 185 176 185 172 q 188 182 186 179 q 213 290 194 236 q 264 397 232 344 q 341 497 297 450 q 438 586 385 544 q 439 587 438 586 q 442 589 440 588 q 442 590 442 589 q 444 592 443 590 q 447 592 446 592 q 447 594 447 593 q 560 667 497 632 q 697 736 622 703 q 847 788 771 768 q 1004 817 924 808 q 1012 817 1008 817 q 1019 818 1015 817 q 1028 818 1024 818 q 1038 818 1033 818 q 1047 818 1042 818 q 1056 819 1051 818 q 1064 819 1060 819 q 1072 819 1068 819 q 1168 811 1125 819 q 1246 788 1211 803 q 1299 746 1281 771 q 1322 685 1318 721 l 1171 597 q 1156 654 1168 626 q 1121 707 1143 682 q 1060 744 1097 732 q 971 757 1022 757 q 834 742 899 757 q 710 694 769 726 q 603 629 650 664 q 521 557 557 594 q 471 499 493 529 q 429 435 449 468 q 397 368 411 401 q 372 300 382 335 q 369 285 371 293 q 365 271 367 278 q 363 255 364 263 q 360 240 361 247 q 356 212 357 226 q 356 182 356 197 q 372 100 356 139 q 422 29 388 61 q 510 -18 457 -1 q 635 -35 563 -35 q 763 -25 700 -35 q 888 1 825 -15 q 1005 42 949 21 q 1113 89 1061 64 l 1113 90 l 1113 90 z "},"D":{"ha":1458,"x_min":179,"x_max":1581,"o":"m 188 0 l 285 65 q 288 65 286 65 q 293 64 290 64 q 297 64 294 64 q 300 64 299 64 q 303 64 301 64 q 307 65 306 64 q 310 66 308 65 q 314 67 313 67 q 317 67 315 67 q 319 67 318 67 q 322 67 321 67 q 325 67 324 67 q 328 67 326 67 q 332 68 329 67 q 335 68 333 68 q 338 68 336 68 q 354 69 346 68 q 372 71 363 71 q 389 74 381 72 q 406 76 397 75 q 437 84 421 79 q 468 94 453 89 q 506 115 489 103 q 538 144 524 128 q 563 176 551 160 q 585 211 575 193 q 590 219 588 215 q 594 228 592 224 q 598 235 596 231 q 601 243 600 239 q 604 251 603 247 q 608 260 606 256 q 611 267 610 263 q 614 275 613 271 l 789 767 q 617 742 696 761 q 476 689 539 722 q 381 605 413 656 q 350 488 350 554 q 350 477 350 482 q 350 467 350 472 q 351 456 350 461 q 354 447 353 451 q 356 436 354 442 q 358 426 357 431 q 359 421 358 424 q 361 417 360 418 q 363 411 363 414 q 364 406 364 408 l 196 356 q 188 376 190 365 q 183 396 185 386 q 180 417 181 407 q 179 438 179 428 q 221 573 179 513 q 347 678 263 633 q 524 752 432 722 q 718 799 617 782 q 731 801 725 800 q 744 803 738 801 q 758 803 751 803 q 771 806 765 804 q 784 808 778 807 q 797 810 790 808 q 811 810 804 810 q 825 813 818 811 l 971 857 l 960 821 q 999 818 979 819 q 1042 815 1019 817 q 1082 813 1061 814 q 1125 810 1103 811 q 1288 787 1210 803 q 1438 746 1365 771 q 1545 674 1510 721 q 1581 556 1581 626 q 1581 541 1581 549 q 1579 526 1581 533 q 1578 510 1579 518 q 1575 496 1576 503 q 1572 481 1574 489 q 1568 467 1571 474 q 1565 451 1567 458 q 1560 436 1563 443 q 1535 378 1550 407 q 1504 322 1521 350 q 1465 269 1486 294 q 1421 224 1444 244 q 1360 176 1393 197 q 1293 139 1328 156 q 1219 108 1258 122 q 1139 78 1179 93 q 1101 65 1119 71 q 1064 53 1082 58 q 1031 43 1047 47 q 1000 35 1015 39 q 976 29 988 32 q 953 24 964 26 q 930 20 942 22 q 906 17 918 18 q 856 10 883 13 q 797 6 829 8 l 426 0 l 188 0 l 188 0 l 188 0 m 943 781 l 839 489 q 835 476 838 483 q 831 463 832 469 q 826 447 828 454 q 821 432 824 440 q 815 415 818 424 q 808 400 811 407 q 802 383 806 392 q 796 367 799 375 q 790 353 793 360 q 785 340 788 347 q 774 316 779 328 q 763 292 769 304 q 744 259 753 274 q 729 233 736 244 q 717 222 724 228 q 704 208 711 215 q 695 200 700 204 q 685 192 690 196 q 680 188 682 190 q 675 183 678 186 q 665 175 671 179 q 656 168 660 171 q 644 160 650 164 q 635 154 639 157 q 628 149 632 151 q 621 144 624 147 q 607 135 614 140 q 593 126 600 131 q 577 116 585 121 q 563 106 569 111 q 555 101 558 103 q 547 96 551 99 q 525 83 535 89 q 506 69 515 76 l 747 67 q 756 66 751 67 q 764 65 760 65 q 771 65 767 65 q 779 65 775 65 q 787 65 783 65 q 794 65 790 65 q 802 65 799 65 q 810 65 806 65 q 939 71 878 65 q 1056 89 1000 76 q 1161 128 1111 101 q 1254 197 1211 156 q 1292 240 1274 217 q 1325 289 1310 263 q 1353 341 1340 314 q 1375 394 1365 368 q 1378 406 1376 400 q 1381 417 1379 411 q 1387 441 1383 429 q 1392 464 1390 453 q 1396 497 1394 481 q 1397 531 1397 514 q 1397 533 1397 532 q 1397 536 1397 535 q 1397 538 1397 536 q 1397 540 1397 539 q 1397 546 1397 543 q 1397 551 1397 549 q 1384 607 1394 579 q 1354 661 1374 635 q 1307 708 1336 688 q 1238 742 1278 728 q 1199 753 1219 749 q 1156 761 1178 757 q 1133 764 1144 763 q 1111 767 1122 765 q 1089 769 1100 768 q 1067 772 1078 771 q 1042 773 1054 772 q 1017 775 1029 774 q 993 776 1004 775 q 971 778 982 776 q 967 778 969 778 q 964 778 965 778 q 959 778 961 778 q 956 778 957 778 q 953 778 954 778 q 950 779 951 778 q 946 779 947 779 q 943 779 944 779 l 943 781 l 943 781 z "},"E":{"ha":1292,"x_min":158,"x_max":1392,"o":"m 750 783 l 893 815 l 883 788 l 1329 792 q 1354 783 1343 788 q 1372 771 1365 778 q 1385 756 1381 764 q 1392 738 1390 747 l 1256 650 q 1244 667 1250 658 q 1233 683 1238 675 q 1228 691 1231 688 q 1224 697 1226 694 q 1219 703 1221 700 q 1214 708 1217 706 q 1192 726 1204 719 q 1168 738 1181 733 q 1139 742 1156 740 q 1101 744 1122 744 q 1094 744 1097 744 q 1088 744 1090 744 q 1084 744 1086 744 q 1081 744 1082 744 q 1075 744 1078 744 q 1069 744 1072 744 q 1064 744 1067 744 q 1058 744 1061 744 q 1052 744 1056 744 q 1044 743 1049 743 q 1037 743 1040 743 q 1031 743 1033 743 q 1017 743 1025 743 q 1001 743 1010 743 l 868 744 l 756 426 l 1129 426 l 1051 386 l 956 382 l 735 374 l 729 357 q 718 328 724 342 q 708 303 713 314 q 703 291 706 297 q 699 281 701 285 q 694 270 696 275 q 689 261 692 265 q 677 236 683 247 q 664 215 671 225 q 651 196 658 206 q 633 176 643 186 q 608 155 622 167 q 579 132 594 143 q 540 106 561 119 q 493 75 518 92 l 464 57 l 981 57 q 987 56 983 56 q 993 56 990 56 q 999 56 996 56 q 1004 56 1001 56 q 1007 56 1006 56 q 1010 56 1008 56 q 1023 56 1017 56 q 1035 56 1029 56 q 1044 56 1039 56 q 1054 56 1049 56 q 1059 56 1057 56 q 1064 56 1061 56 q 1077 56 1071 56 q 1090 56 1083 56 q 1104 56 1097 56 q 1117 56 1111 56 q 1142 57 1129 56 q 1164 60 1154 58 q 1194 67 1182 63 q 1217 76 1207 71 q 1228 92 1224 83 q 1233 113 1233 100 q 1233 115 1233 114 q 1232 119 1232 117 q 1231 123 1232 121 q 1231 126 1231 125 q 1231 129 1231 128 q 1231 133 1231 131 q 1229 137 1229 135 q 1229 140 1229 139 q 1228 142 1229 142 q 1228 144 1228 143 q 1227 145 1228 144 q 1226 147 1226 146 q 1226 149 1226 149 q 1226 151 1226 150 q 1226 152 1226 151 q 1226 154 1226 153 q 1226 156 1226 156 q 1225 157 1225 156 q 1224 157 1225 157 q 1224 158 1224 157 q 1223 159 1224 158 q 1222 161 1222 160 q 1222 163 1222 163 q 1222 165 1222 164 q 1222 166 1222 165 q 1222 168 1222 167 l 1376 208 q 1377 206 1376 207 q 1378 203 1378 204 q 1378 201 1378 201 q 1379 199 1379 200 q 1381 195 1379 197 q 1383 192 1382 193 q 1383 188 1383 190 q 1383 183 1383 186 q 1383 181 1383 182 q 1385 179 1383 181 q 1385 177 1385 178 q 1385 175 1385 176 q 1378 150 1385 163 q 1358 125 1371 138 q 1341 109 1350 117 q 1322 94 1332 101 q 1313 88 1318 92 q 1304 82 1308 85 q 1292 74 1299 78 q 1279 65 1286 69 q 1267 58 1274 61 q 1256 51 1261 54 q 1233 38 1243 44 q 1214 26 1224 32 q 1195 17 1204 21 q 1176 8 1186 13 q 1150 0 1164 3 q 1121 -4 1136 -3 q 1084 -8 1106 -7 q 1038 -10 1063 -10 l 839 -8 l 496 -3 l 214 0 l 293 46 q 401 68 358 53 q 467 110 444 83 q 506 165 489 135 q 535 231 522 196 q 537 235 536 233 q 539 240 538 238 q 540 244 539 242 q 542 249 540 247 q 545 258 543 253 q 550 268 547 263 l 585 368 l 525 365 l 604 428 l 717 739 q 708 738 713 739 q 697 738 703 738 q 678 737 688 738 q 658 736 669 736 q 628 734 643 735 q 597 733 613 733 q 497 719 544 729 q 406 694 450 710 q 340 651 363 679 q 318 581 318 622 q 320 552 318 567 q 326 522 322 538 q 335 494 329 508 q 346 464 340 479 l 196 397 q 193 402 194 400 q 192 406 192 404 q 190 408 190 407 q 189 411 189 410 q 188 413 188 411 q 188 415 188 414 q 176 440 182 428 q 167 465 171 453 q 160 490 161 478 q 158 517 158 503 q 177 585 158 553 q 233 646 196 618 q 312 695 271 674 q 400 733 353 717 q 453 749 425 742 q 510 761 481 756 q 549 768 529 765 q 588 774 568 771 q 607 776 597 775 q 626 778 617 776 q 644 778 635 778 q 663 779 653 779 q 672 780 667 779 q 681 781 676 781 q 694 781 688 781 q 707 782 700 781 q 712 782 710 782 q 717 782 714 782 q 726 782 721 782 q 735 782 731 782 q 736 782 736 782 q 738 782 736 782 q 740 782 739 782 q 743 782 742 782 q 745 782 744 782 q 747 782 746 782 q 748 782 747 782 q 750 782 749 782 l 750 783 l 750 783 z "},"F":{"ha":1208,"x_min":125,"x_max":1526,"o":"m 904 408 l 1231 408 q 1228 406 1229 407 q 1225 403 1226 404 q 1219 399 1222 401 q 1214 396 1217 397 q 1208 392 1211 394 q 1201 388 1204 390 q 1194 383 1197 385 q 1186 378 1190 381 q 1178 374 1182 376 q 1171 371 1175 372 q 1151 366 1161 368 q 1129 363 1142 364 q 1110 360 1119 361 q 1093 357 1101 358 q 1074 356 1083 357 q 1056 356 1065 356 q 1019 353 1038 354 q 981 353 1000 353 q 978 353 979 353 q 975 353 976 353 q 974 353 974 353 q 972 353 974 353 q 969 353 971 353 q 967 353 968 353 q 965 353 965 353 q 964 353 965 353 q 955 353 960 353 q 944 353 950 353 q 934 351 939 351 q 925 351 929 351 q 914 351 919 351 q 903 351 908 351 q 893 350 899 350 q 883 350 888 350 l 842 233 q 837 222 839 228 q 833 211 835 217 q 831 206 832 208 q 831 201 831 204 q 828 198 829 200 q 826 193 828 196 q 806 147 817 168 q 785 107 796 126 q 758 72 772 89 q 725 38 744 54 q 701 19 714 28 q 676 0 689 10 q 647 -17 663 -7 q 614 -37 632 -28 q 608 -40 611 -39 q 601 -44 604 -42 q 594 -48 597 -46 q 588 -51 590 -50 q 572 -60 579 -56 q 558 -68 565 -64 q 552 -71 556 -69 q 544 -75 549 -72 q 537 -78 540 -76 q 531 -82 533 -81 q 517 -88 524 -85 q 504 -94 511 -92 q 493 -99 499 -97 q 482 -104 488 -101 q 472 -108 478 -106 q 463 -112 467 -111 q 451 -117 457 -115 q 442 -121 446 -118 q 431 -124 436 -122 q 422 -128 426 -126 q 399 -135 410 -132 q 379 -140 389 -139 q 368 -143 374 -142 q 358 -146 363 -144 q 348 -147 353 -146 q 339 -150 343 -149 q 325 -152 332 -151 q 311 -153 318 -153 q 297 -155 304 -154 q 283 -156 290 -156 q 269 -156 276 -156 q 253 -157 261 -156 q 238 -157 246 -157 q 222 -157 231 -157 l 125 -156 l 204 -64 l 333 -67 q 410 -62 374 -65 q 476 -54 446 -60 q 535 -33 508 -49 q 583 6 561 -18 q 591 15 588 10 q 599 28 594 21 q 606 40 603 33 q 614 54 610 47 q 620 69 617 61 q 628 83 624 76 q 635 98 632 90 q 642 114 639 106 q 647 127 644 121 q 651 140 649 133 q 656 153 653 146 q 660 165 658 160 q 669 189 665 178 q 676 210 674 200 l 726 344 l 675 344 l 747 408 l 879 765 l 792 769 q 658 756 718 768 q 554 719 599 743 q 486 657 508 694 q 464 569 464 619 q 467 533 464 551 q 475 497 469 515 q 488 462 482 479 q 501 428 494 444 l 333 376 q 319 405 325 390 q 310 433 313 419 q 303 463 306 449 q 301 493 301 478 q 317 572 301 533 q 364 646 333 611 q 438 710 396 682 q 533 758 481 738 q 618 785 574 774 q 710 801 663 796 q 774 808 742 806 q 838 811 806 810 q 869 813 853 813 q 901 814 886 814 q 906 814 904 814 q 911 814 908 814 q 916 814 914 814 q 921 814 918 814 q 931 814 925 814 q 942 814 936 814 q 951 814 946 814 q 963 814 957 814 q 968 814 965 814 q 974 814 971 814 q 979 814 976 814 q 985 814 982 814 q 988 813 986 814 q 992 813 990 813 q 998 813 994 813 q 1006 813 1001 813 q 1011 813 1008 813 q 1018 813 1014 813 q 1024 813 1021 813 q 1029 813 1026 813 l 1200 814 q 1286 814 1244 813 q 1368 819 1328 815 q 1448 833 1408 822 q 1526 861 1488 843 l 1506 826 l 1375 763 l 1035 768 l 904 408 l 904 408 l 904 408 z "},"G":{"ha":1292,"x_min":246,"x_max":1396,"o":"m 1218 336 l 1146 133 q 1144 128 1144 131 q 1143 124 1143 126 q 1141 120 1142 122 q 1139 115 1140 118 q 1138 112 1139 114 q 1136 108 1138 110 q 1134 104 1135 106 q 1133 100 1133 103 q 1103 28 1119 63 q 1071 -42 1088 -7 q 1024 -108 1053 -76 q 958 -171 996 -140 q 919 -199 940 -186 q 876 -225 899 -212 q 831 -250 854 -237 q 785 -274 808 -262 q 774 -278 779 -276 q 763 -282 768 -281 q 757 -284 760 -283 q 751 -286 754 -285 q 747 -288 749 -287 q 742 -290 744 -289 q 731 -294 736 -292 q 722 -297 726 -296 q 690 -306 706 -303 q 658 -314 674 -310 q 642 -317 650 -315 q 626 -319 635 -318 q 575 -324 601 -322 q 521 -326 549 -326 l 364 -321 l 451 -229 l 658 -240 q 737 -234 703 -239 q 796 -219 771 -229 q 842 -191 821 -210 q 881 -144 864 -172 q 899 -113 890 -129 q 913 -81 907 -97 q 919 -64 915 -72 q 926 -47 922 -56 q 933 -31 929 -39 q 939 -14 936 -22 q 939 -11 939 -12 q 939 -8 939 -10 q 940 -8 939 -8 q 940 -7 940 -7 q 941 -6 940 -6 q 942 -6 942 -6 q 948 10 944 1 q 954 28 951 18 q 958 36 956 32 q 961 46 960 40 q 965 54 963 50 q 968 63 967 58 q 867 30 918 44 q 764 3 817 15 q 658 -15 711 -8 q 547 -21 604 -21 q 410 -5 468 -21 q 317 43 353 11 q 263 116 281 75 q 246 206 246 157 q 247 235 246 221 q 250 264 247 250 q 257 294 253 279 q 267 324 261 308 q 302 404 281 364 q 354 483 324 444 q 418 556 383 522 q 492 619 453 590 q 622 703 551 667 q 772 767 692 740 q 939 806 853 793 q 1118 819 1025 819 q 1119 819 1119 819 q 1121 819 1119 819 q 1124 819 1122 819 q 1126 819 1125 819 q 1128 819 1128 819 q 1129 819 1128 819 q 1132 819 1131 819 q 1135 819 1133 819 q 1218 813 1178 818 q 1296 796 1258 807 q 1358 765 1333 786 q 1396 714 1383 744 l 1243 599 q 1220 665 1238 635 q 1175 721 1203 696 q 1099 757 1144 744 q 993 769 1054 769 q 868 756 928 769 q 756 717 808 743 q 658 660 701 690 q 579 596 614 631 q 535 546 556 572 q 497 490 515 519 q 468 432 481 461 q 446 372 456 403 q 435 339 440 356 q 426 306 429 322 q 423 272 424 289 q 422 240 422 256 q 422 238 422 239 q 422 238 422 238 q 422 238 422 238 q 422 238 422 238 q 422 236 422 236 q 422 236 422 236 q 438 163 422 197 q 485 96 454 128 q 564 49 517 65 q 676 33 611 33 q 761 40 719 33 q 843 60 803 46 q 921 90 883 74 q 989 126 958 107 l 1067 335 l 792 326 l 760 325 l 760 338 l 888 379 l 993 379 l 1356 374 l 1260 335 l 1218 336 l 1218 336 l 1218 336 z "},"H":{"ha":1417,"x_min":68,"x_max":1892,"o":"m 817 449 l 1263 449 l 1288 508 l 1326 610 q 1350 664 1338 639 q 1376 711 1363 689 q 1409 753 1389 732 q 1454 793 1429 774 q 1471 807 1461 800 q 1492 821 1481 814 q 1515 835 1503 828 q 1542 851 1528 843 q 1555 860 1549 856 q 1571 868 1561 864 q 1586 876 1578 872 q 1604 886 1594 881 q 1607 888 1606 888 q 1611 890 1608 889 q 1614 891 1613 890 q 1617 893 1615 892 q 1624 898 1619 896 q 1633 901 1628 900 q 1641 906 1638 904 q 1649 911 1644 908 q 1658 915 1653 913 q 1667 919 1663 918 q 1676 924 1671 922 q 1685 926 1681 925 q 1693 931 1689 929 q 1701 933 1697 932 q 1710 936 1706 935 q 1721 939 1715 938 q 1726 940 1724 939 q 1731 940 1728 940 q 1736 941 1733 940 q 1742 942 1739 942 q 1753 942 1747 942 q 1764 943 1758 943 q 1767 943 1765 943 q 1772 944 1769 943 q 1776 944 1774 944 q 1779 944 1778 944 q 1786 944 1782 944 q 1796 944 1790 944 q 1808 944 1803 944 q 1819 943 1814 944 q 1831 942 1825 943 q 1843 942 1838 942 q 1856 941 1850 942 q 1868 940 1861 940 q 1880 938 1874 939 q 1892 938 1886 938 l 1821 863 q 1807 863 1814 863 q 1793 865 1800 864 q 1778 866 1785 865 q 1764 867 1771 867 q 1750 867 1757 867 q 1736 868 1743 868 q 1722 869 1729 869 q 1708 869 1715 869 q 1674 868 1690 869 q 1646 864 1658 867 q 1619 855 1632 861 q 1596 838 1607 849 q 1578 822 1586 831 q 1564 801 1571 813 q 1552 780 1558 792 q 1539 757 1546 768 q 1531 738 1535 747 q 1525 721 1528 729 q 1519 705 1522 713 q 1513 690 1515 697 l 1421 469 l 1356 294 q 1353 287 1354 290 q 1351 279 1351 283 q 1349 270 1350 275 q 1346 261 1347 265 q 1342 251 1344 256 q 1339 240 1340 246 q 1334 230 1336 235 q 1331 219 1332 225 q 1330 217 1331 218 q 1329 215 1329 217 q 1327 212 1328 214 q 1326 207 1326 210 q 1325 201 1325 204 q 1325 194 1325 197 q 1315 167 1319 181 q 1308 139 1311 153 q 1303 115 1306 125 q 1301 96 1301 104 q 1306 77 1301 85 q 1321 67 1311 69 q 1342 63 1331 64 q 1367 61 1353 61 l 1558 72 l 1521 39 l 1392 22 q 1370 19 1382 21 q 1346 14 1358 17 q 1337 13 1342 14 q 1326 11 1332 13 q 1308 8 1317 10 q 1288 6 1299 7 q 1285 4 1286 4 q 1283 4 1283 4 q 1281 4 1282 4 q 1281 4 1281 4 q 1278 3 1279 3 q 1276 3 1278 3 q 1240 -1 1258 1 q 1204 -4 1221 -3 q 1173 -8 1186 -7 q 1151 -10 1160 -10 q 1149 -10 1150 -10 q 1146 -10 1147 -10 q 1144 -10 1144 -10 q 1143 -10 1144 -10 q 1142 -10 1143 -10 q 1140 -10 1142 -10 q 1138 -8 1139 -8 q 1138 -8 1138 -8 q 1126 -6 1132 -7 q 1117 -3 1119 -6 q 1110 1 1111 -1 q 1108 7 1108 3 q 1108 9 1108 8 q 1108 11 1108 10 q 1108 13 1108 13 q 1110 15 1108 14 q 1110 17 1110 17 q 1110 19 1110 18 q 1110 22 1110 21 q 1110 24 1110 22 q 1113 44 1110 32 q 1121 71 1115 56 q 1131 102 1125 86 q 1146 136 1138 118 q 1146 141 1146 139 q 1147 144 1146 143 q 1148 147 1147 146 q 1149 150 1149 149 q 1149 150 1149 150 q 1150 151 1150 150 q 1151 153 1150 151 q 1151 154 1151 154 q 1156 167 1154 161 q 1161 181 1158 174 q 1166 193 1164 186 q 1171 206 1168 200 q 1174 213 1172 210 q 1176 219 1175 217 q 1183 233 1179 226 q 1188 244 1186 239 l 1247 408 l 850 394 l 793 392 l 785 372 q 781 364 783 368 q 778 356 779 360 q 774 348 776 351 q 771 342 772 344 q 765 328 768 335 q 758 315 761 322 q 749 299 754 307 q 740 285 744 292 q 731 270 736 276 q 722 257 726 264 q 702 232 713 244 q 679 208 692 219 q 654 188 667 199 q 626 167 642 178 q 594 144 611 157 q 556 119 576 132 q 518 96 536 107 q 485 75 500 85 q 454 58 469 65 q 425 43 439 50 q 373 22 400 31 q 318 10 346 14 q 253 2 290 4 q 172 0 217 0 l 68 6 l 163 96 l 281 92 q 363 94 325 90 q 431 104 400 97 q 490 128 463 111 q 542 171 517 144 q 562 199 553 183 q 581 231 571 214 q 589 247 585 239 q 597 264 593 256 q 604 281 600 272 q 613 297 608 289 q 617 310 615 304 q 622 322 619 315 q 626 334 624 328 q 631 346 629 340 q 636 361 633 354 q 642 376 639 368 q 644 383 643 379 q 647 390 646 388 l 593 396 l 667 443 l 781 744 l 721 744 q 599 734 653 743 q 504 706 544 725 q 443 653 464 688 q 422 569 422 618 q 424 545 422 557 q 429 522 426 533 q 437 498 432 510 q 447 475 442 486 l 289 442 q 282 459 285 450 q 276 478 279 468 q 273 497 274 488 q 272 515 272 506 q 288 592 272 557 q 339 654 304 626 q 416 706 372 682 q 513 747 460 729 q 572 765 540 758 q 638 778 603 772 q 704 785 669 782 q 775 790 739 789 q 819 792 797 792 q 863 793 840 793 q 885 793 874 793 q 907 794 896 793 q 928 794 917 794 q 950 794 939 794 l 1008 796 l 929 750 l 817 449 l 817 449 l 817 449 z "},"I":{"ha":792,"x_min":168,"x_max":1001,"o":"m 168 0 l 243 35 l 368 44 l 406 136 l 639 754 l 447 763 l 521 796 l 1001 796 l 925 763 l 801 754 l 533 43 l 726 33 l 656 0 l 168 0 l 168 0 l 168 0 z "},"J":{"ha":833,"x_min":1,"x_max":1022,"o":"m 539 476 l 381 428 q 378 434 379 431 q 375 440 376 438 q 374 444 374 442 q 372 447 374 446 q 368 457 369 451 q 367 468 367 463 q 362 477 364 472 q 360 488 360 482 q 360 498 360 493 q 360 508 360 503 q 375 588 360 551 q 421 654 390 624 q 494 708 450 683 q 596 751 538 733 q 667 771 631 763 q 743 783 704 779 q 794 788 768 786 q 846 792 819 790 q 872 792 858 792 q 897 793 885 793 q 913 793 906 793 q 929 794 921 793 q 944 794 936 794 q 960 794 951 794 q 991 794 975 794 q 1022 794 1007 794 l 956 756 l 779 258 q 770 235 774 246 q 764 217 767 225 q 758 199 761 207 q 751 182 754 190 q 745 165 749 174 q 739 150 742 157 q 731 136 735 143 q 725 122 728 129 q 708 97 717 110 q 688 74 699 85 q 676 63 682 68 q 664 53 669 57 q 650 42 657 47 q 635 31 643 36 q 602 10 619 21 q 563 -12 585 -1 l 368 -114 q 308 -137 339 -126 q 246 -154 278 -147 q 181 -165 215 -161 q 110 -168 146 -168 l 1 -162 l 83 -69 q 88 -68 86 -68 q 93 -69 90 -68 q 99 -69 96 -69 q 104 -69 101 -69 q 110 -69 107 -69 q 115 -71 113 -69 q 121 -72 118 -71 q 126 -72 124 -72 q 132 -72 129 -72 q 138 -72 135 -72 q 140 -73 139 -72 q 143 -74 142 -74 q 147 -74 144 -74 q 151 -75 149 -74 q 152 -75 151 -75 q 154 -75 153 -75 q 157 -75 156 -75 q 160 -75 158 -75 q 178 -76 169 -75 q 197 -78 188 -76 q 206 -78 201 -78 q 217 -79 211 -78 q 226 -79 221 -79 q 235 -79 231 -79 q 381 -61 321 -79 q 476 -7 442 -43 q 539 69 511 26 q 585 160 567 111 l 660 346 q 653 358 657 353 q 642 367 649 363 q 628 375 636 371 q 610 383 619 379 l 693 438 l 801 743 q 799 742 800 743 q 796 742 797 742 q 790 742 793 742 q 785 742 788 742 q 778 742 782 742 q 772 742 775 742 q 669 733 715 742 q 588 704 622 724 q 535 656 553 686 q 518 582 518 625 q 520 555 518 568 q 525 528 522 542 q 531 501 528 514 q 539 475 535 488 l 539 476 l 539 476 z "},"K":{"ha":1375,"x_min":183,"x_max":1772,"o":"m 1001 753 l 897 465 l 901 463 l 985 508 l 1379 726 q 1381 726 1379 726 q 1383 726 1382 726 q 1383 726 1383 726 q 1385 728 1383 726 q 1385 728 1385 728 q 1385 729 1385 729 q 1390 732 1388 731 q 1396 735 1393 733 q 1399 737 1397 736 q 1401 738 1400 738 q 1405 740 1403 739 q 1410 743 1407 742 q 1410 743 1410 743 q 1413 744 1411 743 q 1415 746 1414 744 q 1418 747 1417 747 q 1432 754 1425 751 q 1446 761 1439 757 q 1474 773 1460 767 q 1501 785 1488 779 q 1549 797 1524 793 q 1601 801 1574 801 q 1620 801 1611 801 q 1639 799 1629 800 q 1648 798 1643 799 q 1657 797 1653 797 q 1666 795 1661 796 q 1675 794 1671 794 q 1681 792 1678 793 q 1686 792 1683 792 q 1692 790 1689 790 q 1697 789 1694 789 q 1710 786 1704 788 q 1722 783 1717 785 l 1646 683 q 1634 685 1640 683 q 1622 688 1628 686 q 1617 688 1619 688 q 1611 690 1614 689 q 1606 691 1608 690 q 1600 693 1603 692 q 1581 696 1590 694 q 1563 699 1572 697 q 1553 699 1558 699 q 1543 700 1547 700 q 1532 701 1538 701 q 1522 701 1526 701 q 1476 697 1500 701 q 1425 683 1451 692 q 1369 663 1397 674 q 1313 639 1340 651 q 1288 627 1300 633 q 1263 614 1275 621 q 1251 608 1257 611 q 1238 601 1244 604 q 1226 594 1232 597 q 1213 588 1219 590 q 1165 563 1188 575 q 1122 539 1143 550 q 1085 517 1103 526 q 1056 499 1068 507 l 1025 482 l 1283 31 q 1297 12 1290 21 q 1308 -4 1303 3 q 1324 -24 1315 -14 q 1342 -43 1332 -33 q 1383 -85 1361 -65 q 1431 -124 1404 -106 q 1489 -152 1458 -143 q 1554 -161 1519 -161 q 1612 -154 1586 -161 q 1658 -133 1638 -147 q 1697 -104 1678 -119 q 1733 -74 1715 -89 q 1735 -70 1733 -72 q 1739 -65 1736 -68 q 1740 -65 1740 -65 q 1742 -62 1740 -64 q 1744 -60 1743 -61 q 1747 -57 1746 -58 l 1751 -76 l 1772 -174 q 1761 -175 1767 -174 q 1750 -178 1756 -176 q 1744 -180 1747 -179 q 1739 -181 1742 -181 q 1731 -183 1735 -182 q 1722 -185 1726 -183 q 1719 -185 1721 -185 q 1717 -185 1718 -185 q 1711 -187 1714 -186 q 1706 -187 1708 -187 q 1692 -190 1699 -189 q 1678 -192 1685 -190 q 1664 -194 1671 -193 q 1650 -194 1657 -194 q 1619 -197 1635 -196 q 1588 -197 1603 -197 q 1469 -188 1526 -197 q 1358 -162 1411 -179 q 1260 -120 1306 -146 q 1181 -61 1215 -94 q 1145 -24 1163 -43 q 1113 17 1128 -4 q 1083 63 1097 40 q 1056 111 1068 86 q 1036 147 1046 129 q 1017 182 1026 164 q 999 217 1007 200 q 985 249 992 233 l 892 440 l 888 440 q 883 427 885 433 q 879 414 881 421 q 876 408 878 411 q 874 403 875 406 q 872 396 874 399 q 871 390 871 393 q 853 349 863 369 q 833 310 844 329 q 808 272 822 290 q 776 236 794 253 q 733 198 754 217 q 688 161 711 179 q 638 125 663 143 q 588 90 613 107 q 582 87 585 89 q 576 82 579 85 q 569 78 572 81 q 564 74 567 76 q 556 69 560 71 q 550 64 553 67 q 547 62 549 63 q 543 60 544 61 l 754 61 l 793 60 l 781 54 q 730 35 753 43 q 692 19 707 26 q 661 10 676 14 q 631 4 646 7 q 599 1 615 3 q 567 0 583 0 q 524 0 549 0 q 472 0 500 0 q 469 0 471 0 q 467 0 468 0 q 461 0 464 0 q 456 0 458 0 q 452 0 454 0 q 449 0 450 0 q 445 0 447 0 q 442 0 443 0 l 183 0 l 272 61 l 300 61 q 303 60 301 61 q 307 60 306 60 q 310 60 308 60 q 314 60 313 60 q 317 60 315 60 q 322 60 319 60 q 326 60 324 60 q 329 60 328 60 q 333 59 331 60 q 336 58 335 58 q 340 58 338 58 q 343 58 342 58 q 347 58 344 58 q 351 58 349 58 q 355 58 353 58 q 358 58 357 58 q 396 60 378 58 q 431 64 414 63 q 442 66 436 65 q 454 68 449 67 q 477 74 465 71 q 501 83 489 78 q 507 86 504 85 q 513 89 510 88 q 515 91 514 90 q 518 93 517 92 q 522 95 519 94 q 525 96 524 96 q 531 101 528 99 q 539 106 535 103 q 590 148 567 125 q 629 196 614 171 q 658 246 644 221 q 683 297 671 271 l 767 514 l 847 746 l 750 750 q 642 742 694 749 q 543 719 590 735 q 473 676 496 706 q 450 601 450 646 q 453 566 450 583 q 463 532 457 549 q 477 499 469 515 q 496 467 485 482 l 331 419 q 328 423 329 421 q 326 426 326 425 q 324 431 325 429 q 321 435 322 433 q 316 443 318 439 q 313 453 314 447 q 304 469 307 461 q 300 486 301 478 q 297 503 297 494 q 296 522 296 513 q 308 590 296 558 q 346 649 321 622 q 406 698 371 675 q 489 739 442 721 q 564 765 525 754 q 643 781 603 775 q 726 792 683 788 q 813 799 769 797 q 826 799 819 799 q 839 799 832 799 q 851 799 844 799 q 864 799 858 799 q 877 799 871 799 q 890 800 883 799 q 904 800 897 800 q 917 800 911 800 l 1110 796 q 1088 778 1100 786 q 1060 765 1075 771 q 1031 757 1046 760 q 1001 751 1017 754 l 1001 753 l 1001 753 z "},"L":{"ha":1208,"x_min":68,"x_max":1314,"o":"m 1026 719 l 901 725 q 856 722 876 724 q 818 715 836 719 q 784 702 800 711 q 754 678 768 693 q 740 661 746 671 q 726 639 733 651 q 715 614 721 626 q 704 589 708 601 q 694 569 699 579 q 688 547 690 558 q 681 528 685 538 q 675 513 678 519 l 651 456 l 617 353 q 614 344 615 349 q 611 338 613 340 q 608 330 610 333 q 606 322 607 326 q 600 306 603 314 q 596 292 597 299 q 591 281 593 286 q 586 271 589 276 q 581 260 583 265 q 576 250 579 256 q 572 240 575 244 q 568 229 569 235 q 563 219 565 224 q 558 210 561 214 q 541 185 550 196 q 522 165 532 174 q 501 147 513 156 q 476 131 489 139 q 471 127 474 129 q 465 124 468 125 q 460 119 463 121 q 454 115 457 118 q 449 112 451 114 q 443 108 446 110 q 436 104 439 106 q 431 101 433 103 l 372 68 l 904 68 q 974 68 940 67 q 1042 72 1008 69 q 1105 87 1074 75 q 1164 118 1136 99 q 1192 138 1179 128 q 1214 161 1204 149 q 1235 186 1225 174 q 1256 213 1246 199 q 1260 219 1258 215 q 1265 226 1263 222 q 1270 233 1268 229 q 1275 239 1272 236 q 1280 245 1278 242 q 1285 251 1282 249 q 1289 258 1286 254 q 1293 264 1292 261 l 1314 239 l 1281 185 l 1239 121 q 1231 109 1235 115 q 1225 97 1228 103 q 1222 92 1224 94 q 1218 88 1219 90 q 1215 83 1217 85 q 1213 78 1214 81 q 1207 70 1210 74 q 1201 63 1204 67 q 1171 29 1188 43 q 1135 7 1154 15 q 1081 -3 1115 0 q 1000 -7 1047 -7 l 788 -4 l 285 8 l 68 6 l 139 58 l 206 58 q 252 59 231 57 q 292 67 274 61 q 303 70 297 68 q 314 75 308 72 q 337 88 325 81 q 358 104 349 96 q 377 123 368 113 q 393 147 386 133 q 409 176 401 161 q 422 204 417 190 q 426 215 424 210 q 431 226 428 221 q 434 236 432 231 q 438 247 436 242 q 441 258 439 253 q 444 268 443 263 q 448 277 446 272 q 451 286 450 282 q 455 297 453 292 q 458 310 457 303 q 465 334 461 321 q 472 361 468 347 q 485 403 479 382 q 500 446 492 424 q 522 500 510 474 q 547 553 533 526 q 577 601 560 579 q 614 640 594 622 q 654 671 633 656 q 700 700 675 686 q 747 728 724 715 q 796 753 771 740 q 799 753 797 753 q 801 756 800 754 q 803 756 801 756 q 806 758 804 757 q 812 761 808 760 q 818 764 815 763 q 826 768 822 767 q 835 771 831 769 q 842 775 838 774 q 850 778 846 776 q 856 781 853 779 q 864 783 860 782 q 872 785 868 783 q 881 788 876 786 q 911 794 896 792 q 942 797 926 796 q 976 799 957 799 q 1013 800 994 800 l 1106 799 l 1026 719 l 1026 719 l 1026 719 z "},"M":{"ha":1750,"x_min":121,"x_max":2101,"o":"m 214 97 l 385 89 q 469 96 435 88 q 525 122 504 104 q 563 163 544 140 q 596 214 581 186 q 596 214 596 214 q 596 215 596 214 q 596 215 596 215 q 597 217 596 215 q 597 217 597 217 q 597 218 597 218 l 696 443 l 800 711 l 639 722 q 636 722 638 722 q 633 721 635 721 q 632 721 632 721 q 631 721 632 721 q 628 721 629 721 q 625 721 626 721 q 624 721 624 721 q 622 721 624 721 q 524 711 571 719 q 438 688 478 703 q 374 645 394 672 q 354 579 354 618 q 358 542 354 561 q 372 507 363 524 q 393 472 382 489 q 417 440 404 456 q 417 438 417 439 q 418 438 417 438 q 418 435 418 436 q 418 435 418 435 q 419 434 418 435 q 421 432 419 433 q 422 432 421 432 q 422 432 422 432 l 271 358 q 250 388 260 374 q 233 419 240 403 q 222 453 225 436 q 218 488 218 469 q 230 546 218 517 q 264 603 242 575 q 314 655 288 631 q 368 701 340 679 q 376 707 372 704 q 385 713 381 710 q 392 718 388 715 q 400 724 396 721 q 414 734 407 729 q 429 743 421 739 q 490 775 458 763 q 556 796 521 788 q 630 808 589 804 q 718 813 671 813 l 888 806 l 956 840 l 1064 221 l 1131 285 l 1363 515 l 1613 750 q 1617 755 1615 753 q 1622 758 1619 757 q 1625 761 1624 760 q 1628 764 1626 763 q 1635 770 1632 767 q 1642 776 1639 774 q 1648 782 1644 779 q 1654 789 1651 785 q 1660 794 1657 792 q 1667 800 1664 797 q 1673 806 1669 803 q 1681 811 1676 808 q 1687 815 1683 813 q 1693 821 1690 818 q 1708 832 1700 826 q 1726 843 1717 838 q 1730 845 1728 844 q 1733 846 1732 846 q 1740 851 1736 849 q 1747 854 1743 853 q 1760 860 1754 857 q 1775 867 1767 864 q 1781 869 1778 868 q 1788 872 1785 871 q 1791 874 1789 874 q 1794 876 1793 875 q 1799 877 1797 876 q 1804 879 1801 878 q 1853 897 1828 889 q 1904 914 1878 906 q 1956 926 1929 922 q 2010 931 1982 931 q 2017 931 2014 931 q 2025 931 2021 931 q 2040 929 2032 929 q 2056 928 2047 929 q 2080 926 2068 926 q 2101 922 2092 925 l 2018 849 l 1996 851 q 1981 851 1988 851 q 1967 853 1974 851 q 1952 853 1958 853 q 1939 856 1946 854 q 1934 856 1936 856 q 1929 856 1932 856 q 1926 856 1928 856 q 1924 857 1925 856 q 1916 857 1919 857 q 1910 857 1913 857 q 1905 857 1907 857 q 1900 857 1903 857 q 1897 857 1899 857 q 1894 858 1896 857 q 1887 858 1890 858 q 1881 858 1883 858 q 1849 856 1863 858 q 1829 846 1836 853 q 1817 832 1824 840 q 1808 814 1811 824 q 1806 810 1807 813 q 1804 806 1804 808 q 1803 803 1804 804 q 1803 803 1803 803 q 1802 801 1803 801 q 1801 799 1801 800 l 1656 439 l 1572 203 q 1567 190 1569 196 q 1563 176 1564 183 q 1558 165 1560 171 q 1554 151 1556 158 q 1549 138 1551 144 q 1547 125 1547 132 q 1546 113 1546 119 q 1546 100 1546 107 q 1551 74 1546 85 q 1567 60 1556 64 q 1593 52 1578 54 q 1629 50 1608 50 l 1788 57 l 1826 58 l 1781 25 l 1535 1 q 1529 1 1532 1 q 1524 0 1526 0 q 1518 0 1521 0 q 1513 0 1515 0 q 1506 0 1510 0 q 1499 -1 1503 0 q 1491 -2 1494 -1 q 1485 -3 1488 -3 q 1482 -3 1483 -3 q 1481 -4 1481 -3 q 1479 -4 1479 -4 q 1479 -4 1479 -4 q 1478 -4 1478 -4 q 1476 -4 1478 -4 q 1474 -4 1475 -4 q 1471 -4 1472 -4 q 1469 -5 1469 -4 q 1468 -6 1469 -6 q 1449 -8 1458 -7 q 1429 -10 1439 -8 q 1420 -10 1425 -10 q 1411 -11 1415 -10 q 1403 -11 1407 -11 q 1396 -11 1399 -11 q 1393 -11 1394 -11 q 1392 -11 1392 -11 q 1391 -11 1392 -11 q 1390 -11 1390 -11 q 1390 -11 1390 -11 q 1389 -11 1389 -11 q 1372 -8 1379 -10 q 1358 -3 1365 -6 q 1347 4 1350 0 q 1343 14 1343 8 q 1344 19 1343 17 q 1346 24 1344 21 q 1347 29 1346 26 q 1350 36 1349 32 q 1350 37 1350 36 q 1350 39 1350 38 q 1350 39 1350 39 q 1351 40 1350 39 q 1351 41 1351 40 q 1351 42 1351 42 q 1352 44 1351 43 q 1353 46 1353 44 q 1353 48 1353 47 q 1354 50 1354 49 q 1354 52 1354 51 q 1356 54 1354 53 q 1356 55 1356 54 q 1358 57 1357 56 l 1593 667 l 1589 669 q 1570 650 1579 660 q 1551 632 1561 640 q 1543 623 1547 628 q 1535 614 1539 618 q 1526 604 1531 608 q 1517 596 1521 600 q 1506 585 1511 590 q 1494 576 1500 581 q 1485 566 1490 571 q 1475 556 1479 561 q 1465 545 1471 550 q 1456 536 1460 540 q 1444 526 1450 531 q 1435 517 1439 521 q 1327 410 1381 464 q 1221 303 1274 357 q 1121 192 1168 249 q 1031 79 1074 136 l 933 28 l 917 208 l 851 656 l 847 656 l 751 403 q 751 401 751 401 q 750 399 750 400 q 748 395 749 397 q 747 392 747 393 q 747 389 747 390 q 746 388 746 388 q 746 385 746 386 q 746 382 746 383 q 741 371 743 376 q 738 360 739 365 q 733 349 735 354 q 729 338 731 343 q 704 283 717 310 q 676 228 692 256 q 641 176 661 201 q 596 126 621 150 q 586 119 590 122 q 579 113 582 115 q 573 107 576 110 q 567 101 569 104 q 490 51 529 71 q 410 19 450 31 q 318 5 369 10 q 204 0 267 0 l 121 1 l 214 97 l 214 97 l 214 97 z "},"N":{"ha":1458,"x_min":83,"x_max":1906,"o":"m 671 790 l 789 785 l 856 829 l 979 533 q 982 526 981 529 q 985 519 983 522 q 986 512 985 515 q 989 506 988 508 q 992 499 990 503 q 994 493 993 496 q 997 487 996 490 q 1000 481 999 483 q 1047 378 1022 429 q 1096 278 1071 328 q 1151 179 1121 228 q 1217 82 1182 131 l 1221 83 l 1306 351 q 1319 389 1313 369 q 1331 431 1325 408 q 1340 459 1335 444 q 1350 488 1344 474 q 1355 503 1353 496 q 1360 518 1357 511 q 1378 568 1369 543 q 1397 618 1388 593 q 1418 665 1407 643 q 1442 707 1429 688 q 1470 750 1454 729 q 1506 789 1486 771 q 1549 826 1526 808 q 1597 860 1572 843 q 1600 860 1599 860 q 1603 863 1601 861 q 1606 863 1604 863 q 1608 865 1607 864 q 1611 867 1610 867 q 1614 869 1613 868 q 1615 870 1614 869 q 1618 872 1617 871 q 1665 899 1640 886 q 1714 922 1689 911 q 1767 940 1739 933 q 1826 946 1796 946 l 1893 944 l 1817 851 l 1746 856 q 1690 850 1715 854 q 1646 839 1665 846 q 1612 818 1628 831 q 1581 786 1596 806 q 1549 745 1564 768 q 1518 694 1533 722 q 1492 640 1504 668 q 1468 585 1479 613 q 1449 540 1458 563 q 1431 493 1439 517 q 1415 451 1421 471 q 1401 413 1408 431 l 1272 17 q 1281 6 1275 11 q 1292 -6 1286 0 q 1302 -17 1296 -11 q 1314 -29 1308 -24 q 1376 -83 1342 -57 q 1454 -133 1411 -110 q 1542 -169 1496 -157 q 1638 -181 1588 -181 q 1710 -172 1678 -181 q 1767 -143 1743 -162 q 1809 -104 1790 -125 q 1842 -60 1828 -83 q 1842 -58 1842 -58 q 1844 -56 1843 -57 q 1847 -53 1846 -54 q 1847 -51 1847 -53 q 1848 -49 1847 -50 q 1850 -46 1849 -47 q 1851 -44 1850 -44 q 1851 -43 1851 -44 l 1906 -169 q 1840 -192 1874 -182 q 1771 -207 1806 -201 q 1747 -210 1758 -208 q 1722 -212 1735 -211 q 1674 -217 1699 -215 q 1625 -218 1650 -218 q 1497 -209 1560 -218 q 1376 -181 1435 -200 q 1267 -135 1317 -162 q 1176 -75 1217 -108 q 1097 -1 1133 -42 q 1029 88 1061 39 q 972 188 999 136 q 922 292 944 239 q 906 329 914 311 q 892 367 899 347 q 878 403 885 385 q 864 440 871 422 q 838 510 850 476 q 814 575 825 544 l 801 618 l 797 618 l 771 540 q 767 529 769 535 q 764 518 765 524 q 759 508 761 513 q 756 497 757 503 q 753 487 754 492 q 750 478 751 482 q 746 467 747 472 q 743 457 744 463 q 717 388 731 422 q 688 319 703 353 q 652 254 672 286 q 608 190 632 222 q 605 186 607 189 q 601 182 603 183 q 597 177 599 179 q 593 172 594 175 q 590 169 592 171 q 588 167 589 168 q 582 161 585 164 q 576 156 579 158 q 547 126 563 140 q 514 96 532 111 q 477 69 496 82 q 439 44 458 56 q 436 43 438 44 q 433 42 435 42 q 428 39 431 40 q 422 36 425 38 q 419 35 421 36 q 417 33 418 33 q 411 31 414 32 q 406 28 408 29 q 356 10 381 17 q 306 0 331 3 q 288 0 297 0 q 269 0 279 0 q 232 -2 251 -1 q 192 -3 213 -3 l 83 -1 l 181 93 l 314 89 q 391 91 358 88 q 446 103 424 94 q 484 126 465 111 q 521 163 503 140 q 527 171 524 167 q 533 179 531 175 q 537 184 535 182 q 540 189 539 186 q 544 194 542 192 q 547 200 546 197 q 556 215 551 207 q 565 231 561 222 q 574 246 569 238 q 583 263 579 254 q 591 279 588 271 q 599 296 594 288 q 606 313 603 304 q 614 331 610 322 q 619 344 617 338 q 626 360 622 351 q 632 374 629 367 q 638 388 635 381 q 643 401 640 394 q 649 415 646 408 q 654 429 651 422 q 660 443 657 436 l 750 694 l 593 700 q 560 699 576 700 q 529 697 544 697 q 513 697 521 697 q 497 696 506 696 q 453 690 475 694 q 408 678 431 685 q 366 659 385 669 q 333 636 347 649 q 313 607 319 622 q 306 574 306 592 q 306 567 306 571 q 306 561 306 564 q 306 558 306 560 q 307 556 307 557 q 308 551 307 553 q 308 549 308 550 q 316 524 311 536 q 326 499 321 511 q 341 474 333 486 q 358 451 349 463 q 358 449 358 450 q 360 447 358 447 q 360 444 360 446 q 363 442 361 443 q 366 437 364 439 q 371 432 368 435 l 229 368 q 208 395 218 381 q 192 426 199 410 q 180 458 183 442 q 176 490 176 474 q 176 493 176 492 q 176 496 176 494 q 176 499 176 497 q 176 501 176 500 q 192 551 179 526 q 226 600 204 576 q 272 645 249 624 q 321 685 296 667 q 324 688 322 686 q 329 690 326 689 q 333 693 331 692 q 338 696 335 694 q 350 704 344 700 q 361 711 356 708 q 373 719 367 715 q 385 725 379 722 q 392 730 389 728 q 400 733 396 732 q 415 742 407 738 q 431 750 422 746 q 481 769 456 761 q 535 781 507 776 q 597 787 563 785 q 671 789 631 789 l 671 790 l 671 790 z "},"O":{"ha":1250,"x_min":217,"x_max":1358,"o":"m 1010 818 q 1170 797 1104 817 q 1276 740 1236 778 q 1338 653 1317 701 q 1358 549 1358 606 q 1358 542 1358 546 q 1357 536 1357 539 q 1356 530 1357 533 q 1356 524 1356 526 q 1356 512 1356 518 q 1356 499 1356 506 q 1338 406 1351 451 q 1301 317 1324 361 q 1244 233 1279 272 q 1160 158 1208 193 q 1035 87 1103 119 q 892 31 968 54 q 735 -5 815 7 q 572 -17 656 -17 q 409 1 478 -17 q 300 58 340 19 q 237 144 257 96 q 217 253 217 193 q 217 266 217 260 q 217 278 217 272 q 217 284 217 281 q 218 290 217 288 q 218 297 218 293 q 218 303 218 300 q 238 394 224 349 q 275 485 251 440 q 335 569 299 529 q 421 643 371 608 q 510 697 461 672 q 617 743 558 722 q 733 779 674 764 q 856 804 793 794 q 894 810 875 807 q 933 814 913 813 q 953 815 943 814 q 972 815 963 815 q 990 817 981 817 q 1010 817 1000 817 l 1010 818 l 1010 818 m 889 763 q 695 734 779 761 q 551 653 611 707 q 453 540 492 599 q 397 417 415 482 q 392 388 394 403 q 388 360 389 374 q 384 332 385 346 q 383 306 383 318 q 383 303 383 304 q 383 301 383 303 q 383 299 383 300 q 383 297 383 299 q 401 203 383 249 q 454 118 419 158 q 549 56 489 76 q 696 36 610 36 q 817 48 760 36 q 925 83 875 60 q 1014 137 975 107 q 1083 203 1053 167 q 1112 244 1099 222 q 1138 288 1125 265 q 1157 334 1149 311 q 1171 381 1165 357 q 1177 411 1174 396 q 1183 442 1181 426 q 1184 452 1183 447 q 1185 461 1185 457 q 1187 481 1186 471 q 1188 500 1188 490 q 1188 501 1188 500 q 1188 503 1188 501 q 1188 506 1188 504 q 1188 508 1188 507 q 1169 599 1186 556 q 1118 682 1151 643 q 1028 742 1086 722 q 889 761 971 761 l 889 763 l 889 763 z "},"P":{"ha":1125,"x_min":76,"x_max":1343,"o":"m 760 789 l 901 836 l 892 801 l 979 801 q 1006 799 992 800 q 1035 799 1019 799 q 1044 799 1040 799 q 1054 799 1049 799 q 1058 799 1056 799 q 1064 799 1061 799 q 1078 797 1071 797 q 1093 797 1085 797 q 1183 785 1140 793 q 1264 761 1225 776 q 1324 722 1304 747 q 1343 658 1343 696 q 1326 580 1343 617 q 1275 510 1310 543 q 1197 451 1240 476 q 1101 406 1154 425 q 1013 378 1058 390 q 918 354 967 365 q 822 339 871 344 q 722 332 772 333 l 631 58 l 975 71 l 975 60 q 950 50 963 54 q 925 43 938 46 q 913 40 919 42 q 901 36 907 38 q 889 33 894 35 q 876 31 883 32 q 854 25 865 28 q 832 19 843 22 q 810 16 821 18 q 788 13 799 14 q 739 6 764 8 q 689 3 714 4 l 342 0 l 76 0 l 163 58 l 467 58 l 604 426 l 713 746 q 559 725 629 742 q 429 681 489 708 q 341 607 369 651 q 313 501 313 563 q 314 474 313 488 q 321 447 315 461 q 331 420 325 433 q 342 394 336 407 l 188 335 q 185 340 186 338 q 182 343 183 342 q 179 348 181 346 q 176 351 178 350 q 174 356 175 354 q 172 361 172 358 q 171 362 171 361 q 171 364 171 363 q 169 367 169 365 q 168 369 169 368 q 161 387 164 378 q 156 406 158 396 q 152 426 153 415 q 151 446 151 436 q 192 577 151 519 q 317 676 233 635 q 489 744 399 718 q 679 782 579 771 q 688 782 683 782 q 699 783 693 782 q 709 784 704 783 q 718 785 714 785 q 732 785 725 785 q 746 786 739 786 q 753 787 749 786 q 760 788 757 788 l 760 789 l 760 789 m 950 764 l 876 764 l 742 389 q 758 386 749 388 q 776 383 767 385 q 795 382 786 382 q 814 382 804 382 q 961 401 897 382 q 1072 457 1025 419 q 1141 540 1118 494 q 1164 638 1164 585 q 1149 697 1164 672 q 1104 735 1133 721 q 1035 756 1074 749 q 950 763 997 763 l 950 764 l 950 764 z "},"Q":{"ha":1250,"x_min":217,"x_max":1772,"o":"m 1671 -37 l 1772 -106 q 1683 -162 1732 -135 q 1576 -212 1635 -189 q 1456 -249 1517 -236 q 1333 -261 1396 -261 q 1228 -253 1278 -261 q 1135 -228 1179 -244 q 1048 -192 1092 -211 q 964 -151 1004 -172 l 708 -11 l 583 -19 q 413 0 483 -18 q 300 57 342 18 q 237 146 257 96 q 217 257 217 196 q 217 274 217 265 q 217 290 217 282 q 218 307 217 299 q 221 324 219 315 q 242 410 228 368 q 281 494 256 453 q 340 574 306 536 q 421 643 375 611 q 512 698 461 672 q 622 744 563 724 q 743 781 682 765 q 867 804 804 796 q 887 807 876 806 q 907 810 897 808 q 927 812 917 811 q 947 814 938 813 q 968 815 958 814 q 989 815 978 815 q 1009 817 999 817 q 1029 817 1019 817 q 1101 812 1067 817 q 1168 797 1136 807 q 1228 772 1200 788 q 1279 738 1256 757 q 1320 692 1304 715 q 1343 644 1336 669 q 1354 594 1350 619 q 1358 542 1358 568 q 1328 374 1358 453 q 1239 229 1299 296 q 1088 110 1179 161 q 871 22 996 58 q 906 3 886 13 q 947 -17 925 -6 q 994 -40 969 -28 q 1043 -65 1018 -53 q 1063 -74 1053 -69 q 1082 -83 1072 -78 q 1089 -86 1086 -85 q 1096 -89 1092 -87 q 1109 -94 1103 -92 q 1122 -100 1115 -97 q 1142 -108 1132 -104 q 1161 -118 1151 -112 q 1183 -126 1172 -122 q 1204 -135 1193 -131 q 1238 -147 1221 -142 q 1272 -158 1256 -153 q 1306 -169 1289 -164 q 1339 -178 1322 -174 q 1404 -191 1374 -186 q 1463 -196 1435 -196 q 1551 -183 1513 -196 q 1614 -146 1589 -171 q 1653 -94 1639 -121 q 1671 -36 1668 -67 l 1671 -37 l 1671 -37 m 775 74 l 822 49 q 913 77 871 60 q 989 118 954 94 q 1053 169 1024 142 q 1104 228 1082 197 q 1123 260 1114 243 q 1142 296 1132 278 q 1156 335 1149 315 q 1168 374 1163 354 q 1174 405 1171 389 q 1181 436 1178 421 q 1185 465 1183 451 q 1188 493 1188 479 q 1188 494 1188 493 q 1188 496 1188 494 q 1188 499 1188 497 q 1188 501 1188 500 q 1169 594 1186 550 q 1118 679 1151 639 q 1027 740 1086 719 q 883 760 968 760 q 765 749 821 760 q 660 714 710 738 q 571 663 610 692 q 500 601 532 635 q 458 551 476 576 q 426 497 439 525 q 415 469 421 483 q 406 443 410 456 q 397 415 400 429 q 392 388 394 401 q 387 367 389 378 q 385 346 385 357 q 383 326 383 336 q 383 307 383 317 q 387 252 383 279 q 400 200 390 225 q 424 150 407 174 q 468 103 442 126 q 506 77 486 89 q 551 57 526 65 q 601 44 575 49 q 654 40 626 40 q 670 41 663 40 q 685 42 678 42 q 692 44 689 43 q 700 44 696 44 q 709 47 704 46 q 719 50 714 49 q 730 53 725 51 q 739 57 735 56 q 744 59 742 58 q 750 61 747 60 q 753 63 751 63 q 756 64 754 64 q 760 66 758 65 q 765 68 763 67 q 770 70 768 69 q 775 72 772 71 l 775 74 l 775 74 z "},"R":{"ha":1250,"x_min":79,"x_max":1721,"o":"m 572 351 l 718 758 q 581 740 643 754 q 468 699 518 725 q 394 633 418 672 q 371 539 371 593 q 372 512 371 525 q 379 485 374 499 q 388 458 382 471 q 400 432 394 444 l 226 375 q 215 401 221 388 q 204 429 208 415 q 197 458 199 443 q 196 486 196 472 q 235 614 196 560 q 356 703 275 668 q 524 760 436 738 q 708 793 611 783 q 708 793 708 793 q 710 793 708 793 q 710 793 710 793 q 710 793 710 793 q 710 793 710 793 q 713 793 711 793 q 713 793 713 793 q 714 793 714 793 l 900 854 l 883 810 l 1000 813 q 1019 810 1010 811 q 1038 810 1028 810 q 1047 810 1042 810 q 1057 810 1051 810 q 1066 808 1061 808 q 1075 808 1071 808 q 1156 797 1117 806 q 1231 774 1196 789 q 1285 735 1267 760 q 1304 676 1304 711 q 1280 598 1304 633 q 1208 535 1256 563 q 1109 488 1161 508 q 1000 453 1057 468 q 990 451 996 451 q 981 449 985 450 q 969 447 975 447 q 960 444 964 446 q 941 441 950 443 q 922 436 932 439 l 1100 89 q 1113 65 1107 78 q 1129 39 1119 53 q 1149 13 1139 25 q 1168 -14 1158 0 q 1216 -67 1190 -42 q 1272 -117 1242 -93 q 1340 -152 1304 -140 q 1417 -164 1376 -164 q 1477 -156 1449 -164 q 1529 -133 1506 -149 q 1570 -101 1551 -118 q 1604 -67 1589 -85 q 1605 -64 1604 -65 q 1607 -61 1606 -62 q 1609 -58 1608 -60 q 1610 -56 1610 -57 q 1611 -55 1611 -56 q 1613 -53 1611 -54 q 1615 -50 1614 -51 q 1618 -47 1617 -49 l 1721 -132 q 1674 -155 1699 -144 q 1626 -172 1650 -165 q 1603 -180 1615 -176 q 1579 -186 1592 -183 q 1501 -199 1542 -194 q 1414 -203 1460 -203 q 1263 -188 1329 -203 q 1146 -146 1196 -174 q 1053 -81 1096 -118 q 976 1 1011 -43 q 935 62 954 31 q 901 125 917 93 q 872 189 886 157 q 846 253 858 221 q 835 276 840 264 q 825 300 829 288 q 815 323 819 311 q 808 347 811 335 q 806 350 807 349 q 806 353 806 351 q 804 354 804 353 q 804 357 804 356 q 802 360 803 358 q 801 363 801 361 q 800 364 800 363 q 800 367 800 365 q 799 367 800 367 q 799 369 799 368 q 798 370 799 369 q 797 372 797 371 q 796 377 796 375 q 796 381 796 379 q 791 388 794 385 q 785 396 788 392 q 782 399 783 397 q 779 403 781 401 q 767 410 774 408 q 751 413 761 413 q 751 413 751 413 q 751 413 751 413 q 750 413 750 413 q 750 413 750 413 q 750 413 750 413 q 750 413 750 413 q 749 413 750 413 q 749 413 749 413 q 748 413 749 413 q 747 413 747 413 q 747 413 747 413 q 747 413 747 413 q 744 406 746 410 q 742 399 743 403 q 740 396 740 397 q 739 393 740 394 q 735 383 736 388 q 733 372 733 378 q 731 368 732 371 q 728 364 729 365 q 726 359 728 361 q 725 354 725 357 q 723 349 724 351 q 722 344 722 346 q 720 340 721 342 q 718 335 719 338 q 705 303 713 319 q 689 272 697 288 q 669 242 679 257 q 646 214 658 228 q 608 182 628 197 q 568 151 589 167 q 548 137 558 144 q 528 122 538 129 q 508 108 518 115 q 488 93 497 100 q 481 90 485 92 q 475 86 478 88 q 469 82 472 83 q 463 78 465 81 q 457 74 460 76 q 451 69 454 72 q 444 66 447 68 q 439 61 442 64 l 710 58 l 556 7 l 447 3 l 171 0 l 79 0 l 158 58 q 162 57 160 57 q 167 57 164 57 q 171 57 168 57 q 176 57 174 57 q 178 57 178 57 q 179 57 178 57 q 182 57 181 57 q 185 57 183 57 q 186 57 186 57 q 188 57 186 57 q 190 57 189 57 q 193 57 192 57 q 258 59 226 57 q 321 64 290 61 q 381 77 353 67 q 435 106 408 88 q 465 133 450 117 q 493 168 481 149 q 515 208 506 188 q 535 249 525 228 q 547 274 542 261 q 556 301 551 288 q 561 318 558 310 q 567 335 564 326 q 569 342 568 339 q 572 350 571 346 l 572 351 l 572 351 m 900 771 l 872 771 l 756 446 q 894 463 829 449 q 1014 503 958 476 q 1097 569 1069 529 q 1125 664 1125 610 q 1125 667 1125 665 q 1125 669 1125 668 q 1125 672 1125 671 q 1125 674 1125 672 q 1125 674 1125 674 q 1125 676 1125 675 q 1117 699 1122 688 q 1104 721 1111 711 q 1085 740 1096 732 q 1060 754 1075 749 q 1040 760 1050 757 q 1018 764 1029 763 q 997 766 1008 765 q 972 768 985 767 q 965 768 968 768 q 957 769 961 768 q 949 769 953 769 q 942 769 946 769 q 924 769 932 769 q 910 769 917 769 q 909 769 910 769 q 907 769 908 769 q 905 769 906 769 q 904 769 904 769 q 901 769 903 769 q 900 769 900 769 l 900 771 l 900 771 z "},"S":{"ha":958,"x_min":0,"x_max":1076,"o":"m 1076 706 l 939 640 q 923 683 933 664 q 900 719 913 703 q 860 744 888 736 q 792 753 832 753 q 699 740 740 753 q 626 701 658 726 q 580 647 596 675 q 564 586 564 618 q 578 533 564 557 q 622 490 593 510 q 683 454 650 472 q 750 419 715 436 q 816 383 785 401 q 876 346 847 365 q 919 303 904 328 q 935 251 935 279 q 919 181 935 215 q 872 114 904 146 q 806 55 842 82 q 731 7 771 28 q 639 -33 688 -15 q 538 -64 590 -50 q 430 -85 485 -78 q 318 -92 375 -92 q 314 -92 317 -92 q 310 -92 311 -92 q 305 -92 307 -92 q 300 -92 303 -92 q 295 -92 297 -92 q 290 -92 293 -92 q 287 -90 289 -90 q 283 -90 285 -90 q 200 -83 240 -89 q 122 -65 160 -76 q 54 -37 85 -54 q 0 1 24 -21 l 89 147 l 122 163 q 147 83 122 118 q 222 22 172 47 q 328 -13 272 0 q 447 -26 385 -26 q 567 -12 510 -26 q 676 29 625 1 q 753 95 726 58 q 779 175 779 132 q 765 228 779 204 q 726 269 751 251 q 674 306 701 289 q 614 340 646 324 q 613 340 614 340 q 611 342 613 340 q 609 342 610 342 q 608 343 608 343 q 606 344 607 343 q 604 346 604 344 q 541 381 571 363 q 483 421 511 400 q 442 467 456 440 q 429 526 429 493 q 429 538 429 532 q 431 549 429 543 q 431 554 431 551 q 432 561 432 557 q 435 567 433 564 q 438 572 436 569 q 483 646 451 610 q 564 715 514 682 q 667 772 614 749 q 779 807 721 794 q 802 812 790 810 q 826 815 814 814 q 839 816 833 815 q 851 817 844 817 q 863 818 857 818 q 875 818 869 818 q 954 811 919 818 q 1014 792 989 804 q 1055 756 1039 778 q 1076 704 1071 735 l 1076 706 l 1076 706 z "},"T":{"ha":1042,"x_min":121,"x_max":1496,"o":"m 347 0 l 421 54 q 477 57 450 54 q 526 64 504 60 q 572 79 550 68 q 613 108 594 90 q 631 131 622 118 q 650 157 640 143 q 655 167 653 163 q 660 176 657 172 q 670 198 665 188 q 679 219 675 208 q 684 233 682 226 q 689 244 686 239 q 693 258 690 251 q 697 269 696 264 q 707 293 703 282 q 714 314 711 304 l 868 753 l 667 760 q 657 759 663 760 q 647 758 651 758 q 636 758 642 758 q 626 758 631 758 q 617 758 622 758 q 607 758 613 758 q 597 757 601 757 q 588 757 592 757 q 539 753 563 756 q 492 746 515 750 q 444 735 467 742 q 401 721 422 729 q 348 690 371 707 q 310 654 325 674 q 290 613 296 635 q 283 567 283 590 q 284 547 283 557 q 288 528 285 536 q 292 510 289 518 q 300 493 294 501 q 306 479 303 486 q 313 465 310 472 q 319 451 315 458 q 329 436 324 443 l 176 369 q 153 401 164 385 q 135 436 143 418 q 124 473 128 454 q 121 510 121 492 q 138 583 121 549 q 192 649 156 618 q 270 704 228 679 q 360 749 313 729 q 425 771 392 761 q 496 786 458 781 q 569 797 532 793 q 646 804 607 801 q 666 805 656 804 q 686 806 676 806 q 706 807 696 807 q 726 807 717 807 q 747 807 738 807 q 768 808 757 807 q 788 808 778 808 q 808 808 799 808 l 1021 806 l 1296 800 q 1340 801 1321 799 q 1372 808 1360 803 q 1397 822 1385 814 q 1418 842 1408 831 q 1422 845 1419 843 q 1426 849 1424 847 q 1430 853 1428 851 q 1433 858 1432 856 q 1441 868 1436 863 q 1451 879 1446 874 l 1471 903 l 1496 882 l 1458 788 q 1435 757 1447 769 q 1410 740 1422 744 q 1376 733 1397 735 q 1326 731 1354 731 l 1214 736 l 1018 747 l 868 328 q 843 266 856 293 q 817 218 831 239 q 782 178 801 197 q 738 140 763 158 q 710 122 725 131 q 681 103 696 113 q 647 83 665 93 q 610 61 629 72 l 713 63 l 1051 76 l 1043 65 l 993 49 q 956 36 974 42 q 926 26 939 31 q 917 24 922 25 q 908 21 913 22 q 890 17 899 19 q 872 14 881 15 q 841 10 857 13 q 810 7 825 8 q 772 4 793 6 q 725 3 750 3 l 400 0 l 347 0 l 347 0 l 347 0 z "},"U":{"ha":1542,"x_min":242,"x_max":1621,"o":"m 1621 803 l 1481 444 q 1472 418 1476 432 q 1460 388 1467 404 q 1454 371 1457 379 q 1449 354 1451 363 q 1443 337 1446 346 q 1438 319 1440 328 q 1433 308 1435 314 q 1429 294 1431 301 q 1424 283 1426 289 q 1421 271 1422 276 q 1405 219 1411 244 q 1392 169 1399 193 q 1383 127 1386 146 q 1381 93 1381 108 q 1386 70 1381 79 q 1401 56 1392 61 q 1426 48 1411 50 q 1458 46 1440 46 l 1613 54 l 1571 24 l 1306 -10 q 1302 -8 1304 -8 q 1299 -10 1300 -8 q 1295 -10 1297 -10 q 1292 -10 1293 -10 q 1288 -10 1290 -10 q 1285 -11 1286 -10 q 1280 -11 1282 -11 q 1276 -11 1278 -11 q 1274 -11 1275 -11 q 1271 -11 1272 -11 q 1269 -11 1269 -11 q 1268 -12 1268 -11 q 1263 -12 1265 -12 q 1260 -12 1261 -12 q 1253 -12 1257 -12 q 1247 -12 1250 -12 q 1247 -12 1247 -12 q 1244 -12 1246 -12 q 1242 -12 1243 -12 q 1242 -12 1242 -12 q 1239 -12 1240 -12 q 1236 -12 1238 -12 q 1235 -11 1236 -11 q 1235 -11 1235 -11 q 1222 -8 1228 -10 q 1210 -4 1215 -7 q 1201 1 1204 -1 q 1197 8 1197 4 q 1198 19 1197 14 q 1200 31 1199 25 q 1201 44 1200 38 q 1204 56 1203 50 q 1204 58 1204 57 q 1206 60 1204 58 q 1206 60 1206 60 q 1206 63 1206 61 q 1206 65 1206 64 q 1207 67 1207 65 q 1208 69 1207 68 q 1208 71 1208 69 l 1213 88 q 1199 84 1206 86 q 1185 79 1192 82 q 1169 76 1176 78 q 1156 71 1163 74 q 1136 65 1146 68 q 1117 60 1126 63 q 1107 57 1111 58 q 1097 54 1103 56 q 1076 49 1086 51 q 1056 43 1065 46 q 1034 38 1044 40 q 1013 32 1024 35 q 969 22 990 26 q 929 13 949 17 q 874 3 901 7 q 821 -4 847 -1 q 767 -9 793 -7 q 717 -11 742 -11 q 615 1 658 -11 q 542 38 571 13 q 496 93 511 63 q 481 160 481 124 q 485 209 481 183 q 500 261 490 235 q 523 315 510 288 q 551 368 536 342 q 585 420 567 394 q 622 472 603 446 q 636 490 629 481 q 650 507 643 499 q 678 540 664 524 q 706 574 692 557 q 723 594 714 585 q 742 615 732 604 q 751 625 746 619 q 760 635 756 631 q 773 649 767 642 q 786 664 779 657 q 800 678 793 671 q 813 692 807 685 q 788 697 800 694 q 764 701 775 699 q 739 706 751 703 q 714 710 726 708 q 689 713 701 711 q 664 715 676 714 q 638 716 650 715 q 613 717 625 717 q 569 715 590 717 q 529 711 549 714 q 492 703 511 708 q 454 689 474 697 q 419 668 436 679 q 389 644 401 657 q 370 616 376 631 q 364 586 364 601 q 369 551 364 568 q 385 519 375 535 q 408 488 396 503 q 433 457 421 472 q 433 455 433 456 q 435 454 433 454 q 435 452 435 453 q 438 450 436 451 q 438 448 438 449 q 440 447 439 447 q 442 445 442 446 q 443 444 443 444 l 304 371 q 281 403 292 386 q 260 438 269 419 q 246 473 250 454 q 242 511 242 492 q 253 561 242 536 q 288 611 264 586 q 335 658 310 636 q 388 699 360 681 q 391 701 389 700 q 394 704 393 703 q 398 706 396 704 q 401 708 400 707 q 405 711 403 710 q 410 714 407 713 q 413 715 411 714 q 417 718 415 717 q 429 726 424 722 q 440 732 435 729 q 452 738 446 735 q 464 744 458 742 q 472 748 468 746 q 479 751 475 750 q 494 758 486 754 q 510 764 501 761 q 554 778 532 772 q 601 788 576 785 q 655 792 626 790 q 717 794 683 794 q 733 794 725 794 q 747 794 740 794 q 778 792 763 793 q 808 790 794 792 q 831 788 819 789 q 853 786 842 786 q 876 783 865 785 q 900 781 888 782 l 938 793 l 989 807 l 1000 793 q 991 785 996 789 q 982 776 986 781 q 973 768 978 772 q 964 760 968 764 q 953 749 958 754 q 942 738 947 743 q 936 732 939 735 q 931 726 933 729 q 876 667 903 699 q 825 603 850 636 q 777 534 800 568 q 735 465 754 500 q 701 399 717 432 q 675 335 686 367 q 657 274 663 303 q 651 217 651 244 q 663 156 651 185 q 697 101 675 126 q 758 63 719 75 q 851 50 797 50 q 947 56 900 50 q 1039 75 994 63 q 1126 101 1083 88 q 1213 131 1169 115 l 1431 743 l 1301 747 l 1354 778 l 1621 803 l 1621 803 l 1621 803 z "},"V":{"ha":1333,"x_min":217,"x_max":1685,"o":"m 779 801 l 979 793 q 972 788 975 790 q 964 783 968 786 q 949 776 957 779 q 933 769 942 772 q 908 760 921 764 q 883 753 896 756 l 754 115 l 758 113 l 872 192 q 928 228 897 208 q 993 269 958 247 q 1063 317 1028 293 q 1135 368 1097 342 q 1166 391 1150 379 q 1199 415 1182 403 q 1231 439 1215 426 q 1263 464 1247 451 q 1322 515 1294 489 q 1375 568 1350 542 q 1402 597 1389 583 q 1426 626 1415 611 q 1448 655 1438 640 q 1468 683 1458 669 q 1495 738 1486 711 q 1504 792 1504 765 q 1500 822 1504 807 q 1489 850 1496 836 q 1469 876 1482 864 q 1438 900 1457 889 q 1464 916 1450 908 q 1493 931 1478 924 q 1524 944 1508 938 q 1558 956 1540 950 q 1572 955 1565 956 q 1586 954 1579 954 q 1600 951 1593 953 q 1614 949 1607 950 q 1639 942 1626 946 q 1664 932 1651 938 q 1666 928 1665 931 q 1668 925 1667 926 q 1669 921 1668 922 q 1671 918 1669 919 q 1672 915 1671 917 q 1674 913 1672 914 q 1676 910 1675 911 q 1676 907 1676 908 q 1678 901 1678 904 q 1681 896 1679 899 q 1681 890 1681 893 q 1683 885 1682 888 q 1683 879 1683 882 q 1685 874 1683 876 q 1685 868 1685 871 q 1685 863 1685 865 q 1683 842 1685 853 q 1679 821 1682 832 q 1676 810 1678 815 q 1672 801 1675 806 q 1669 791 1671 796 q 1664 781 1667 786 q 1632 724 1651 751 q 1588 668 1613 696 q 1535 616 1563 642 q 1481 567 1508 590 q 1458 547 1468 557 q 1438 529 1447 538 q 1416 513 1426 521 q 1396 497 1406 504 l 938 169 l 717 8 l 568 -11 l 635 286 l 722 747 l 639 751 q 535 738 582 750 q 450 701 488 725 q 394 647 413 678 q 375 576 375 615 q 376 557 375 567 q 379 539 376 547 q 383 520 381 529 q 389 503 386 511 q 390 499 390 501 q 392 494 390 497 q 394 486 393 490 q 397 478 396 482 q 400 472 399 475 q 404 467 401 469 q 407 460 406 463 q 410 454 408 457 l 254 397 q 248 408 251 403 q 242 419 244 414 q 239 425 240 422 q 236 431 238 428 q 233 436 235 433 q 231 442 232 439 q 228 450 229 446 q 225 458 226 454 q 222 465 224 461 q 221 474 221 469 q 217 490 218 482 q 217 508 217 499 q 229 571 217 540 q 268 629 242 601 q 326 681 293 657 q 397 725 358 706 q 410 731 404 728 q 422 736 415 733 q 434 742 428 739 q 446 747 440 744 q 458 752 453 750 q 469 757 464 754 q 481 761 475 758 q 493 765 488 764 q 558 783 525 776 q 626 793 592 790 q 699 798 661 796 q 779 800 736 800 l 779 801 l 779 801 z "},"W":{"ha":1833,"x_min":217,"x_max":2156,"o":"m 1489 797 l 1460 424 l 1442 124 l 1446 121 q 1493 157 1468 138 q 1546 199 1518 176 q 1600 244 1572 221 q 1656 290 1628 267 q 1724 352 1690 321 q 1793 417 1758 383 q 1856 482 1826 449 q 1910 549 1885 515 q 1944 599 1929 574 q 1968 651 1958 625 q 1985 701 1979 676 q 1992 751 1992 726 q 1992 754 1992 753 q 1992 757 1992 756 q 1992 760 1992 758 q 1992 763 1992 761 q 1989 779 1990 771 q 1985 796 1988 788 q 1978 811 1982 803 q 1971 828 1975 819 q 1947 857 1961 843 q 1913 883 1932 871 q 1942 900 1926 892 q 1972 915 1957 908 q 2004 928 1988 922 q 2039 940 2021 935 q 2050 938 2044 939 q 2061 936 2056 936 q 2072 933 2067 935 q 2081 931 2076 932 q 2090 928 2085 929 q 2101 925 2096 926 q 2111 921 2106 922 q 2121 918 2117 919 q 2140 895 2132 907 q 2150 871 2147 883 q 2154 846 2153 858 q 2156 821 2156 833 q 2139 739 2156 782 q 2089 650 2122 696 q 2014 558 2054 604 q 1925 467 1974 513 q 1881 426 1903 446 q 1838 386 1860 406 q 1791 347 1814 367 q 1746 308 1768 328 q 1644 224 1694 265 q 1547 143 1594 183 q 1463 69 1500 104 q 1397 3 1425 35 l 1276 -22 l 1318 625 l 1314 628 l 781 92 l 692 4 l 560 -24 l 742 733 q 733 733 738 733 q 726 732 729 732 q 718 732 722 732 q 710 732 714 732 q 702 732 706 732 q 694 732 699 732 q 687 732 690 732 q 679 732 683 732 q 667 732 674 732 q 654 732 661 732 q 648 732 651 732 q 642 732 644 732 q 635 731 639 731 q 629 731 632 731 q 531 723 578 729 q 442 706 483 717 q 378 666 399 693 q 358 596 358 639 q 362 560 358 578 q 375 526 365 543 q 395 493 385 510 q 418 461 406 476 l 267 397 q 247 428 256 413 q 231 460 238 443 q 220 493 224 476 q 217 528 217 510 q 228 585 217 558 q 263 638 239 613 q 314 683 285 663 q 381 722 343 704 q 394 728 388 725 q 408 733 401 731 q 415 736 411 735 q 422 739 419 738 q 436 744 429 742 q 450 749 443 746 q 457 751 453 750 q 464 753 461 751 q 535 770 499 764 q 608 778 571 776 q 685 781 646 781 q 768 783 725 782 l 1014 785 q 989 770 1001 776 q 964 758 976 764 q 950 753 957 756 q 936 747 943 750 q 922 744 929 746 q 908 740 915 742 l 872 622 l 751 140 l 756 138 l 1379 767 l 1489 797 l 1489 797 l 1489 797 z "},"X":{"ha":1167,"x_min":0,"x_max":1397,"o":"m 100 103 l 168 100 q 225 100 200 99 q 271 104 250 101 q 284 107 278 106 q 297 110 290 108 q 324 119 311 114 q 350 131 338 124 q 356 134 353 132 q 364 138 360 136 q 370 142 367 140 q 376 147 374 144 q 391 158 383 151 q 408 169 399 164 l 696 414 l 625 607 q 622 608 624 607 q 621 611 621 610 q 621 614 621 613 q 621 617 621 615 q 620 617 621 617 q 619 619 619 618 q 619 620 619 619 q 618 621 618 621 q 618 622 618 621 q 618 624 618 622 q 617 624 617 624 q 617 625 617 625 q 601 662 611 644 q 579 694 592 679 q 543 718 567 710 q 483 726 519 726 q 474 726 479 726 q 465 725 469 726 q 456 724 461 725 q 447 724 451 724 q 428 722 438 722 q 410 719 419 721 q 403 717 407 718 q 397 717 400 717 q 394 717 396 717 q 392 717 393 717 q 390 717 390 717 q 389 717 390 717 q 376 714 382 715 q 363 711 369 713 q 351 709 357 710 q 338 708 344 708 l 383 750 l 483 769 q 497 771 490 769 q 513 774 504 772 q 520 774 517 774 q 528 776 524 775 q 535 777 532 776 q 543 779 539 778 q 555 781 549 781 q 567 782 561 782 q 590 787 578 785 q 614 790 601 789 q 652 796 633 793 q 689 800 671 799 q 690 800 689 800 q 690 800 690 800 q 691 800 690 800 q 692 800 692 800 q 693 800 692 800 q 696 800 694 800 q 696 800 696 800 q 696 800 696 800 q 697 800 696 800 q 700 800 699 800 q 717 798 710 800 q 726 792 724 796 q 729 788 728 790 q 732 783 731 785 q 735 778 733 781 q 738 772 736 775 q 738 769 738 771 q 738 767 738 768 q 738 766 738 767 q 739 765 738 765 q 739 763 739 764 q 739 763 739 763 l 817 518 l 1026 692 q 1027 692 1026 692 q 1029 692 1028 692 q 1030 692 1029 692 q 1031 693 1031 693 q 1031 695 1031 694 q 1033 696 1032 696 q 1034 697 1033 696 q 1035 697 1035 697 q 1084 735 1058 717 q 1138 771 1110 754 q 1198 796 1164 788 q 1272 804 1232 804 q 1307 802 1290 804 q 1339 796 1324 800 q 1369 786 1354 792 q 1397 774 1383 781 l 1306 678 q 1293 682 1300 681 q 1281 686 1286 683 q 1267 690 1274 688 q 1254 693 1261 692 q 1240 696 1247 694 q 1226 699 1233 697 q 1211 699 1218 699 q 1197 700 1204 700 q 1149 694 1172 700 q 1104 676 1126 688 q 1063 653 1082 665 q 1026 626 1044 640 q 1015 616 1021 621 q 1001 606 1008 611 q 990 596 996 600 q 979 588 983 592 l 829 464 l 883 300 q 890 278 886 290 q 897 254 893 267 q 901 246 899 250 q 904 238 903 242 q 910 221 907 229 q 918 204 914 213 q 922 196 919 200 q 925 188 924 192 q 931 173 928 181 q 939 158 935 165 q 942 151 940 154 q 946 143 944 147 q 952 130 949 136 q 960 118 956 124 q 960 115 960 117 q 963 111 961 113 q 963 110 963 111 q 964 108 964 110 q 966 106 965 107 q 968 104 967 106 q 969 102 968 103 q 971 100 969 101 q 999 73 983 83 q 1035 58 1015 63 q 1077 51 1054 53 q 1126 49 1100 49 l 1268 58 l 1233 25 l 1071 4 q 1053 1 1063 3 q 1033 0 1044 0 q 1022 0 1028 0 q 1010 -1 1015 0 q 997 -3 1003 -3 q 985 -6 992 -4 q 982 -6 983 -6 q 979 -6 981 -6 q 978 -6 978 -6 q 976 -6 978 -6 q 976 -6 976 -6 q 974 -7 975 -6 q 972 -7 972 -7 q 971 -7 971 -7 q 955 -9 963 -8 q 940 -11 947 -10 q 924 -12 932 -11 q 910 -14 917 -12 q 885 -16 896 -15 q 868 -17 875 -17 q 851 -14 858 -17 q 839 -6 844 -11 q 831 6 835 0 q 825 19 828 11 q 820 28 822 24 q 818 36 818 32 q 817 39 818 38 q 817 42 817 40 q 815 47 815 44 q 814 51 814 50 l 801 88 l 714 357 l 506 176 q 490 162 499 169 q 472 146 482 154 q 463 138 468 142 q 454 131 458 133 q 444 122 449 126 q 435 114 439 118 q 429 109 432 111 q 424 104 426 107 q 418 101 421 103 q 413 96 415 99 q 401 88 407 92 q 392 81 396 83 q 373 66 382 72 q 354 53 364 60 q 335 42 344 47 q 318 33 326 38 q 281 17 300 24 q 239 7 261 11 q 217 3 228 6 q 197 0 207 1 q 176 -1 186 0 q 154 -4 165 -3 q 148 -4 151 -4 q 140 -4 144 -4 q 133 -4 136 -4 q 126 -4 129 -4 q 120 -4 124 -4 q 114 -6 117 -4 q 108 -6 111 -6 q 101 -6 104 -6 l 0 -1 l 100 103 l 100 103 l 100 103 z "},"Y":{"ha":1167,"x_min":64,"x_max":1589,"o":"m 135 -106 l 285 -110 q 410 -103 354 -108 q 508 -87 465 -99 q 590 -54 550 -78 q 667 6 629 -31 q 667 6 667 6 q 669 8 668 7 q 672 9 671 8 q 672 11 672 10 q 674 13 674 13 q 675 14 674 13 q 678 17 676 15 q 681 19 679 18 q 712 56 696 38 q 742 93 728 75 q 767 131 754 113 q 789 169 779 150 q 801 191 796 181 q 808 211 806 201 q 815 231 811 221 q 821 250 818 240 q 825 272 824 261 q 826 294 826 283 q 827 306 826 300 q 828 317 828 311 q 828 330 828 324 q 829 343 829 336 q 828 354 829 349 q 828 365 828 360 q 827 377 828 371 q 826 389 826 383 q 826 397 826 393 q 825 406 825 401 q 823 422 824 414 q 822 439 822 431 q 819 456 821 447 q 815 472 817 464 q 810 488 813 479 q 806 504 808 496 q 796 537 801 521 q 783 567 790 553 q 783 567 783 567 q 782 568 782 567 q 781 569 782 568 q 781 569 781 569 q 781 570 781 569 q 781 572 781 571 q 779 573 779 572 q 779 575 779 574 q 740 628 764 603 q 685 675 717 653 q 615 710 654 699 q 526 722 575 722 q 431 709 474 722 q 356 669 388 696 q 309 614 325 643 q 293 551 293 585 q 295 525 293 538 q 300 500 297 513 q 308 476 303 488 q 318 453 313 464 q 321 447 319 450 q 325 442 322 444 q 328 435 326 438 q 331 429 329 432 q 333 424 332 426 q 338 418 335 421 q 340 411 339 414 q 343 406 342 408 l 185 340 q 172 358 178 349 q 160 378 165 368 q 156 389 158 383 q 153 400 154 394 q 149 410 150 404 q 146 421 147 415 q 143 434 144 428 q 142 446 142 440 q 140 451 140 449 q 139 458 139 454 q 139 464 139 461 q 139 469 139 467 q 172 572 139 522 q 272 669 206 622 q 412 746 338 715 q 567 790 486 776 q 580 792 574 792 q 593 793 586 793 q 606 795 599 794 q 618 796 613 796 q 643 798 631 797 q 668 799 656 799 q 738 792 704 799 q 801 769 771 785 q 857 738 833 756 q 897 697 881 719 q 921 660 910 679 q 938 621 932 640 q 949 580 944 600 q 956 540 953 560 q 956 528 956 535 q 956 515 956 522 q 956 510 956 513 q 957 504 957 507 q 958 499 957 501 q 958 493 958 496 l 939 354 l 943 351 l 1158 639 q 1172 653 1165 646 q 1185 668 1178 660 q 1194 678 1189 674 q 1204 689 1199 683 q 1209 694 1207 692 q 1214 700 1211 697 q 1273 752 1242 728 q 1339 799 1304 776 q 1417 832 1375 821 q 1508 843 1460 843 q 1527 842 1518 843 q 1543 840 1536 842 q 1552 838 1547 839 q 1563 835 1557 836 q 1567 833 1565 833 q 1572 832 1569 833 q 1574 831 1574 832 q 1575 831 1574 831 q 1578 830 1576 831 q 1581 829 1579 829 q 1582 828 1582 829 q 1583 828 1582 828 q 1586 826 1585 826 q 1589 825 1588 826 l 1533 725 q 1528 725 1531 725 q 1524 726 1526 725 q 1519 727 1521 726 q 1514 729 1517 728 q 1511 730 1513 729 q 1508 731 1510 731 q 1503 733 1506 732 q 1497 733 1500 733 q 1478 738 1488 736 q 1460 742 1469 740 q 1441 744 1450 743 q 1421 744 1432 744 q 1366 738 1390 744 q 1322 719 1342 732 q 1285 694 1303 707 q 1254 665 1268 681 q 1251 663 1253 664 q 1250 661 1250 663 q 1247 659 1249 660 q 1246 658 1246 658 q 1240 653 1243 656 q 1235 647 1238 650 q 1228 642 1231 644 q 1222 636 1225 639 q 1215 628 1218 632 q 1208 619 1211 624 q 1205 616 1207 618 q 1201 611 1203 614 q 1194 603 1197 607 q 1188 596 1190 599 q 1181 588 1185 592 q 1175 579 1178 583 q 1169 571 1172 575 q 1163 564 1165 567 q 1156 556 1160 560 q 1150 547 1153 551 q 1129 522 1139 535 q 1110 497 1119 510 q 1099 481 1104 489 q 1088 465 1093 474 q 1082 459 1085 463 q 1076 451 1079 456 l 696 -40 q 669 -64 682 -51 q 643 -86 656 -76 q 618 -107 631 -97 q 593 -126 606 -117 q 508 -172 553 -154 q 417 -196 464 -189 q 308 -206 369 -203 q 168 -210 246 -210 l 64 -211 l 135 -106 l 135 -106 l 135 -106 z "},"Z":{"ha":1292,"x_min":129,"x_max":1406,"o":"m 647 6 l 346 24 q 341 23 343 24 q 336 22 339 22 q 331 22 333 22 q 326 22 329 22 q 324 22 325 22 q 321 22 322 22 q 319 22 319 22 q 318 22 318 22 q 313 21 315 21 q 310 21 311 21 q 260 16 285 19 q 213 7 236 13 q 169 -6 189 1 q 129 -24 149 -12 l 129 25 l 354 172 l 1143 701 l 904 688 l 685 696 l 631 699 q 606 696 617 697 q 585 692 594 694 q 568 686 575 690 q 554 676 561 682 q 551 674 553 675 q 549 674 550 674 q 547 672 549 672 q 546 669 546 671 q 541 666 543 668 q 538 661 539 664 l 413 519 l 383 553 l 489 718 q 494 724 492 721 q 500 732 497 726 q 506 742 503 736 q 513 753 510 747 q 514 756 513 754 q 517 758 515 757 q 518 761 517 760 q 521 764 519 763 q 524 768 522 767 q 528 772 525 769 q 531 776 529 774 q 533 779 532 778 q 536 782 535 781 q 539 785 538 783 q 540 788 539 786 q 543 790 542 789 q 556 797 550 794 q 568 801 563 800 q 583 803 575 803 q 600 804 590 804 l 638 804 l 1114 774 q 1163 774 1139 772 q 1206 776 1186 775 q 1244 784 1225 779 q 1281 794 1263 789 q 1286 797 1283 796 q 1292 799 1289 797 q 1303 804 1297 801 q 1314 810 1308 807 q 1331 819 1322 814 q 1350 829 1340 824 l 1354 790 l 356 108 l 360 106 q 377 108 368 107 q 396 108 386 108 q 405 109 400 108 q 414 110 410 110 q 428 110 421 110 q 443 111 435 111 q 457 113 450 113 q 471 113 464 113 q 508 113 490 113 q 544 111 526 113 q 581 110 563 111 q 618 108 600 110 q 656 106 638 107 q 693 104 674 106 q 730 102 711 103 q 767 100 749 101 q 839 97 803 99 q 913 92 875 94 q 950 90 932 90 q 986 89 968 89 q 1023 88 1004 88 q 1060 88 1042 88 q 1142 92 1104 88 q 1213 107 1179 97 q 1260 140 1244 118 q 1276 196 1276 161 q 1271 228 1276 213 q 1256 258 1265 244 q 1234 287 1246 274 q 1210 314 1222 300 l 1363 378 q 1380 347 1372 363 q 1393 315 1388 331 q 1403 283 1400 299 q 1406 251 1406 267 q 1403 226 1406 238 q 1393 206 1400 215 q 1381 187 1388 196 q 1364 169 1374 178 q 1360 166 1363 168 q 1356 161 1357 164 q 1351 158 1353 160 q 1346 154 1349 156 q 1341 151 1343 153 q 1336 147 1339 149 q 1331 143 1333 144 q 1326 139 1329 142 l 1231 63 q 1226 58 1228 60 q 1221 53 1224 56 q 1210 45 1215 49 q 1201 38 1206 42 q 1190 28 1196 32 q 1176 19 1183 24 q 1145 4 1161 10 q 1113 -6 1129 -1 q 1072 -12 1094 -10 q 1018 -14 1049 -14 l 647 6 l 647 6 l 647 6 z "},"[":{"ha":500,"x_min":97,"x_max":842,"o":"m 97 -228 l 535 926 l 842 926 l 768 892 l 638 883 l 513 568 l 343 111 l 242 -186 l 443 -193 l 371 -228 l 313 -228 l 97 -228 l 97 -228 l 97 -228 z "},"\\":{"ha":1000,"x_min":385,"x_max":1008,"o":"m 892 0 l 385 803 l 501 803 l 1008 0 l 892 0 l 892 0 l 892 0 z "},"]":{"ha":667,"x_min":47,"x_max":793,"o":"m 518 926 l 793 926 l 354 -228 l 47 -228 l 118 -193 l 251 -186 l 379 131 l 547 586 l 650 883 l 447 892 l 518 926 l 518 926 l 518 926 z "},"^":{"ha":1083,"x_min":442,"x_max":983,"o":"m 546 621 l 442 621 l 660 946 l 764 946 l 983 621 l 879 621 l 713 864 l 546 621 l 546 621 l 546 621 z "},"_":{"ha":1042,"x_min":0,"x_max":1042,"o":"m 1042 -201 l 0 -201 l 0 -132 l 1042 -132 l 1042 -201 l 1042 -201 l 1042 -201 z "},"`":{"ha":458,"x_min":360,"x_max":585,"o":"m 533 617 l 360 853 l 431 879 l 451 888 l 572 653 l 585 625 l 533 617 l 533 617 l 533 617 z "},"a":{"ha":875,"x_min":181,"x_max":1025,"o":"m 908 504 l 893 463 q 884 437 889 451 q 872 406 879 422 q 866 388 869 397 q 860 369 863 379 q 852 351 856 360 q 846 332 849 342 q 844 328 844 331 q 843 324 843 326 q 841 320 842 322 q 839 315 840 318 q 838 313 839 314 q 838 310 838 311 q 835 304 836 307 q 835 299 835 301 q 818 248 825 272 q 804 200 811 224 q 795 159 799 176 q 792 131 792 142 q 792 128 792 129 q 792 125 792 126 q 792 123 792 124 q 792 122 792 122 q 792 120 792 121 q 793 118 793 119 q 794 113 793 115 q 797 107 794 110 q 804 103 800 104 q 814 101 808 101 q 832 103 821 101 q 858 111 843 106 q 888 123 872 117 q 921 136 903 129 q 924 138 922 138 q 929 140 926 139 q 933 141 931 140 q 938 143 935 142 q 963 155 950 150 q 988 165 975 160 q 1010 175 1000 171 q 1025 182 1019 179 l 1025 144 q 997 131 1014 139 q 958 111 981 122 q 913 90 936 101 q 864 67 889 78 q 858 64 861 65 q 851 61 854 63 q 846 58 849 60 q 842 56 843 57 q 783 30 811 42 q 726 7 754 18 q 680 -8 699 -3 q 651 -12 661 -12 q 635 -10 642 -12 q 625 -4 628 -8 q 620 4 622 0 q 618 14 618 8 q 618 20 618 17 q 618 28 618 24 q 619 33 618 31 q 621 39 619 36 q 622 42 621 40 q 622 44 622 43 q 622 47 622 46 q 622 49 622 47 q 622 49 622 49 q 622 51 622 50 q 623 53 622 53 q 624 56 624 54 q 624 58 624 57 q 625 60 625 58 q 625 62 625 61 q 626 64 625 63 q 626 65 626 64 q 626 67 626 65 q 627 69 626 68 q 628 71 628 69 q 628 73 628 72 q 629 75 629 74 l 643 139 q 615 125 631 133 q 579 106 599 117 q 558 95 569 100 q 536 86 547 90 q 515 76 526 81 q 493 65 504 71 q 489 63 492 64 q 485 60 486 61 q 480 58 482 58 q 475 56 478 57 q 469 53 472 54 q 464 51 467 51 q 459 49 461 50 q 456 46 457 47 q 401 22 428 33 q 350 3 375 11 q 305 -9 325 -4 q 271 -14 285 -14 q 238 -9 253 -14 q 214 4 224 -4 q 198 26 204 15 q 189 50 192 38 q 186 56 188 53 q 185 64 185 60 q 183 70 183 67 q 183 76 183 74 q 181 88 182 83 q 181 99 181 93 q 183 131 181 114 q 189 168 185 149 q 201 208 194 188 q 214 250 207 229 q 233 298 222 274 q 256 344 243 322 q 281 387 268 368 q 308 421 294 406 q 331 442 318 432 q 360 463 344 453 q 382 475 371 469 q 404 488 393 481 q 415 493 410 490 q 426 499 421 496 q 435 503 431 501 q 446 507 440 506 q 451 509 449 508 q 456 511 453 510 q 462 514 458 513 q 469 518 465 515 q 477 521 474 519 q 483 524 481 522 q 510 536 497 531 q 533 546 522 542 q 544 550 539 549 q 556 554 550 551 q 565 558 560 556 q 576 561 571 560 q 603 567 589 565 q 633 571 618 569 q 669 573 649 572 q 717 574 690 574 q 748 573 732 574 q 781 572 764 572 q 812 570 796 571 q 843 568 828 569 q 906 561 875 565 q 968 553 938 557 l 908 504 l 908 504 l 908 504 m 658 193 l 704 331 l 764 492 q 760 492 763 492 q 756 492 757 492 q 751 492 753 492 q 746 493 749 493 q 735 494 740 493 q 726 496 729 494 q 710 498 718 497 q 693 500 701 499 q 675 501 683 500 q 658 503 667 501 q 624 506 640 506 q 592 507 607 507 q 524 498 553 507 q 476 472 496 489 q 444 435 458 454 q 417 396 429 417 q 415 394 415 394 q 414 393 414 393 q 413 391 413 392 q 413 389 413 390 q 410 387 411 388 q 410 386 410 386 q 408 384 408 385 q 408 382 408 383 q 381 327 393 356 q 358 271 368 299 q 344 215 349 243 q 339 157 339 186 q 339 151 339 154 q 339 144 339 147 q 340 142 339 143 q 340 139 340 140 q 341 135 340 136 q 342 132 342 133 q 348 116 343 124 q 358 101 353 108 q 375 91 365 94 q 400 88 385 88 q 423 91 410 88 q 454 100 436 94 q 490 114 471 107 q 526 129 508 121 q 532 131 529 131 q 538 133 535 132 q 540 135 539 135 q 543 136 542 136 q 547 138 544 138 q 551 140 549 139 q 555 141 553 140 q 558 143 557 142 q 588 158 574 150 q 614 171 601 165 q 638 183 626 178 q 658 192 649 188 l 658 193 l 658 193 z "},"b":{"ha":875,"x_min":181,"x_max":971,"o":"m 181 -18 l 289 303 l 358 521 q 365 541 361 529 q 372 567 368 553 q 376 577 374 572 q 379 586 378 582 q 385 606 382 596 q 393 628 389 617 q 406 661 400 644 q 421 694 413 678 q 435 724 428 711 q 451 746 442 736 q 460 757 454 751 q 472 768 467 763 q 487 779 479 774 q 504 790 494 785 q 513 797 508 793 q 524 804 518 800 q 535 810 529 807 q 546 817 540 814 q 558 823 553 819 q 569 831 564 826 q 581 837 575 833 q 593 843 588 840 q 607 851 600 847 q 622 858 614 854 q 636 865 629 861 q 650 872 643 868 q 676 885 664 879 q 701 897 689 892 q 710 901 706 900 q 719 906 715 903 q 727 909 724 907 q 735 913 731 911 q 744 917 739 915 q 754 921 749 919 q 759 923 757 922 q 764 925 761 924 q 778 930 771 928 q 792 933 785 932 q 799 935 794 933 q 806 936 803 936 q 831 940 817 939 q 864 940 846 940 l 925 942 l 971 938 l 888 857 l 781 857 q 738 853 758 856 q 700 847 717 851 q 667 835 682 843 q 638 813 651 826 q 619 793 628 804 q 601 769 610 782 q 588 744 594 757 q 575 717 582 731 q 564 695 569 706 q 556 674 558 685 q 549 654 553 664 q 543 636 546 644 l 481 449 q 504 458 492 453 q 531 471 517 464 q 558 485 543 478 q 589 499 574 492 q 608 507 599 503 q 626 515 617 511 q 636 520 631 518 q 647 525 642 522 q 657 529 651 526 q 667 533 663 532 q 705 547 686 540 q 742 558 724 553 q 778 565 761 563 q 810 568 794 568 q 876 560 850 568 q 917 535 903 551 q 938 499 931 518 q 946 457 946 481 q 945 442 946 450 q 943 426 944 433 q 942 418 943 422 q 942 410 942 414 q 939 397 940 404 q 936 385 938 390 q 932 372 933 378 q 929 358 931 365 q 917 326 924 342 q 904 294 911 310 q 898 279 901 286 q 890 264 894 272 q 883 251 886 257 q 876 238 879 244 q 874 234 875 236 q 872 229 872 232 q 869 226 871 228 q 867 221 868 224 q 862 213 864 217 q 858 207 860 210 q 842 188 850 197 q 828 171 835 178 q 813 156 821 163 q 797 142 806 149 q 762 117 782 129 q 718 94 742 106 q 703 87 711 90 q 685 81 694 83 q 676 77 681 79 q 668 74 672 75 q 659 69 664 71 q 650 67 654 68 l 575 38 q 570 35 572 36 q 567 32 568 33 q 562 30 564 31 q 558 29 560 29 q 541 22 550 25 q 524 15 532 19 q 506 10 515 13 q 489 4 497 7 q 452 -3 471 0 q 414 -6 433 -6 q 377 -4 396 -6 q 339 0 358 -3 q 302 3 321 0 q 267 13 283 7 l 201 -24 l 181 -18 l 181 -18 l 181 -18 m 464 396 l 363 99 q 394 86 378 92 q 429 76 411 81 q 465 70 446 72 q 504 68 483 68 q 590 83 551 68 q 658 128 628 97 q 710 192 688 158 q 747 261 732 225 q 762 301 756 281 q 771 339 768 321 q 776 375 774 358 q 779 406 779 392 q 779 408 779 407 q 779 411 779 410 q 779 413 779 413 q 779 415 779 414 q 779 416 779 415 q 779 418 779 417 q 773 440 778 429 q 760 461 768 451 q 738 476 753 471 q 704 481 724 481 q 679 478 692 481 q 654 474 667 476 q 640 469 647 472 q 626 465 633 467 q 611 460 618 463 q 597 456 604 458 q 592 453 594 454 q 588 451 590 453 q 577 448 582 450 q 568 443 572 446 q 563 440 565 442 q 558 438 561 439 q 548 434 553 436 q 539 431 543 432 q 532 427 536 429 q 525 424 528 425 q 511 417 518 421 q 497 411 504 414 q 479 401 488 406 q 464 394 471 397 l 464 396 l 464 396 z "},"c":{"ha":708,"x_min":181,"x_max":797,"o":"m 797 178 l 797 136 q 771 122 785 129 q 742 107 757 114 q 709 91 726 99 q 672 76 692 83 q 641 63 657 69 q 610 50 625 57 q 594 44 601 47 q 578 38 586 40 q 562 32 569 35 q 546 26 554 29 q 490 9 518 17 q 433 -4 461 1 q 381 -14 406 -11 q 335 -17 357 -17 q 259 -7 290 -17 q 213 21 228 3 q 189 63 197 40 q 181 113 181 86 q 183 144 181 128 q 188 178 185 160 q 195 214 190 196 q 206 250 200 232 q 225 299 214 275 q 250 347 236 324 q 279 390 263 371 q 314 426 296 410 q 352 455 332 442 q 396 479 372 468 q 442 501 418 490 q 492 524 467 513 q 495 524 493 524 q 500 526 497 525 q 503 528 501 528 q 508 531 506 529 q 512 531 510 531 q 515 533 514 532 q 519 534 517 533 q 522 536 521 535 q 526 538 524 538 q 531 540 528 539 q 531 540 531 540 q 533 540 532 540 q 536 542 535 542 q 539 543 538 543 q 551 548 544 546 q 563 553 557 550 q 576 557 569 554 q 588 561 582 560 q 613 567 600 565 q 639 569 625 569 q 694 563 671 569 q 733 542 718 556 q 756 511 749 528 q 764 475 764 494 l 764 458 l 643 411 q 643 413 643 413 q 643 415 643 414 q 642 419 642 417 q 642 422 642 421 q 639 428 640 425 q 638 436 638 432 q 625 458 632 447 q 608 478 618 468 q 584 492 599 488 q 550 497 569 497 q 485 483 514 497 q 433 442 456 469 q 394 385 411 415 q 364 322 376 354 q 348 278 354 300 q 339 236 342 257 q 335 199 336 215 q 333 171 333 182 q 340 129 333 149 q 358 93 346 110 q 397 68 371 76 q 463 60 424 60 q 495 63 478 60 q 535 71 513 65 q 577 83 556 76 q 621 99 599 90 q 637 105 628 101 q 656 113 646 108 q 665 116 660 114 q 674 119 669 118 q 683 124 678 122 q 692 128 688 126 q 707 134 700 131 q 721 142 714 138 q 726 143 724 142 q 731 146 729 144 q 741 150 736 147 q 750 154 746 153 q 775 166 763 161 q 797 176 788 171 l 797 178 l 797 178 z "},"d":{"ha":917,"x_min":181,"x_max":1310,"o":"m 1042 182 l 1035 140 q 1009 127 1025 135 q 971 108 993 119 q 924 87 949 99 q 872 64 900 75 q 869 62 871 63 q 865 61 867 61 q 862 59 864 60 q 858 57 860 58 q 855 55 857 56 q 851 54 853 54 q 847 52 849 53 q 843 51 844 51 q 783 26 813 38 q 725 3 753 14 q 678 -10 697 -6 q 650 -15 660 -15 q 629 -12 638 -15 q 617 -6 621 -10 q 608 5 611 0 q 606 15 606 10 q 604 19 604 17 q 604 22 604 21 q 604 24 604 24 q 604 26 604 25 q 604 27 604 26 q 604 29 604 28 l 613 97 l 617 126 q 590 113 606 121 q 556 96 575 106 q 516 77 538 86 q 472 57 494 68 q 469 55 471 56 q 465 53 467 54 q 462 51 464 51 q 458 50 460 50 q 453 48 456 49 q 450 47 451 47 q 446 45 447 46 q 443 43 444 44 q 390 20 415 31 q 339 1 364 10 q 297 -10 314 -6 q 268 -15 279 -15 q 243 -10 254 -15 q 222 1 232 -6 q 206 20 213 10 q 193 43 199 31 q 188 57 190 50 q 183 71 185 64 q 181 83 182 78 q 181 93 181 89 q 183 124 181 107 q 192 161 186 140 q 205 201 199 181 q 221 244 211 222 q 236 281 228 264 q 254 317 244 299 q 274 351 264 335 q 293 381 283 367 q 296 385 294 383 q 299 389 297 386 q 301 392 300 390 q 304 396 303 394 q 310 403 307 400 q 317 410 314 407 q 345 435 329 422 q 379 458 361 447 q 418 480 399 469 q 460 500 438 490 q 465 503 463 501 q 472 506 468 504 q 478 508 475 507 q 483 511 481 510 q 490 514 486 513 q 496 517 493 515 q 502 518 499 517 q 508 521 506 519 q 518 526 513 524 q 529 529 524 528 q 540 534 533 532 q 551 539 546 536 q 560 542 556 540 q 571 546 565 544 q 576 548 574 547 q 581 550 578 549 q 589 553 585 551 q 597 556 593 554 q 604 557 600 556 q 613 560 608 558 q 619 562 615 561 q 626 564 622 563 q 633 565 629 564 q 642 567 638 565 q 649 567 646 567 q 657 568 653 568 q 665 569 661 569 q 672 569 668 569 q 678 569 675 569 q 683 569 681 569 q 686 569 685 569 q 689 569 688 569 q 697 568 693 568 q 706 568 701 568 q 714 567 710 568 q 722 567 718 567 q 729 565 725 565 q 738 565 733 565 q 740 565 739 565 q 743 564 742 564 q 744 563 743 563 q 747 563 746 563 q 750 563 749 563 q 753 563 751 563 q 756 563 754 563 q 758 563 757 563 l 775 608 q 776 615 775 611 q 778 622 778 618 q 781 628 779 625 q 783 635 782 632 q 786 641 785 638 q 789 647 788 644 q 790 653 789 650 q 793 660 792 657 q 801 686 796 674 q 813 711 807 699 q 827 734 819 722 q 846 757 835 746 q 861 772 853 764 q 879 789 869 781 q 901 806 889 797 q 929 824 914 814 q 965 844 946 835 q 1001 864 983 854 q 1040 883 1021 874 q 1079 901 1058 892 q 1088 906 1083 904 q 1096 910 1092 907 q 1099 910 1097 910 q 1101 911 1100 911 q 1107 914 1104 913 q 1113 917 1110 915 q 1120 919 1117 918 q 1128 922 1124 921 q 1135 925 1132 924 q 1143 928 1139 926 q 1164 933 1153 931 q 1188 938 1175 936 q 1213 940 1199 939 q 1242 940 1226 940 q 1244 940 1243 940 q 1247 940 1246 940 q 1249 940 1247 940 q 1251 940 1250 940 q 1254 940 1253 940 q 1258 940 1256 940 q 1261 939 1260 939 q 1264 939 1263 939 q 1269 939 1267 939 q 1276 939 1272 939 q 1282 938 1279 938 q 1288 938 1285 938 q 1293 937 1290 938 q 1299 936 1296 936 q 1304 935 1301 935 q 1310 935 1307 935 l 1238 858 q 1226 858 1232 858 q 1213 860 1219 858 q 1201 860 1207 860 q 1188 863 1194 861 q 1180 863 1183 863 q 1172 864 1176 863 q 1166 864 1169 864 q 1160 864 1163 864 q 1153 864 1157 864 q 1147 865 1150 864 q 1141 865 1144 865 q 1135 865 1138 865 q 1072 856 1100 865 q 1025 826 1044 846 q 989 788 1004 808 q 963 743 974 767 q 953 722 957 732 q 946 700 949 711 q 937 681 940 690 q 931 663 933 671 l 817 324 l 779 199 q 778 197 779 197 q 778 194 778 196 q 777 192 778 193 q 776 192 776 192 q 776 190 776 190 q 775 189 775 189 q 775 187 775 188 q 775 185 775 186 q 772 178 774 182 q 771 172 771 175 q 768 167 769 169 q 767 161 767 164 q 764 150 765 156 q 763 139 763 144 q 760 129 761 133 q 760 121 760 125 q 760 119 760 119 q 760 118 760 118 q 760 116 760 117 q 760 114 760 115 q 760 112 760 113 q 760 111 760 111 q 760 109 760 110 q 763 107 761 108 q 765 99 763 103 q 771 90 768 94 q 778 85 774 86 q 792 83 783 83 q 812 87 799 83 q 843 96 825 90 q 880 110 861 103 q 917 126 899 118 q 919 126 918 126 q 922 128 921 126 q 924 128 922 128 q 926 129 925 129 q 928 130 928 129 q 929 131 928 131 q 932 132 931 131 q 935 133 933 133 q 966 148 950 140 q 996 161 982 156 q 1021 173 1010 168 q 1042 181 1032 178 l 1042 182 l 1042 182 m 633 176 l 726 471 q 724 472 725 471 q 721 472 722 472 q 719 474 719 474 q 718 475 719 475 q 715 476 717 475 q 714 478 714 476 q 711 478 713 478 q 708 479 710 479 q 695 486 703 483 q 681 492 688 489 q 674 494 678 493 q 667 497 671 496 q 643 502 656 500 q 617 504 631 504 q 529 488 568 504 q 460 440 490 472 q 406 373 429 408 q 368 300 383 338 q 351 256 358 278 q 342 213 344 233 q 335 173 336 190 q 333 140 333 156 q 333 135 333 138 q 333 129 333 132 q 333 123 333 126 q 335 117 333 119 q 338 102 335 108 q 346 89 340 96 q 360 80 350 83 q 383 76 369 76 q 406 80 393 76 q 438 89 419 83 q 472 102 453 96 q 508 117 490 108 q 513 119 510 118 q 518 122 515 121 q 524 125 521 124 q 531 128 528 126 q 560 142 546 135 q 589 156 575 150 q 613 167 601 163 q 633 175 624 171 l 633 176 l 633 176 z "},"e":{"ha":708,"x_min":181,"x_max":792,"o":"m 792 189 l 792 151 q 774 140 782 146 q 758 128 765 133 q 740 117 749 122 q 721 106 731 111 q 658 71 690 88 q 592 39 626 54 q 557 24 575 31 q 522 13 539 18 q 486 3 504 7 q 451 -4 468 -1 q 426 -9 439 -7 q 401 -12 414 -11 q 385 -14 393 -14 q 371 -15 378 -14 q 363 -15 367 -15 q 356 -15 360 -15 q 274 -6 308 -15 q 221 25 240 4 q 190 70 200 46 q 181 124 181 94 q 183 153 181 138 q 188 185 185 168 q 195 219 190 201 q 206 254 200 236 q 222 298 213 276 q 243 340 231 319 q 267 380 254 361 q 293 414 279 399 q 302 424 296 418 q 314 435 308 429 q 327 446 321 440 q 343 457 333 451 q 381 482 361 469 q 425 507 401 494 q 473 530 449 519 q 522 549 497 540 q 553 557 538 553 q 585 564 569 561 q 615 569 600 567 q 643 571 629 571 q 695 565 674 571 q 731 547 717 558 q 753 520 746 535 q 760 486 760 506 q 751 445 760 464 q 726 410 742 426 q 692 378 711 393 q 650 350 672 364 l 360 213 l 333 200 q 333 195 333 197 q 333 190 333 193 q 333 187 333 189 q 333 182 333 185 q 333 179 333 181 q 333 178 333 178 q 333 175 333 176 q 333 172 333 174 q 333 169 333 171 q 333 168 333 168 q 333 165 333 167 q 333 163 333 164 q 342 126 335 144 q 364 93 350 108 q 401 70 376 78 q 460 63 425 63 q 490 64 475 63 q 521 69 506 65 q 552 77 536 72 q 585 88 568 82 q 594 91 590 89 q 604 94 599 93 q 624 103 614 99 q 643 111 633 107 q 657 117 650 114 q 672 125 664 121 q 686 131 679 128 q 700 139 693 135 q 713 145 707 142 q 725 153 719 149 q 738 159 732 156 q 750 165 744 163 q 758 169 754 168 q 764 174 761 171 q 778 181 771 176 q 792 188 786 185 l 792 189 l 792 189 m 338 246 q 341 247 339 246 q 344 249 343 247 q 348 249 346 249 q 351 251 350 250 q 357 254 354 253 q 363 257 360 256 q 365 259 364 258 q 368 260 367 260 q 377 265 372 263 q 388 268 382 267 q 392 271 390 269 q 397 274 394 272 q 406 278 401 276 q 417 282 411 281 q 422 285 419 283 q 426 288 424 286 q 491 321 460 303 q 550 357 522 339 q 592 401 578 376 q 606 454 606 425 q 606 456 606 456 q 606 458 606 457 q 606 461 606 460 q 606 464 606 463 q 599 481 603 472 q 588 496 594 489 q 568 507 579 503 q 542 511 557 511 q 492 500 515 511 q 447 467 468 489 q 408 420 425 444 q 379 368 392 396 q 363 332 369 350 q 350 297 357 314 q 341 267 344 281 q 338 244 338 254 l 338 246 l 338 246 z "},"f":{"ha":667,"x_min":-206,"x_max":1126,"o":"m 239 -114 l 350 188 l 431 429 l 154 431 l 154 433 l 214 453 l 271 475 l 447 481 q 449 484 449 482 q 450 488 449 486 q 453 497 451 492 q 456 506 454 501 q 458 512 457 508 q 461 519 460 515 q 464 526 463 522 q 467 533 465 529 q 470 547 468 540 q 475 558 472 553 q 476 565 475 561 q 478 572 478 568 q 481 578 479 575 q 483 585 482 582 q 506 641 493 613 q 533 697 518 669 q 572 750 549 725 q 625 797 594 775 q 638 806 632 801 q 650 815 644 810 q 664 824 657 819 q 679 835 671 829 q 699 846 689 840 q 721 857 710 851 q 731 863 725 860 q 740 869 736 865 q 751 875 746 872 q 763 881 757 878 q 772 885 767 883 q 782 890 776 888 q 791 894 786 892 q 800 899 796 897 q 809 903 804 901 q 819 907 814 904 q 828 910 824 908 q 838 914 833 913 q 847 918 842 917 q 856 921 851 919 q 864 924 860 922 q 872 926 868 925 q 881 929 876 928 q 890 932 886 931 q 899 933 894 932 q 908 936 904 935 q 931 940 919 939 q 956 942 943 940 q 969 942 963 942 q 982 943 975 942 q 997 943 990 943 q 1013 943 1004 943 q 1026 943 1019 943 q 1040 943 1033 943 q 1056 942 1049 942 q 1071 942 1063 942 q 1085 941 1078 942 q 1099 939 1092 940 q 1113 937 1106 938 q 1126 935 1119 936 l 1033 861 q 1027 861 1031 861 q 1021 861 1024 861 q 1018 861 1019 861 q 1015 863 1017 861 q 1011 863 1013 863 q 1008 863 1010 863 q 997 863 1003 863 q 983 865 990 864 q 972 866 978 865 q 960 868 965 867 q 941 869 950 868 q 922 871 932 869 q 913 871 918 871 q 904 872 908 871 q 894 872 899 872 q 885 872 889 872 q 822 865 850 872 q 772 844 794 858 q 735 813 750 831 q 713 775 719 796 l 601 510 l 592 478 l 851 478 l 767 433 l 579 429 l 472 136 q 460 102 467 119 q 446 67 453 85 q 440 55 443 61 q 435 42 438 49 q 424 19 429 31 q 413 -3 419 7 q 383 -56 399 -31 q 347 -108 367 -82 q 309 -156 329 -133 q 267 -197 289 -179 q 253 -209 261 -203 q 235 -221 244 -215 q 216 -235 225 -228 q 197 -249 207 -242 q 190 -253 193 -251 q 183 -257 186 -256 q 180 -259 182 -258 q 176 -261 178 -260 q 169 -266 172 -264 q 163 -269 165 -268 q 159 -272 161 -271 q 156 -275 157 -274 q 133 -288 143 -282 q 113 -300 122 -294 q 92 -310 101 -306 q 72 -318 82 -314 q 47 -326 60 -322 q 21 -332 35 -331 q 9 -334 15 -333 q -1 -336 3 -335 q -17 -337 -8 -336 q -33 -340 -25 -339 q -42 -340 -37 -340 q -53 -340 -47 -340 q -58 -340 -56 -340 q -62 -340 -60 -340 q -69 -340 -65 -340 q -76 -342 -72 -340 q -79 -342 -78 -342 q -82 -342 -81 -342 q -87 -342 -85 -342 q -92 -342 -89 -342 l -206 -337 l -114 -250 q -101 -249 -107 -249 q -90 -250 -96 -250 q -85 -251 -87 -250 q -79 -251 -82 -251 q -74 -251 -76 -251 q -69 -251 -72 -251 q -59 -253 -64 -253 q -50 -254 -54 -254 q -42 -254 -46 -254 q -33 -256 -37 -254 q -26 -256 -29 -256 q -19 -256 -22 -256 q -11 -256 -15 -256 q -4 -257 -7 -256 q 3 -257 0 -257 q 8 -257 6 -257 q 99 -248 61 -257 q 158 -221 136 -239 q 199 -179 181 -203 q 233 -126 218 -156 q 233 -124 233 -125 q 235 -122 233 -124 q 235 -120 235 -121 q 235 -118 235 -119 q 235 -116 235 -117 q 238 -114 236 -115 q 238 -113 238 -114 q 239 -112 239 -112 l 239 -114 l 239 -114 z "},"g":{"ha":833,"x_min":-158,"x_max":1001,"o":"m 758 567 l 947 569 l 1001 569 l 992 560 q 985 552 989 556 q 979 546 982 549 q 973 540 976 543 q 967 533 969 536 q 961 528 964 531 q 956 524 958 525 q 945 514 950 518 q 933 506 940 510 q 914 496 924 500 q 893 492 904 492 l 839 349 l 818 288 l 733 7 q 731 -1 732 3 q 728 -8 729 -4 q 725 -17 726 -12 q 722 -28 724 -22 q 719 -38 721 -33 q 715 -49 717 -43 q 712 -60 714 -54 q 708 -71 710 -65 q 703 -84 706 -78 q 697 -96 700 -90 q 690 -109 693 -103 q 685 -121 688 -115 q 673 -144 679 -133 q 660 -162 667 -154 q 659 -162 660 -162 q 658 -162 658 -162 q 656 -165 657 -164 q 656 -165 656 -165 q 656 -166 656 -165 q 656 -168 656 -167 q 654 -169 654 -168 q 654 -169 654 -169 q 641 -182 649 -176 q 625 -194 633 -187 q 608 -206 617 -200 q 589 -218 599 -212 q 549 -242 569 -231 q 506 -262 528 -253 q 494 -267 500 -265 q 482 -272 488 -269 q 478 -273 481 -272 q 475 -275 476 -274 q 467 -278 471 -276 q 460 -281 464 -279 q 449 -285 454 -283 q 440 -289 444 -286 q 430 -292 435 -290 q 421 -296 425 -294 q 397 -303 408 -300 q 375 -310 386 -307 q 351 -316 363 -312 q 329 -322 340 -319 q 301 -327 315 -325 q 272 -332 286 -329 q 242 -335 257 -333 q 214 -337 228 -336 q 154 -342 185 -340 q 92 -343 124 -343 q 80 -343 86 -343 q 68 -343 74 -343 q 54 -342 61 -342 q 39 -342 47 -342 q 10 -340 24 -340 q -17 -336 -3 -339 q -66 -328 -42 -333 q -112 -314 -90 -322 q -147 -293 -135 -306 q -158 -264 -158 -281 q -151 -234 -158 -249 q -129 -206 -144 -219 q -100 -181 -115 -192 q -69 -158 -85 -169 q -60 -151 -64 -154 q -53 -146 -56 -149 q -48 -143 -50 -144 q -43 -142 -46 -142 q -40 -139 -42 -140 q -36 -136 -37 -137 l 204 3 l 233 19 q 215 36 222 26 q 200 56 207 46 q 191 77 194 67 q 185 99 188 88 q 185 101 185 100 q 185 104 185 103 q 185 109 185 107 q 185 113 185 111 q 187 143 185 126 q 193 178 189 160 q 205 217 199 197 q 221 257 211 236 q 242 306 231 282 q 267 353 253 331 q 295 394 281 376 q 325 424 310 411 q 371 457 347 442 q 422 486 394 472 q 478 511 450 499 q 535 535 506 524 q 559 543 547 539 q 581 550 571 547 q 594 554 588 553 q 608 557 601 556 q 615 558 611 557 q 622 560 619 560 q 632 561 628 561 q 642 563 636 561 q 661 563 651 563 q 681 564 671 564 q 696 564 688 564 q 713 565 704 564 q 729 565 721 565 q 747 565 738 565 q 748 565 747 565 q 750 565 749 565 q 751 565 750 565 q 751 565 751 565 q 753 565 753 565 q 756 565 754 565 q 756 565 756 565 q 758 565 757 565 l 758 567 l 758 567 m 567 -61 l 647 186 l 379 49 l 193 -51 q 177 -58 186 -54 q 158 -68 168 -62 q 149 -74 154 -71 q 139 -79 143 -76 q 128 -85 133 -82 q 118 -90 122 -87 q 88 -109 103 -99 q 58 -129 72 -119 q 35 -151 44 -140 q 18 -172 25 -161 q 14 -178 15 -175 q 13 -185 13 -181 q 10 -191 11 -187 q 10 -199 10 -194 q 19 -226 10 -214 q 50 -244 29 -237 q 91 -257 69 -251 q 135 -265 113 -262 q 147 -266 142 -265 q 160 -267 153 -267 q 172 -268 165 -268 q 183 -268 178 -268 q 196 -268 190 -268 q 207 -269 201 -268 q 217 -269 211 -269 q 226 -269 222 -269 q 376 -259 317 -269 q 464 -228 436 -249 q 515 -174 492 -207 q 556 -92 539 -140 q 556 -88 556 -90 q 557 -85 557 -86 q 558 -83 557 -83 q 558 -82 558 -82 q 559 -79 558 -81 q 560 -76 560 -78 q 562 -73 561 -75 q 564 -68 563 -71 q 565 -65 564 -67 q 567 -60 565 -62 l 567 -61 l 567 -61 m 664 236 l 697 326 q 701 335 699 331 q 706 343 703 339 q 709 351 707 347 q 713 360 711 356 q 715 367 714 364 q 718 374 717 371 q 719 380 718 376 q 722 386 721 383 q 728 397 725 392 q 733 406 731 401 q 736 410 735 407 q 739 414 738 413 q 748 426 742 421 q 763 436 754 431 q 777 447 769 442 q 796 458 785 453 q 819 470 806 464 q 847 485 832 476 l 860 490 l 860 493 l 672 493 q 672 492 672 493 q 671 492 671 492 q 669 492 669 492 q 668 492 668 492 q 668 492 668 492 q 668 492 668 492 q 667 492 667 492 q 667 492 667 492 q 587 488 624 490 q 522 479 550 485 q 472 456 494 474 q 431 406 450 438 q 428 401 429 404 q 426 397 426 399 q 424 392 425 394 q 421 388 422 390 q 418 383 419 386 q 415 379 417 381 q 413 374 414 376 q 410 369 411 372 q 406 360 408 365 q 401 350 403 356 q 397 341 399 346 q 392 331 394 336 q 387 320 389 325 q 382 311 385 315 q 378 301 381 306 q 375 290 376 296 q 364 260 369 275 q 356 231 358 246 q 351 204 353 217 q 350 181 350 192 q 351 163 350 171 q 354 147 351 154 q 360 134 356 140 q 372 122 365 128 q 375 119 374 121 q 379 118 376 118 q 382 115 381 117 q 385 113 383 114 q 391 109 388 111 q 400 104 394 107 l 496 154 l 664 236 l 664 236 l 664 236 z "},"h":{"ha":917,"x_min":156,"x_max":1054,"o":"m 156 -12 l 342 546 q 349 567 344 556 q 358 590 353 578 q 365 615 361 603 q 375 642 369 628 q 380 656 378 649 q 385 671 382 663 q 391 685 388 678 q 397 699 394 692 q 410 726 404 714 q 425 749 417 739 q 451 779 436 764 q 489 808 467 794 q 533 836 511 824 q 581 861 556 849 q 586 864 583 863 q 592 867 589 865 q 603 872 597 869 q 614 878 608 875 q 622 882 618 881 q 631 886 626 883 q 638 890 633 888 q 646 893 642 892 q 653 897 650 894 q 660 900 657 899 q 674 906 667 903 q 688 913 682 910 q 706 921 697 917 q 725 928 715 925 q 751 935 738 932 q 779 939 764 938 q 814 941 794 940 q 856 942 833 942 q 868 942 863 942 q 881 942 874 942 q 892 940 886 940 q 904 940 899 940 q 917 940 911 940 q 928 938 922 939 q 940 937 933 938 q 951 935 946 936 l 864 851 q 858 851 861 851 q 851 851 854 851 q 849 851 850 851 q 847 853 847 851 q 844 853 846 853 q 842 853 843 853 q 828 855 835 854 q 814 857 821 856 q 799 858 806 857 q 785 860 792 858 q 771 860 778 860 q 757 861 764 861 q 743 863 750 863 q 729 863 736 863 q 682 858 703 863 q 646 847 661 854 q 617 829 631 840 q 592 803 603 818 q 574 778 582 792 q 558 749 565 764 q 551 732 554 740 q 543 717 547 724 q 537 700 540 708 q 531 683 533 692 q 523 663 526 674 q 517 643 519 653 q 513 634 515 639 q 510 625 511 629 q 500 599 504 611 q 493 575 496 586 l 433 407 l 467 421 q 493 432 476 425 q 535 449 510 439 q 585 470 558 460 q 639 492 611 481 q 642 494 640 493 q 647 496 644 494 q 648 496 647 496 q 650 496 649 496 q 653 498 651 497 q 656 499 654 499 q 659 501 657 500 q 664 503 661 501 q 665 503 664 503 q 667 503 665 503 q 669 505 668 504 q 672 506 671 506 q 737 530 706 518 q 797 551 768 542 q 847 566 825 561 q 881 571 868 571 q 881 571 881 571 q 882 571 882 571 q 883 571 882 571 q 883 571 883 571 q 885 571 883 571 q 888 571 886 571 q 901 568 894 569 q 913 564 907 567 q 922 557 919 561 q 925 547 925 553 q 923 536 925 543 q 918 518 921 529 q 915 508 917 513 q 911 497 913 503 q 908 486 910 492 q 904 475 906 481 q 901 472 903 474 q 900 469 900 471 q 900 467 900 468 q 900 465 900 467 q 890 445 894 456 q 883 426 886 435 q 878 412 881 418 q 875 403 875 406 q 870 390 874 397 q 864 375 867 382 q 861 367 863 371 q 858 358 860 363 q 847 333 853 346 q 838 304 842 319 q 835 301 836 303 q 835 296 835 299 q 833 292 833 294 q 831 288 832 290 q 830 284 831 286 q 828 279 829 282 q 826 276 826 278 q 825 271 825 274 q 813 233 819 251 q 801 194 807 214 q 794 162 796 176 q 792 136 792 147 q 792 134 792 135 q 792 133 792 133 q 792 131 792 132 q 792 129 792 131 q 792 127 792 128 q 792 126 792 126 q 792 124 792 125 q 793 122 793 124 q 795 114 793 118 q 800 106 797 110 q 809 100 803 101 q 822 99 815 99 q 840 101 829 99 q 867 107 851 103 q 896 117 881 111 q 926 129 911 124 q 928 129 928 129 q 929 129 928 129 q 932 131 931 131 q 935 132 933 132 q 938 133 936 132 q 940 135 939 133 q 943 135 942 135 q 946 136 944 136 q 971 147 958 142 q 996 157 983 151 q 1016 165 1007 161 q 1031 171 1025 169 l 1054 182 l 1042 142 l 663 -21 q 656 -12 660 -15 q 650 -6 653 -8 q 645 -1 647 -3 q 642 3 643 1 q 636 12 639 7 q 631 22 633 17 q 629 33 629 26 q 629 44 629 39 q 631 71 629 56 q 639 106 633 86 q 651 145 644 125 q 663 186 657 165 q 663 190 663 189 q 664 194 663 192 q 665 198 664 196 q 667 201 665 200 q 667 206 667 204 q 669 210 668 208 q 672 215 671 213 q 672 218 672 217 q 676 228 674 224 q 679 239 678 233 q 685 258 682 249 q 693 278 689 268 q 703 304 699 293 q 710 325 707 315 q 712 332 710 328 q 717 340 714 336 q 720 349 718 344 q 725 360 722 354 q 726 365 725 363 q 729 371 728 368 q 729 374 729 372 q 731 378 729 375 q 731 381 731 379 q 731 383 731 382 q 733 392 732 388 q 736 400 735 396 q 739 407 738 403 q 742 415 740 411 q 742 421 742 418 q 743 425 743 424 q 745 435 744 431 q 746 443 746 439 q 746 443 746 443 q 746 444 746 443 q 746 444 746 444 q 746 444 746 444 q 746 444 746 444 q 746 446 746 444 q 746 446 746 446 q 746 446 746 446 q 745 449 746 447 q 743 451 744 450 q 741 456 742 453 q 738 460 740 458 q 730 465 735 463 q 718 467 725 467 q 709 466 714 467 q 697 463 704 465 q 691 460 694 461 q 685 460 688 460 q 678 458 682 458 q 672 456 675 457 q 669 455 671 456 q 667 453 668 454 q 665 453 665 453 q 664 453 665 453 q 661 452 663 453 q 658 450 660 451 q 657 450 657 450 q 656 450 657 450 q 645 447 650 449 q 638 442 640 444 q 628 439 632 440 q 622 436 625 438 l 417 351 l 308 28 l 156 -12 l 156 -12 l 156 -12 z "},"i":{"ha":500,"x_min":168,"x_max":647,"o":"m 647 164 l 639 125 l 563 92 l 488 58 q 473 50 482 54 q 454 42 464 46 q 447 38 450 40 q 439 35 443 36 q 424 28 432 32 q 408 22 417 25 q 403 20 406 21 q 399 19 401 19 q 395 17 397 18 q 392 15 393 17 q 388 13 390 14 q 385 13 386 13 q 380 10 382 11 q 376 10 378 10 q 357 3 367 7 q 338 -1 347 0 q 328 -4 332 -3 q 318 -7 324 -6 q 293 -13 304 -11 q 275 -15 282 -15 q 251 -12 261 -15 q 238 -3 242 -10 q 228 8 232 1 q 222 22 225 14 q 221 28 221 25 q 221 33 221 31 q 221 36 221 35 q 221 39 221 38 q 221 40 221 39 q 221 43 221 42 q 222 62 221 51 q 226 85 224 72 q 233 110 229 97 q 243 136 238 122 q 244 141 243 139 q 246 144 244 143 q 247 147 246 146 q 247 150 247 149 q 249 156 247 153 q 254 164 251 160 q 260 183 257 174 q 267 200 264 192 q 273 217 269 208 q 279 232 276 225 l 306 300 q 307 303 307 301 q 308 306 307 304 q 311 312 310 308 q 314 319 313 315 q 319 333 317 326 q 325 344 322 339 q 325 347 325 346 q 326 350 325 349 q 326 351 326 350 q 326 354 326 353 q 327 357 326 356 q 328 360 328 358 q 328 360 328 360 q 329 361 329 360 q 330 363 329 361 q 331 364 331 364 q 333 373 332 368 q 336 383 335 378 q 339 392 338 388 q 342 401 340 397 q 346 419 344 411 q 347 432 347 426 q 347 433 347 432 q 347 435 347 433 q 347 435 347 435 q 347 438 347 436 q 347 442 347 440 q 346 446 347 443 q 344 449 346 447 q 342 453 343 451 q 334 458 339 456 q 322 460 329 460 q 308 458 317 460 q 289 453 299 456 q 278 450 283 451 q 268 446 272 449 q 257 443 263 444 q 246 439 251 442 q 241 437 243 438 q 238 435 239 436 q 235 434 236 435 q 235 433 235 433 q 233 432 233 432 q 231 432 232 432 q 212 424 221 428 q 196 418 203 421 q 180 413 186 415 q 168 408 174 411 l 172 449 q 195 457 182 451 q 226 471 208 463 q 263 488 244 479 q 304 506 282 496 q 308 506 306 506 q 311 508 310 507 q 315 509 313 508 q 318 511 317 510 q 322 513 319 513 q 326 515 324 514 q 327 515 326 515 q 329 515 328 515 q 332 517 331 517 q 335 518 333 518 q 384 538 360 529 q 431 554 408 546 q 472 567 454 563 q 500 571 489 571 q 511 570 507 571 q 518 567 515 569 q 523 562 521 565 q 525 554 525 558 q 524 549 525 553 q 522 543 524 546 q 522 539 522 540 q 521 535 521 538 q 518 528 519 532 q 515 522 517 525 q 514 515 515 518 q 513 508 513 511 q 512 508 513 508 q 511 507 511 507 q 510 505 511 506 q 510 504 510 504 q 510 502 510 503 q 510 501 510 501 q 507 494 508 497 q 504 486 506 490 q 503 483 503 485 q 501 479 503 481 q 497 470 499 474 q 496 464 496 467 l 408 218 q 406 210 407 214 q 404 204 404 207 q 401 198 403 201 q 400 192 400 194 q 398 189 399 190 q 397 188 397 188 q 396 185 396 186 q 396 182 396 183 q 395 180 396 181 q 394 178 394 179 q 394 176 394 176 q 393 174 393 175 q 390 168 392 171 q 389 163 389 165 q 388 156 388 158 q 388 150 388 153 q 385 140 386 144 q 385 131 385 135 q 385 128 385 129 q 385 128 385 128 q 385 126 385 126 q 385 124 385 125 q 385 120 385 122 q 388 115 386 118 q 390 106 388 110 q 397 97 393 101 q 406 91 400 93 q 422 89 413 89 q 438 90 429 89 q 456 94 446 92 q 476 100 465 97 q 500 107 488 103 q 503 109 501 108 q 508 111 506 110 q 515 113 511 111 q 521 115 518 114 q 528 118 525 117 q 536 121 532 119 q 544 124 540 122 q 551 126 547 125 q 559 129 556 128 q 567 132 563 131 q 572 133 569 132 q 576 136 575 135 l 647 164 l 647 164 l 647 164 m 418 783 l 556 857 l 621 775 l 633 763 l 500 688 q 498 688 499 688 q 497 689 497 688 q 495 690 496 689 q 493 690 494 690 q 492 691 493 690 q 492 692 492 692 q 490 694 490 693 q 489 696 489 694 q 482 702 486 699 q 475 708 478 706 q 461 722 468 715 q 447 736 454 729 q 431 758 438 747 q 418 782 424 769 l 418 783 l 418 783 z "},"j":{"ha":458,"x_min":-276,"x_max":631,"o":"m -276 -336 l -181 -253 l -54 -258 q 13 -251 -15 -257 q 58 -233 40 -244 q 93 -206 78 -222 q 121 -167 108 -189 l 208 29 l 276 219 q 282 234 279 225 q 289 257 285 243 q 292 265 290 261 q 296 275 294 269 q 302 294 299 283 q 310 314 306 304 q 310 316 310 315 q 310 318 310 317 q 310 319 310 318 q 313 321 311 319 q 313 323 313 322 q 314 325 313 324 q 314 327 314 326 q 314 329 314 328 q 326 364 321 347 q 335 397 331 381 q 343 425 340 414 q 346 442 346 436 q 343 448 346 444 q 338 453 340 451 q 333 455 335 454 q 328 457 331 456 q 323 458 325 457 q 318 458 321 458 q 303 456 313 458 q 283 451 294 454 q 272 448 278 450 q 261 443 267 446 q 250 440 256 442 q 239 435 244 438 q 238 434 239 435 q 238 433 238 433 q 235 433 236 433 q 235 432 235 432 q 235 432 235 432 q 235 432 235 432 q 233 432 233 432 q 233 432 233 432 q 215 424 224 428 q 196 417 206 419 q 180 410 186 413 q 167 407 174 408 l 167 449 l 192 458 q 211 466 199 461 q 242 479 224 471 q 277 494 258 486 q 318 511 296 503 q 324 513 321 511 q 331 515 328 514 q 337 518 333 517 q 343 521 340 519 q 389 539 367 531 q 433 554 411 547 q 471 565 456 561 q 496 569 486 569 q 496 569 496 569 q 497 569 496 569 q 497 569 497 569 q 497 569 497 569 q 498 569 497 569 q 499 569 499 569 q 499 569 499 569 q 500 569 500 569 q 505 569 503 569 q 510 567 507 568 q 514 566 511 567 q 518 564 517 565 q 524 559 521 563 q 526 553 526 556 q 526 546 526 550 q 522 536 525 542 q 522 533 522 535 q 521 528 521 531 q 519 522 519 525 q 518 514 518 518 q 517 513 518 514 q 517 511 517 513 q 515 510 515 511 q 514 508 514 510 q 514 506 514 507 q 514 503 514 504 q 513 498 514 500 q 511 493 513 496 q 509 490 510 492 q 508 485 508 488 q 506 478 507 481 q 504 474 504 476 l 438 285 q 424 244 432 267 q 406 193 415 221 q 387 140 396 167 q 368 85 378 113 q 342 22 356 51 q 314 -39 329 -8 q 299 -67 306 -54 q 285 -92 292 -81 q 269 -115 276 -104 q 254 -133 263 -125 q 237 -149 246 -140 q 218 -167 228 -157 q 197 -184 208 -175 q 172 -203 185 -193 q 167 -207 169 -206 q 161 -211 164 -208 q 156 -215 158 -212 q 150 -218 153 -217 q 144 -222 147 -221 q 139 -226 142 -224 q 134 -230 136 -228 q 129 -233 132 -232 q 104 -250 117 -242 q 79 -267 92 -258 q 56 -281 67 -274 q 35 -293 44 -287 q 16 -303 25 -299 q 0 -311 7 -307 q -14 -319 -6 -315 q -32 -325 -22 -322 q -60 -333 -44 -329 q -90 -337 -75 -336 q -124 -341 -106 -340 q -165 -342 -143 -342 l -276 -336 l -276 -336 l -276 -336 m 417 783 l 554 857 l 621 775 l 631 763 l 500 688 q 475 709 488 699 q 451 732 463 719 q 433 756 442 743 q 417 782 424 768 l 417 783 l 417 783 z "},"k":{"ha":917,"x_min":181,"x_max":1364,"o":"m 181 -12 l 426 711 q 441 734 433 724 q 458 754 449 744 q 467 763 463 758 q 475 772 471 767 q 486 781 481 776 q 497 789 492 785 q 501 791 499 790 q 504 793 503 792 q 510 798 507 796 q 518 801 514 800 q 530 808 524 804 q 542 815 536 811 q 558 825 549 819 q 576 836 567 831 q 590 844 583 840 q 604 850 597 847 q 611 855 607 853 q 618 858 615 857 q 624 861 621 860 q 629 864 626 863 q 632 866 631 865 q 635 867 633 867 q 638 869 636 868 q 643 872 640 871 q 647 874 644 872 q 650 876 649 875 q 666 884 658 881 q 681 890 674 888 q 688 895 685 893 q 696 899 692 897 q 707 903 701 901 q 718 908 713 906 q 728 913 722 910 q 739 917 733 915 q 760 924 749 921 q 783 929 771 928 q 794 931 789 931 q 806 933 800 932 q 819 934 813 933 q 831 936 825 935 q 842 936 836 936 q 854 936 849 936 q 860 936 857 936 q 865 938 863 936 q 871 938 868 938 q 876 938 874 938 l 954 935 l 871 854 q 860 854 865 854 q 850 856 854 854 q 839 856 844 856 q 829 858 833 857 q 823 858 826 858 q 817 860 819 858 q 811 860 814 860 q 806 860 808 860 q 800 860 803 860 q 794 861 797 860 q 793 861 794 861 q 792 861 792 861 q 788 861 790 861 q 785 861 786 861 q 716 854 746 861 q 664 835 686 847 q 624 804 642 822 q 593 763 606 786 q 574 729 583 746 q 558 694 565 713 q 550 676 554 685 q 543 658 546 667 q 535 640 539 649 q 529 621 532 631 q 518 594 524 607 q 510 567 513 581 q 507 558 508 563 q 504 549 506 553 q 499 532 501 540 q 493 515 496 524 l 426 319 l 431 317 l 706 486 q 719 493 713 489 q 731 501 725 497 q 740 508 735 504 q 750 514 744 511 q 755 517 753 515 q 760 521 757 519 q 798 545 779 533 q 839 567 817 557 q 883 583 861 578 q 931 588 906 588 q 965 585 949 588 q 996 581 981 583 q 1016 576 1007 579 q 1035 568 1025 572 q 1045 565 1040 567 q 1054 560 1050 563 l 950 454 q 931 468 940 461 q 908 481 921 475 q 881 490 896 488 q 851 493 867 493 q 825 490 838 493 q 801 483 813 488 q 778 473 789 478 q 758 463 768 468 q 756 460 757 461 q 753 460 754 460 q 750 458 751 458 q 747 457 749 457 q 744 455 746 456 q 742 453 743 454 q 740 452 740 453 q 739 451 740 451 l 692 425 l 571 353 l 792 38 q 806 19 799 28 q 822 0 813 10 q 840 -19 831 -8 q 860 -39 850 -29 q 912 -85 883 -62 q 971 -128 940 -107 q 1037 -158 1003 -147 q 1110 -168 1071 -168 q 1181 -160 1150 -168 q 1238 -135 1213 -151 q 1283 -99 1263 -118 q 1321 -60 1303 -81 l 1364 -157 q 1325 -175 1346 -167 q 1281 -189 1304 -183 q 1258 -194 1269 -192 q 1235 -197 1246 -196 q 1210 -200 1222 -199 q 1188 -203 1199 -201 q 1176 -203 1182 -203 q 1163 -203 1169 -203 q 1157 -203 1160 -203 q 1151 -204 1154 -203 q 1144 -204 1147 -204 q 1139 -204 1142 -204 q 1110 -203 1125 -204 q 1081 -201 1096 -203 q 1065 -199 1072 -200 q 1051 -199 1058 -199 q 1046 -197 1049 -197 q 1042 -197 1043 -197 q 1032 -196 1036 -196 q 1022 -194 1028 -196 q 956 -181 988 -189 q 893 -164 925 -174 q 836 -142 863 -154 q 788 -117 810 -131 q 735 -81 760 -100 q 689 -39 710 -61 q 649 5 667 -17 q 617 49 632 26 q 606 63 611 56 q 596 78 600 71 q 591 85 593 82 q 586 93 589 89 q 581 99 583 96 q 576 107 579 103 l 456 288 l 410 267 l 331 19 l 188 -12 l 181 -12 l 181 -12 l 181 -12 z "},"l":{"ha":500,"x_min":181,"x_max":904,"o":"m 638 183 l 638 153 l 558 113 l 439 56 q 426 47 433 51 q 410 39 419 43 q 401 35 406 38 q 392 31 396 32 q 381 26 386 28 q 372 21 376 24 q 366 18 369 19 q 360 15 363 17 q 356 13 358 14 q 353 13 354 13 q 349 10 351 11 q 346 10 347 10 q 330 4 338 7 q 314 0 322 1 q 308 -3 311 -1 q 300 -6 304 -4 q 278 -12 288 -10 q 263 -14 269 -14 q 235 -10 247 -14 q 214 0 224 -6 q 197 17 204 8 q 188 36 190 26 q 185 40 186 39 q 185 44 185 42 q 183 48 183 46 q 183 51 183 50 q 181 56 182 54 q 181 60 181 57 q 181 63 181 61 q 181 67 181 65 q 181 72 181 69 q 181 78 181 75 q 181 81 181 79 q 183 85 182 83 q 184 87 183 86 q 185 89 185 88 q 185 90 185 89 q 185 93 185 92 q 185 94 185 93 q 186 96 186 94 q 187 97 186 96 q 188 99 188 97 q 188 99 188 99 q 189 101 188 100 q 189 102 189 101 q 189 104 189 103 q 190 105 189 104 q 190 107 190 106 q 191 108 190 107 q 192 110 192 108 l 322 514 q 331 540 325 525 q 342 574 336 556 q 355 612 349 593 q 368 650 361 631 q 388 697 378 674 q 410 742 397 719 q 433 779 421 763 q 458 806 446 796 q 472 817 465 811 q 489 829 479 824 q 503 838 496 833 q 517 846 510 842 q 524 851 519 849 q 531 854 528 853 q 534 856 532 856 q 538 858 536 857 q 544 863 540 861 q 551 867 547 865 q 555 869 553 868 q 558 871 557 869 q 565 876 561 874 q 572 879 568 878 q 585 885 579 882 q 597 892 590 889 q 609 898 603 894 q 621 904 615 901 q 644 915 633 911 q 664 924 654 919 q 695 935 679 931 q 726 940 711 939 q 760 944 742 943 q 796 944 778 944 q 805 944 800 944 q 814 944 810 944 q 833 943 824 943 q 850 942 842 943 q 876 940 863 940 q 904 936 890 939 l 817 864 q 808 865 813 865 q 797 867 803 865 q 793 867 796 867 q 788 868 790 867 q 774 869 781 868 q 758 871 767 869 q 728 874 743 874 q 700 875 714 875 q 640 868 664 875 q 604 846 617 861 q 582 815 592 832 q 564 778 572 797 q 563 777 564 778 q 563 775 563 776 q 560 774 561 775 q 560 772 560 774 q 560 770 560 771 q 560 769 560 769 q 560 767 560 768 q 560 765 560 767 q 559 765 560 765 q 558 764 558 764 q 556 763 557 763 q 556 761 556 763 q 556 759 556 760 q 556 758 556 758 l 442 456 l 406 350 q 403 342 404 346 q 401 333 401 338 q 399 325 400 329 q 396 317 397 321 q 392 308 394 313 q 389 299 390 304 q 384 290 386 294 q 381 279 382 285 q 380 276 381 278 q 378 271 379 274 q 376 267 376 269 q 375 263 375 265 q 372 254 374 258 q 371 246 371 250 q 361 217 365 232 q 354 188 357 203 q 349 162 351 174 q 347 140 347 150 q 347 138 347 139 q 347 136 347 136 q 347 133 347 135 q 347 131 347 132 q 348 127 347 129 q 350 122 349 125 q 353 110 350 117 q 358 99 356 104 q 369 91 361 93 q 388 89 376 89 q 408 92 394 89 q 439 101 421 96 q 476 115 457 108 q 513 129 494 121 q 515 129 514 129 q 518 131 517 129 q 519 131 518 131 q 522 132 521 132 q 528 135 525 133 q 533 138 531 136 q 549 144 542 140 q 564 151 557 147 q 579 158 572 154 q 593 164 586 161 q 619 175 608 171 q 638 182 629 179 l 638 183 l 638 183 z "},"m":{"ha":1292,"x_min":168,"x_max":1443,"o":"m 196 -12 l 300 275 q 303 285 301 279 q 308 299 306 290 q 315 314 311 306 q 321 332 318 322 q 322 337 321 335 q 325 340 324 339 q 326 346 325 343 q 329 351 328 349 q 335 374 332 363 q 342 396 339 386 q 346 415 344 407 q 347 429 347 424 q 346 440 347 435 q 342 449 344 444 q 333 455 339 453 q 317 457 326 457 q 299 456 308 457 q 281 451 290 454 q 262 447 271 450 q 243 440 253 443 q 238 438 240 439 q 233 438 235 438 q 228 435 231 436 q 225 435 226 435 q 208 429 215 432 q 193 424 200 426 q 180 419 186 421 q 168 415 174 417 l 176 456 l 246 483 l 329 514 q 339 517 332 515 q 356 524 346 519 q 375 531 365 526 q 396 539 385 535 q 399 541 397 540 q 404 543 401 542 q 410 544 407 543 q 417 547 414 546 q 429 551 424 550 q 440 556 435 553 q 452 559 446 557 q 464 563 458 561 q 485 567 475 565 q 500 569 494 569 q 513 568 507 569 q 522 564 518 567 q 528 558 525 563 q 531 549 531 554 q 531 545 531 547 q 531 542 531 543 q 529 538 529 539 q 529 533 529 536 q 527 528 528 531 q 526 524 526 525 q 524 518 525 521 q 522 513 524 515 q 522 512 522 513 q 522 511 522 511 q 521 510 521 510 q 521 510 521 510 q 521 508 521 508 q 521 507 521 507 q 518 499 519 503 q 517 490 517 494 q 514 483 515 486 q 513 478 513 481 l 489 415 l 713 507 l 792 538 q 799 540 794 538 q 808 543 803 542 q 818 548 813 546 q 829 551 824 550 q 832 551 831 551 q 835 553 833 551 q 836 553 835 553 q 839 554 838 554 q 845 556 842 556 q 851 558 849 557 q 865 563 858 561 q 876 567 871 565 q 890 569 883 568 q 901 569 896 569 q 913 569 908 569 q 922 565 918 568 q 928 560 925 564 q 931 553 931 557 q 931 549 931 551 q 931 546 931 547 q 929 542 929 543 q 929 538 929 540 q 927 533 928 536 q 926 529 926 531 q 924 524 925 526 q 922 519 924 522 q 922 519 922 519 q 922 518 922 518 q 921 517 921 517 q 921 517 921 517 q 921 515 921 515 q 921 513 921 514 q 919 509 919 511 q 918 506 918 507 q 917 501 917 503 q 917 497 917 500 q 914 491 915 493 q 913 486 913 489 l 892 428 l 926 442 q 953 451 936 444 q 992 465 969 457 q 1038 484 1014 474 q 1089 504 1063 494 q 1095 506 1092 506 q 1101 508 1099 507 q 1105 509 1103 508 q 1110 511 1107 510 q 1113 512 1111 511 q 1117 514 1115 513 q 1174 535 1146 525 q 1231 554 1203 546 q 1277 567 1258 563 q 1308 572 1296 572 q 1322 571 1315 572 q 1333 567 1328 569 q 1340 561 1338 565 q 1343 550 1343 557 q 1340 532 1343 543 q 1333 506 1338 521 q 1330 496 1332 501 q 1326 486 1328 490 q 1320 465 1324 475 q 1313 444 1317 456 q 1310 439 1311 442 q 1308 433 1308 436 q 1306 428 1307 431 q 1304 422 1304 425 q 1293 398 1299 410 q 1283 375 1288 386 q 1274 357 1278 365 q 1268 342 1271 349 q 1265 335 1267 339 q 1261 328 1263 332 q 1258 319 1260 324 q 1254 310 1256 314 q 1251 299 1253 304 q 1247 290 1249 294 q 1242 280 1244 285 q 1239 269 1240 275 q 1238 267 1239 268 q 1238 264 1238 265 q 1235 260 1236 263 q 1235 256 1235 258 q 1234 253 1235 254 q 1233 250 1233 251 q 1231 247 1232 249 q 1231 242 1231 244 q 1219 212 1225 226 q 1210 182 1213 197 q 1206 157 1207 168 q 1204 138 1204 146 q 1204 135 1204 136 q 1204 132 1204 133 q 1204 130 1204 131 q 1204 129 1204 129 q 1205 127 1204 128 q 1206 125 1206 126 q 1208 115 1206 119 q 1214 106 1211 110 q 1224 99 1217 101 q 1242 97 1232 97 q 1262 99 1251 97 q 1285 106 1272 101 q 1312 115 1297 110 q 1342 126 1326 121 q 1344 127 1343 126 q 1347 129 1346 128 q 1349 130 1347 129 q 1351 131 1350 131 q 1358 133 1354 132 q 1364 136 1361 135 q 1375 141 1369 139 q 1386 146 1381 143 q 1397 150 1392 147 q 1408 154 1403 153 q 1427 163 1418 158 q 1443 169 1436 167 l 1443 139 q 1361 95 1403 117 q 1275 54 1319 74 q 1188 19 1232 36 q 1096 -12 1143 1 q 1072 -1 1082 -7 q 1056 13 1063 6 q 1047 28 1050 19 q 1043 49 1043 38 q 1044 65 1043 57 q 1047 83 1044 74 q 1053 103 1050 93 q 1058 122 1056 113 q 1060 133 1058 128 q 1064 143 1061 138 q 1065 147 1065 144 q 1067 150 1065 149 q 1069 158 1068 154 q 1072 165 1071 161 q 1073 170 1072 168 q 1074 175 1074 172 q 1076 179 1075 176 q 1079 183 1078 182 q 1080 188 1079 186 q 1082 193 1081 190 q 1084 197 1083 194 q 1085 201 1085 200 q 1091 218 1088 208 q 1100 239 1094 228 q 1107 263 1103 250 q 1117 289 1111 275 q 1117 292 1117 290 q 1119 296 1118 293 q 1122 299 1121 297 q 1122 301 1122 300 q 1123 306 1122 304 q 1125 310 1124 308 q 1126 313 1125 311 q 1126 315 1126 314 q 1138 349 1133 332 q 1147 382 1143 365 q 1153 411 1150 399 q 1156 433 1156 424 q 1156 436 1156 435 q 1156 439 1156 438 q 1156 442 1156 440 q 1156 446 1156 444 q 1152 452 1154 449 q 1147 460 1150 456 q 1140 465 1144 463 q 1129 467 1136 467 q 1107 464 1119 467 q 1076 454 1094 461 q 1039 441 1058 449 q 1000 425 1019 433 q 997 423 999 424 q 994 422 996 422 q 992 420 993 421 q 989 419 990 419 q 986 419 988 419 q 985 418 985 418 q 982 417 983 417 q 979 417 981 417 q 946 403 961 410 q 917 390 931 397 q 892 379 903 385 q 875 371 882 374 l 747 24 l 592 -12 l 676 194 l 708 285 q 709 288 708 286 q 711 292 710 290 q 713 297 713 294 q 714 301 714 299 q 715 305 715 303 q 717 308 715 307 q 719 316 718 313 q 722 324 721 319 q 723 328 722 326 q 725 333 724 331 q 726 336 725 335 q 726 339 726 338 q 728 342 728 340 q 729 344 728 343 q 729 347 729 346 q 731 349 729 347 q 732 353 731 350 q 735 357 733 356 q 736 363 736 360 q 738 368 736 365 q 738 371 738 369 q 739 375 738 372 q 740 383 739 379 q 743 392 742 388 q 747 408 746 400 q 747 425 747 417 q 747 428 747 426 q 747 431 747 429 q 747 431 747 431 q 747 433 747 432 q 746 434 746 433 q 746 436 746 435 q 745 438 746 438 q 743 440 744 439 q 741 445 742 443 q 738 449 740 447 q 731 453 735 451 q 722 456 728 456 q 703 453 715 456 q 672 443 690 450 q 635 430 654 438 q 596 415 615 422 q 593 413 594 414 q 590 413 592 413 q 588 410 589 411 q 585 410 586 410 q 578 408 582 408 q 572 406 575 407 q 542 392 557 399 q 514 379 526 386 q 490 369 500 374 q 472 361 479 364 l 343 24 l 196 -12 l 196 -12 l 196 -12 z "},"n":{"ha":958,"x_min":168,"x_max":1083,"o":"m 192 -14 l 258 157 q 265 177 261 165 q 275 204 269 189 q 288 235 282 219 q 300 269 294 251 q 301 276 300 272 q 304 282 303 279 q 305 285 304 283 q 307 289 306 286 q 309 292 308 290 q 310 296 310 294 q 323 339 317 318 q 335 379 329 360 q 344 415 342 399 q 347 440 347 431 q 347 440 347 440 q 347 442 347 440 q 347 442 347 442 q 347 442 347 442 q 347 442 347 442 q 347 443 347 442 q 347 443 347 443 q 347 443 347 443 q 346 449 347 446 q 342 456 344 453 q 335 460 339 458 q 325 461 332 461 q 313 460 319 461 q 297 457 306 460 q 286 454 292 456 q 275 451 281 453 q 269 451 272 451 q 264 449 267 450 q 261 448 263 449 q 258 446 260 447 q 257 446 257 446 q 256 446 257 446 q 253 445 254 446 q 250 443 251 444 q 249 443 249 443 q 247 443 249 443 q 234 440 240 442 q 221 435 228 438 q 210 432 215 433 q 201 429 204 431 l 168 419 l 175 456 q 199 463 185 458 q 233 476 213 468 q 274 492 253 483 q 318 508 296 500 q 320 508 319 508 q 322 510 321 508 q 323 510 322 510 q 325 511 324 511 q 328 512 326 511 q 333 514 331 513 q 387 533 361 525 q 438 550 413 542 q 478 563 463 558 q 500 567 494 567 q 508 566 504 567 q 514 564 511 565 q 517 563 515 563 q 521 561 519 563 q 526 556 524 560 q 529 549 529 553 q 528 544 529 547 q 526 539 528 542 q 526 535 526 538 q 525 532 525 533 q 523 526 524 529 q 522 521 522 524 q 520 514 521 517 q 518 508 519 511 q 518 506 518 507 q 518 506 518 506 q 517 503 517 504 q 517 503 517 503 q 517 501 517 501 q 517 499 517 500 q 512 489 514 493 q 508 481 510 485 q 506 474 507 476 q 504 468 504 471 l 483 410 l 746 517 q 756 520 750 518 q 772 526 763 522 q 790 533 781 529 q 808 540 799 536 q 815 542 811 540 q 821 544 818 543 q 827 547 824 546 q 833 549 831 547 q 844 553 839 551 q 856 556 850 554 q 865 560 860 558 q 876 563 871 561 q 897 567 888 565 q 914 569 907 569 q 930 568 922 569 q 943 564 938 567 q 953 558 950 563 q 956 546 956 553 q 956 543 956 544 q 956 540 956 542 q 954 538 954 539 q 954 535 954 536 q 953 532 954 533 q 953 529 953 531 q 952 526 953 528 q 951 524 951 525 q 950 521 950 522 q 950 518 950 519 q 949 517 950 518 q 949 517 949 517 q 948 515 949 515 q 947 514 947 514 q 947 512 947 513 q 946 510 946 511 q 944 507 944 508 q 943 504 943 506 q 943 502 943 503 q 943 500 943 501 q 942 498 942 499 q 942 496 942 497 l 875 321 q 872 315 874 318 q 869 307 871 311 q 867 301 868 304 q 864 293 865 297 q 858 278 861 286 q 854 263 856 271 q 851 258 853 261 q 849 254 850 256 q 847 249 849 251 q 846 244 846 247 q 844 240 844 243 q 843 236 843 238 q 842 231 842 233 q 842 226 842 229 q 833 200 836 213 q 826 175 829 188 q 822 152 824 163 q 821 133 821 142 q 821 131 821 132 q 821 131 821 131 q 821 128 821 129 q 821 126 821 128 q 821 123 821 125 q 822 118 821 121 q 825 110 822 114 q 831 101 828 106 q 839 96 833 97 q 854 94 844 94 q 867 96 861 94 q 883 99 874 97 q 902 104 893 101 q 921 111 911 107 q 924 112 922 111 q 926 114 925 113 q 928 115 926 114 q 931 115 929 115 q 933 116 932 115 q 936 118 935 117 q 939 119 938 118 q 942 119 940 119 q 947 122 944 121 q 951 122 949 122 q 962 127 957 125 q 971 131 967 129 q 976 133 974 132 q 982 136 979 135 q 983 136 982 136 q 985 138 985 136 q 988 139 986 138 q 992 140 990 140 l 1083 179 l 1071 139 q 978 94 1025 117 q 885 50 932 71 q 788 12 838 29 q 689 -21 739 -6 q 686 -18 688 -19 q 685 -17 685 -17 q 683 -15 683 -15 q 683 -14 683 -15 q 682 -13 682 -14 q 681 -11 682 -12 q 678 -8 679 -10 q 675 -6 676 -7 q 674 -5 674 -6 q 672 -3 674 -4 q 665 7 668 1 q 660 18 663 13 q 656 31 657 25 q 656 44 656 38 q 658 62 656 51 q 663 85 660 72 q 669 110 665 97 q 679 138 674 124 q 679 144 679 140 q 681 150 679 147 q 681 153 681 151 q 683 157 682 156 q 684 159 683 158 q 685 161 685 160 q 688 172 686 167 q 693 181 690 176 q 697 191 694 186 q 700 200 699 196 q 703 208 701 204 q 706 217 704 213 q 707 224 706 221 q 710 231 708 228 l 742 325 q 743 332 742 328 q 747 342 744 336 q 749 345 749 343 q 750 349 749 347 q 753 356 751 353 q 756 364 754 360 q 756 367 756 365 q 757 369 757 368 q 758 371 757 369 q 758 374 758 372 q 758 376 758 375 q 760 379 758 378 q 760 381 760 379 q 763 383 761 382 q 766 400 764 392 q 771 417 768 408 q 772 422 771 419 q 772 426 772 424 q 774 435 774 431 q 775 444 775 440 q 773 451 775 447 q 768 457 771 454 q 762 462 765 460 q 751 464 758 464 q 730 460 744 464 q 693 449 715 456 q 649 432 671 440 q 606 413 628 424 q 603 412 604 413 q 600 410 601 411 q 599 410 599 410 q 597 410 599 410 q 594 408 596 410 q 592 407 593 407 q 590 406 590 407 q 589 406 590 406 q 551 389 569 397 q 514 374 532 381 q 485 361 497 367 q 464 353 472 356 l 346 25 l 192 -14 l 192 -14 l 192 -14 z "},"o":{"ha":833,"x_min":181,"x_max":935,"o":"m 735 571 q 815 560 779 569 q 879 535 851 551 q 921 493 907 517 q 935 439 935 469 q 932 408 935 425 q 926 375 929 392 q 917 340 922 357 q 904 306 911 322 q 881 256 894 281 q 851 208 867 232 q 819 165 836 185 q 783 129 803 144 q 776 124 781 126 q 768 118 772 121 q 759 111 764 114 q 750 106 754 108 q 729 94 740 100 q 706 82 718 88 q 671 64 689 72 q 633 47 653 56 q 613 39 624 43 q 593 32 603 35 q 572 24 582 28 q 551 18 563 21 q 501 4 526 10 q 451 -7 476 -1 q 406 -14 426 -11 q 368 -17 386 -17 q 285 -7 321 -17 q 226 24 249 3 q 192 69 204 44 q 181 125 181 94 q 183 153 181 139 q 188 182 185 168 q 194 213 190 197 q 204 243 199 228 q 226 294 214 269 q 256 344 239 319 q 294 389 274 368 q 338 428 314 410 q 353 439 344 433 q 371 450 361 444 q 391 462 381 456 q 414 474 401 468 q 431 482 422 478 q 447 490 439 486 q 465 497 456 493 q 483 506 474 501 q 522 520 503 513 q 563 535 542 528 q 608 548 585 542 q 654 560 631 554 q 697 567 676 564 q 735 569 717 569 l 735 571 l 735 571 m 633 510 q 578 501 606 508 q 526 481 551 494 q 481 451 501 467 q 443 419 461 436 q 440 416 442 418 q 438 413 439 414 q 432 406 435 410 q 426 400 429 403 q 419 390 422 394 q 413 382 415 386 q 390 351 400 368 q 372 318 381 335 q 364 301 368 310 q 357 285 360 293 q 351 267 354 275 q 347 250 349 258 q 344 242 346 246 q 343 233 343 238 q 342 224 342 228 q 342 215 342 219 q 340 199 340 207 q 339 182 339 190 q 339 178 339 181 q 339 174 339 175 q 339 169 339 171 q 339 164 339 167 q 340 158 339 161 q 342 153 340 156 q 342 150 342 151 q 343 147 343 149 q 357 111 346 129 q 383 78 368 93 q 422 55 399 63 q 481 47 446 47 q 564 62 525 47 q 635 106 603 76 q 692 167 667 135 q 735 233 717 199 q 743 252 739 243 q 751 271 747 261 q 757 288 754 279 q 763 307 760 297 q 769 340 767 325 q 772 369 772 356 q 772 374 772 372 q 772 379 772 376 q 771 383 771 381 q 771 389 771 386 q 770 394 771 392 q 769 399 769 396 q 769 404 769 401 q 768 410 768 407 q 752 444 763 428 q 726 476 742 461 q 688 500 711 492 q 633 508 665 508 l 633 510 l 633 510 z "},"p":{"ha":917,"x_min":-17,"x_max":1004,"o":"m 33 -307 l 121 -301 l 238 18 l 297 199 q 303 214 300 206 q 308 232 306 222 q 312 242 310 238 q 315 253 314 247 q 319 265 317 258 q 322 276 321 271 q 323 280 322 278 q 325 283 324 282 q 326 285 325 285 q 326 288 326 286 q 327 292 326 290 q 329 296 328 294 q 330 298 329 297 q 331 300 331 299 q 334 315 332 307 q 339 329 336 322 q 342 344 340 336 q 346 358 344 351 q 351 385 349 374 q 354 406 354 396 q 354 408 354 407 q 354 411 354 410 q 354 413 354 413 q 354 415 354 414 q 354 416 354 415 q 354 418 354 417 q 349 428 353 424 q 343 439 346 433 q 331 446 339 443 q 314 449 324 449 q 298 447 307 449 q 279 443 289 446 q 266 440 274 442 q 251 436 258 438 q 245 434 249 435 q 238 432 242 433 q 235 430 236 431 q 233 429 233 429 q 231 429 232 429 q 229 429 229 429 q 210 424 219 426 q 193 418 201 421 q 177 415 183 417 q 164 411 171 413 l 172 449 l 254 481 l 346 514 q 356 516 349 514 q 372 522 363 518 q 394 531 382 526 q 418 540 406 535 q 419 540 418 540 q 421 540 419 540 q 422 541 421 540 q 422 542 422 542 q 424 542 424 542 q 425 542 424 542 q 428 544 426 543 q 431 544 429 544 q 444 549 438 547 q 456 553 450 550 q 469 556 463 554 q 481 560 475 558 q 501 566 493 564 q 514 568 510 568 q 526 567 521 568 q 535 563 531 565 q 543 557 540 561 q 546 549 546 553 q 544 538 546 544 q 539 524 542 532 q 533 504 536 514 q 526 483 529 494 q 526 483 526 483 q 525 483 525 483 q 525 482 525 482 q 525 482 525 482 q 525 482 525 482 q 525 482 525 482 q 525 481 525 481 q 525 481 525 481 q 519 464 522 472 q 513 449 515 456 q 508 436 510 442 q 506 426 506 431 l 525 436 q 550 447 536 440 q 579 461 564 453 q 611 478 594 469 q 646 494 628 486 q 661 501 653 497 q 679 508 669 504 q 694 517 686 513 q 713 525 703 521 q 756 542 735 533 q 800 556 778 550 q 841 566 822 563 q 876 569 860 569 q 931 562 908 569 q 968 539 953 554 q 991 508 983 525 q 1001 474 999 492 q 1002 472 1001 472 q 1003 469 1003 471 q 1003 467 1003 468 q 1004 465 1004 467 q 1004 462 1004 464 q 1004 457 1004 460 q 999 401 1004 429 q 983 346 993 374 q 961 291 974 318 q 933 238 949 264 q 928 230 931 233 q 925 224 926 226 q 923 221 924 222 q 922 218 922 219 q 920 215 921 217 q 918 213 919 214 q 910 199 914 206 q 901 188 906 193 q 892 176 897 182 q 883 165 888 171 q 863 145 874 156 q 838 125 851 135 q 826 117 832 121 q 813 108 819 113 q 804 104 808 107 q 797 100 800 101 q 789 95 793 97 q 781 90 785 93 q 778 89 779 90 q 775 88 776 88 q 773 86 774 86 q 772 86 772 86 q 767 83 769 85 q 764 81 765 82 q 761 79 763 81 q 758 78 760 78 q 756 76 757 76 q 756 76 756 76 q 751 74 753 75 q 747 71 749 72 q 690 41 719 56 q 629 14 661 26 q 564 -3 599 3 q 489 -10 529 -10 q 481 -10 485 -10 q 474 -10 478 -10 q 466 -8 469 -8 q 458 -8 463 -8 q 443 -8 450 -8 q 429 -8 436 -8 q 421 -8 425 -8 q 414 -7 417 -7 q 406 -6 410 -6 q 397 -6 401 -6 q 392 -5 394 -6 q 388 -4 390 -4 q 377 -3 382 -4 q 368 -1 372 -3 l 271 -300 l 506 -310 l 442 -344 l 326 -344 l -17 -340 l 33 -307 l 33 -307 l 33 -307 m 510 383 l 489 374 l 400 93 q 419 83 410 88 q 442 75 429 78 q 467 68 454 71 q 493 63 479 65 q 499 62 496 63 q 504 60 501 61 q 515 59 510 60 q 526 58 521 58 q 535 58 531 58 q 543 57 539 57 q 550 57 546 57 q 558 57 554 57 q 630 66 597 57 q 688 93 663 75 q 733 131 713 111 q 768 172 753 150 q 770 174 769 174 q 772 176 771 175 q 773 178 772 178 q 775 181 774 179 q 776 183 775 182 q 778 185 776 183 q 780 187 779 186 q 781 189 781 188 q 781 190 781 189 q 782 192 782 190 q 783 192 782 192 q 783 193 783 193 q 785 196 783 194 q 788 199 786 197 q 801 222 794 210 q 813 247 807 233 q 826 274 819 260 q 838 301 832 288 q 840 313 839 307 q 843 324 842 318 q 844 335 843 329 q 847 346 846 340 q 852 367 850 357 q 854 388 854 378 q 853 391 854 389 q 853 394 853 393 q 852 399 853 397 q 851 403 851 401 q 851 408 851 406 q 851 411 851 410 q 850 416 850 414 q 850 419 850 418 q 842 440 847 431 q 829 458 836 449 q 808 472 821 467 q 779 476 796 476 q 752 474 767 476 q 722 468 738 472 q 706 464 714 467 q 690 458 699 461 q 674 453 682 456 q 658 447 667 450 q 650 444 654 446 q 643 442 646 443 q 635 438 639 439 q 626 435 631 436 q 610 428 617 432 q 596 422 603 425 q 571 411 583 417 q 547 400 558 406 q 528 390 538 394 q 510 382 518 386 l 510 383 l 510 383 z "},"q":{"ha":833,"x_min":181,"x_max":1010,"o":"m 1010 556 l 914 494 l 868 371 l 647 -304 l 851 -311 l 789 -344 l 663 -347 l 288 -343 l 346 -310 l 500 -300 l 592 -49 l 656 138 l 625 124 q 601 111 615 118 q 567 94 586 104 q 524 74 546 85 q 476 53 501 64 q 474 52 475 53 q 472 51 472 51 q 469 49 471 50 q 467 49 468 49 q 460 46 464 47 q 454 43 457 44 q 401 19 426 31 q 350 0 375 8 q 309 -12 325 -7 q 283 -17 293 -17 q 266 -15 274 -17 q 251 -10 258 -12 q 240 -3 246 -6 q 229 3 233 0 q 228 3 229 3 q 228 4 228 3 q 227 5 228 4 q 226 6 226 6 q 226 6 226 6 q 225 6 225 6 q 223 8 224 7 q 222 8 222 8 q 202 28 210 18 q 189 51 194 39 q 183 76 185 64 q 181 103 181 89 q 183 134 181 117 q 192 172 186 151 q 202 215 196 193 q 218 258 208 236 q 240 311 228 286 q 268 361 253 336 q 299 403 283 385 q 331 435 314 422 q 342 443 336 439 q 358 453 349 447 q 374 463 365 458 q 393 474 383 468 q 406 480 400 476 q 418 486 413 483 q 431 492 425 489 q 446 500 438 496 q 458 506 453 503 q 469 511 464 508 q 481 517 475 514 q 493 522 488 519 q 517 532 506 528 q 538 540 528 536 q 567 551 551 547 q 601 558 583 556 q 613 560 607 560 q 625 561 619 561 q 648 564 636 563 q 672 567 660 565 q 680 567 676 567 q 688 567 683 567 q 691 567 689 567 q 694 568 693 567 q 706 568 700 568 q 718 568 713 568 q 729 568 724 568 q 740 569 735 568 q 751 569 746 569 q 763 569 757 569 l 818 571 l 964 667 l 981 663 l 938 567 l 1010 556 l 1010 556 l 1010 556 m 668 189 l 768 486 l 647 493 q 549 487 590 492 q 483 472 508 482 q 438 440 458 463 q 400 381 417 417 q 385 351 392 367 q 371 319 378 335 q 365 303 368 311 q 358 288 361 294 q 353 271 356 279 q 347 254 350 263 q 342 230 344 242 q 338 207 339 218 q 334 183 335 194 q 333 161 333 172 q 333 158 333 160 q 333 154 333 156 q 333 150 333 151 q 333 146 333 149 q 333 142 333 144 q 335 139 333 140 q 335 135 335 136 q 338 131 336 133 q 345 113 340 121 q 358 96 350 104 q 377 84 365 88 q 404 81 389 81 q 426 84 411 81 q 458 94 440 88 q 497 110 478 101 q 538 129 515 119 q 541 130 539 129 q 546 132 543 131 q 549 134 547 133 q 554 136 551 135 q 565 141 560 139 q 576 146 571 143 q 599 156 588 150 q 621 165 611 161 q 647 178 636 172 q 668 188 658 183 l 668 189 l 668 189 z "},"r":{"ha":625,"x_min":168,"x_max":851,"o":"m 197 -14 l 310 274 q 315 283 313 278 q 321 296 318 289 q 324 302 322 299 q 326 310 325 306 q 328 318 326 314 q 331 326 329 322 q 333 329 332 328 q 335 333 333 331 q 335 336 335 335 q 338 339 336 338 q 339 345 338 342 q 342 353 340 349 q 345 365 343 360 q 349 376 347 371 q 352 389 350 383 q 356 400 354 394 q 360 420 358 411 q 363 436 363 429 q 360 448 363 443 q 354 457 357 453 q 341 463 349 461 q 322 465 333 465 q 307 465 315 465 q 289 461 299 464 q 280 458 285 460 q 269 457 275 457 q 259 454 264 456 q 250 451 254 453 q 244 449 247 450 q 238 446 240 447 q 231 444 235 444 q 225 443 228 443 q 208 438 215 440 q 193 432 200 435 q 180 428 186 431 q 168 425 174 426 l 172 461 q 194 469 181 464 q 229 481 208 474 q 270 496 249 488 q 317 513 292 504 q 319 513 318 513 q 322 514 321 513 q 324 515 322 514 q 326 515 325 515 q 333 517 329 517 q 339 519 336 518 q 394 538 367 529 q 447 554 422 546 q 488 565 472 561 q 513 569 504 569 q 517 569 515 569 q 522 568 519 569 q 526 567 524 568 q 531 565 529 567 q 536 560 533 564 q 539 553 539 557 q 538 544 539 549 q 535 533 538 540 q 532 525 533 529 q 529 517 531 521 q 528 513 528 515 q 526 508 528 511 q 526 508 526 508 q 526 508 526 508 q 526 507 526 507 q 526 507 526 507 q 526 506 526 507 q 526 506 526 506 q 525 506 525 506 q 525 506 525 506 q 520 494 522 500 q 517 483 518 489 q 514 474 515 478 q 513 467 513 469 l 596 507 q 602 509 599 507 q 608 513 606 511 q 612 515 610 514 q 615 517 614 515 q 619 517 617 517 q 622 519 621 518 q 656 535 638 528 q 693 550 675 543 q 733 561 713 557 q 775 565 753 565 q 780 565 778 565 q 785 565 782 565 q 789 564 786 564 q 793 564 792 564 q 797 564 794 564 q 800 564 799 564 q 801 564 800 564 q 803 564 803 564 q 808 563 806 563 q 814 563 811 563 q 822 560 817 561 q 833 558 828 558 q 838 558 836 558 q 843 557 840 557 q 847 555 844 556 q 851 554 850 554 l 792 425 q 767 442 779 435 q 742 456 754 450 q 712 464 729 461 q 675 467 694 467 q 629 463 651 467 q 585 453 607 460 q 543 438 563 446 q 506 421 524 429 l 356 26 l 197 -14 l 197 -14 l 197 -14 z "},"s":{"ha":667,"x_min":85,"x_max":785,"o":"m 88 114 l 233 175 l 231 154 q 231 149 231 151 q 231 144 231 147 q 231 141 231 143 q 233 136 232 139 q 243 101 235 118 q 267 69 251 85 q 304 48 281 56 q 358 40 328 40 q 363 40 360 40 q 368 40 365 40 q 371 40 369 40 q 374 40 372 40 q 376 41 375 40 q 379 42 378 42 q 433 53 407 44 q 481 78 458 63 q 517 111 504 93 q 529 147 529 129 q 522 174 529 163 q 501 194 514 185 q 472 213 488 204 q 438 232 457 222 q 431 235 435 233 q 425 238 428 236 q 419 240 422 239 q 414 243 417 242 q 372 265 392 254 q 333 289 353 276 q 306 319 315 301 q 297 358 297 336 q 298 367 297 363 q 300 375 299 371 q 300 380 300 378 q 301 385 300 382 q 303 389 301 386 q 306 393 304 392 q 337 440 315 417 q 392 485 358 463 q 460 524 424 507 q 533 551 496 540 q 560 559 546 556 q 588 564 574 563 q 601 566 594 565 q 614 567 607 567 q 626 568 619 568 q 639 568 633 568 q 682 565 661 568 q 721 556 703 563 q 756 541 740 550 q 785 521 771 532 q 765 501 775 511 q 742 482 754 490 q 729 474 736 478 q 715 465 722 469 q 702 457 708 461 q 689 449 696 453 q 661 470 676 460 q 631 489 646 481 q 594 501 614 497 q 551 506 574 506 q 501 499 524 506 q 460 478 479 492 q 432 449 442 464 q 422 415 422 433 q 431 383 422 397 q 458 357 440 368 q 494 338 475 347 q 535 319 513 328 q 535 319 535 319 q 536 319 536 319 q 537 318 536 318 q 538 318 538 318 q 538 318 538 318 q 539 318 538 318 q 540 317 539 317 q 542 317 540 317 q 584 299 564 308 q 622 278 604 289 q 651 251 642 267 q 660 214 660 235 q 634 136 660 172 q 558 68 608 100 q 453 18 508 38 q 338 -11 397 -1 q 314 -13 325 -12 q 292 -15 303 -14 q 268 -17 279 -17 q 246 -18 257 -18 q 178 -11 208 -18 q 126 8 149 -4 q 94 42 104 22 q 85 86 85 61 l 88 114 l 88 114 l 88 114 z "},"t":{"ha":667,"x_min":200,"x_max":817,"o":"m 739 186 l 739 153 l 613 89 l 531 44 q 519 37 525 40 q 506 31 513 33 q 492 23 500 26 q 476 17 485 19 q 472 15 475 15 q 468 13 469 14 q 463 10 465 11 q 458 8 461 10 q 449 5 453 7 q 442 0 444 3 q 423 -5 432 -1 q 404 -10 414 -8 q 386 -14 394 -12 q 371 -15 378 -15 q 369 -15 369 -15 q 368 -15 368 -15 q 368 -15 368 -15 q 368 -15 368 -15 q 345 -11 356 -15 q 325 0 335 -7 q 309 18 315 8 q 300 38 303 28 q 294 48 297 43 q 292 58 292 53 q 290 69 290 64 q 289 78 289 74 q 289 78 289 78 q 289 78 289 78 q 289 78 289 78 q 289 79 289 78 q 289 79 289 79 q 289 79 289 79 q 289 79 289 79 q 289 79 289 79 q 289 79 289 79 q 289 81 289 79 q 289 81 289 81 q 289 81 289 81 q 290 101 289 90 q 293 124 290 111 q 299 147 296 135 q 308 171 303 158 q 308 176 308 174 q 310 181 308 178 q 310 185 310 182 q 313 189 311 188 q 313 194 313 192 q 315 199 314 196 q 317 203 317 200 q 318 207 318 206 q 321 215 319 211 q 324 222 322 218 q 326 229 325 225 q 329 238 328 233 q 332 245 331 242 q 335 251 333 249 q 336 259 335 256 q 339 265 338 263 l 396 429 l 200 431 l 289 475 l 321 476 l 410 481 l 468 649 l 518 663 l 635 699 l 606 635 l 546 476 l 817 476 l 738 433 l 633 429 l 533 429 l 479 267 q 477 261 478 264 q 476 257 476 258 q 474 251 475 254 q 472 246 474 249 q 469 239 471 243 q 467 232 468 235 q 465 228 465 229 q 464 224 465 226 q 464 222 464 222 q 464 221 464 221 q 463 219 463 219 q 463 217 463 218 q 462 215 463 215 q 461 214 461 214 q 460 212 461 213 q 460 210 460 211 q 457 199 458 204 q 454 189 456 194 q 453 184 453 186 q 451 179 453 182 q 448 166 449 172 q 447 156 447 160 q 447 153 447 154 q 447 153 447 153 q 447 151 447 151 q 447 150 447 150 q 447 147 447 149 q 447 146 447 146 q 447 143 447 144 q 447 140 447 142 q 447 135 447 138 q 447 129 447 132 q 450 115 447 121 q 458 101 453 108 q 469 92 461 96 q 489 89 476 89 q 501 91 492 89 q 526 99 511 93 q 558 110 542 104 q 592 122 574 117 q 592 122 592 122 q 593 124 592 122 q 594 124 593 124 q 596 124 594 124 q 599 124 597 124 q 604 126 601 125 q 617 131 611 129 q 628 136 622 133 q 631 137 629 136 q 635 139 633 138 q 642 142 639 140 q 650 144 646 143 q 670 153 661 149 q 685 160 679 157 l 739 186 l 739 186 l 739 186 z "},"u":{"ha":958,"x_min":171,"x_max":1079,"o":"m 979 578 l 888 360 q 885 351 886 356 q 882 344 883 347 q 878 336 879 340 q 875 328 876 332 q 872 319 874 324 q 869 311 871 315 q 865 301 867 306 q 863 293 864 297 q 858 281 860 288 q 854 268 856 275 q 851 263 853 265 q 849 257 850 260 q 847 250 849 253 q 846 244 846 247 q 836 213 840 228 q 829 183 832 199 q 824 156 826 169 q 822 132 822 143 q 822 129 822 131 q 822 128 822 128 q 822 125 822 126 q 822 122 822 124 q 822 119 822 121 q 822 118 822 118 q 823 115 822 117 q 825 113 824 114 q 826 104 825 108 q 831 96 828 100 q 839 90 833 92 q 850 89 844 89 q 867 91 857 89 q 892 99 876 93 q 921 109 906 103 q 954 122 936 115 q 955 122 954 122 q 957 124 956 122 q 959 124 958 124 q 960 125 960 125 q 961 125 961 125 q 963 125 961 125 q 965 127 964 126 q 968 128 967 128 q 997 140 983 135 q 1022 150 1010 144 q 1044 160 1035 156 q 1058 165 1053 164 l 1079 176 l 1068 136 q 1043 123 1058 131 q 1006 104 1028 115 q 983 94 994 99 q 961 85 972 89 q 939 74 950 79 q 917 64 928 69 q 907 60 911 63 q 900 56 903 58 q 895 53 897 54 q 890 53 893 53 q 885 51 888 51 q 881 49 883 50 q 824 25 851 36 q 768 4 796 14 q 723 -8 742 -3 q 693 -12 704 -12 q 677 -10 683 -12 q 664 -4 671 -8 q 656 4 658 0 q 654 14 654 8 q 654 25 654 19 q 656 36 654 31 q 656 44 656 40 q 658 53 657 49 q 659 58 658 56 q 660 61 660 60 q 660 63 660 63 q 661 65 661 64 q 662 66 661 65 q 663 68 663 67 q 663 70 663 69 q 664 72 663 71 q 664 74 664 74 q 664 76 664 75 l 676 132 l 489 51 q 476 44 483 49 q 458 36 468 40 q 449 32 454 35 q 438 28 443 29 q 426 23 432 25 q 414 18 421 21 q 411 16 413 17 q 410 15 410 15 q 407 13 408 14 q 404 13 406 13 q 398 10 401 11 q 392 8 394 10 q 373 3 382 6 q 354 -1 364 0 q 346 -4 350 -3 q 338 -7 342 -6 q 315 -13 325 -11 q 297 -15 304 -15 q 272 -12 282 -15 q 254 -1 261 -8 q 243 12 249 4 q 235 29 238 19 q 235 32 235 31 q 235 36 235 33 q 233 40 233 38 q 233 43 233 42 q 233 51 233 47 q 233 57 233 54 q 233 63 233 60 q 233 71 233 67 q 234 77 233 74 q 235 83 235 81 q 235 90 235 86 q 236 97 236 93 q 237 99 236 97 q 238 101 238 100 q 238 106 238 103 q 239 110 239 108 q 242 120 240 115 q 244 131 243 125 q 247 140 246 135 q 250 150 249 144 q 257 172 253 161 q 267 192 261 182 q 268 197 267 194 q 271 203 269 200 q 272 209 271 206 q 275 215 274 213 q 281 231 278 222 q 289 250 285 240 q 294 265 292 257 q 300 281 297 272 q 303 289 301 285 q 306 297 304 293 q 308 300 307 299 q 310 303 308 301 q 310 306 310 304 q 313 308 311 307 q 314 315 313 311 q 317 321 315 318 q 324 342 321 332 q 331 364 328 353 q 334 374 332 368 q 338 383 336 379 q 343 410 340 399 q 346 431 346 422 q 346 431 346 431 q 346 432 346 431 q 346 432 346 432 q 346 432 346 432 q 346 432 346 432 q 346 433 346 432 q 346 433 346 433 q 346 433 346 433 q 344 442 346 438 q 339 450 342 446 q 330 455 336 453 q 317 457 324 457 q 302 456 311 457 q 283 451 293 454 q 274 449 279 450 q 265 447 269 447 q 255 444 260 446 q 246 442 250 443 q 240 440 243 440 q 233 438 236 439 q 231 437 232 438 q 228 436 229 436 q 225 435 226 435 q 222 435 224 435 q 217 433 219 433 q 213 431 215 432 q 202 427 207 429 q 193 424 197 425 q 181 420 188 422 q 171 417 175 418 l 179 456 q 203 463 189 458 q 238 476 217 468 q 278 492 257 483 q 321 510 299 500 q 324 510 322 510 q 329 513 326 511 q 333 513 331 513 q 338 515 335 514 q 389 535 364 526 q 439 553 414 544 q 478 565 463 561 q 501 569 494 569 q 513 568 508 569 q 521 564 518 567 q 525 559 524 563 q 526 551 526 556 q 526 549 526 550 q 526 546 526 547 q 525 543 525 544 q 525 540 525 542 q 522 533 524 536 q 521 526 521 529 q 520 524 521 525 q 519 524 519 524 q 519 522 519 522 q 518 521 518 521 q 518 519 518 519 q 518 517 518 518 q 517 515 518 515 q 517 513 517 514 q 515 509 515 511 q 514 506 514 507 q 514 503 514 504 q 514 501 514 503 q 513 499 513 500 q 513 499 513 499 l 489 435 q 480 410 485 424 q 468 382 475 397 q 463 367 465 375 q 457 351 460 360 q 451 337 454 344 q 446 321 449 329 q 441 313 443 317 q 438 304 439 308 q 435 296 436 300 q 433 288 433 292 q 417 244 424 265 q 404 201 411 222 q 395 163 399 181 q 392 133 392 146 q 392 131 392 132 q 392 129 392 129 q 392 126 392 128 q 392 124 392 125 q 392 121 392 122 q 393 119 392 119 q 394 117 393 118 q 396 114 394 115 q 399 103 396 108 q 406 93 401 97 q 417 87 411 89 q 433 85 424 85 q 449 87 440 85 q 471 93 458 89 q 496 101 483 97 q 522 111 508 106 q 524 112 524 111 q 525 113 524 113 q 528 114 526 113 q 531 115 529 115 q 536 117 533 115 q 542 119 539 118 q 551 124 546 122 q 561 128 556 126 q 572 133 567 131 q 581 136 576 135 q 597 144 590 140 q 610 149 604 147 l 689 183 l 806 519 l 979 578 l 979 578 l 979 578 z "},"v":{"ha":917,"x_min":181,"x_max":1063,"o":"m 217 300 l 181 329 q 187 345 183 336 q 196 365 190 354 q 205 388 199 376 q 217 411 211 399 q 230 438 224 425 q 243 465 236 451 q 249 474 246 469 q 254 482 251 478 q 265 497 260 490 q 276 507 271 503 q 289 514 282 511 q 306 518 296 517 q 325 522 315 521 q 346 522 335 522 q 347 522 346 522 q 349 522 347 522 q 351 522 350 522 q 351 522 351 522 q 352 522 351 522 q 354 522 353 522 q 355 522 354 522 q 356 522 356 522 q 359 522 357 522 q 364 522 361 522 q 367 522 365 522 q 371 522 369 522 q 374 522 372 522 q 378 522 376 522 q 381 522 379 522 q 385 522 383 522 q 391 521 388 521 q 397 521 394 521 q 400 521 399 521 q 403 521 401 521 q 406 521 404 521 q 408 521 407 521 l 568 518 q 573 517 571 518 q 578 517 575 517 q 583 517 581 517 q 588 517 585 517 q 597 517 592 517 q 608 518 603 517 q 617 519 613 518 q 628 519 622 519 q 638 522 633 521 q 647 524 643 522 q 666 531 657 526 q 681 540 675 535 l 701 542 q 701 539 701 540 q 701 536 701 538 q 702 534 701 535 q 704 533 703 533 q 704 531 704 532 q 704 529 704 529 q 704 527 704 528 q 704 526 704 526 l 704 517 q 606 434 653 478 q 518 343 558 390 q 456 246 476 296 q 435 143 435 196 q 435 137 435 140 q 435 131 435 133 q 435 127 435 129 q 438 122 436 125 q 438 120 438 121 q 439 118 439 119 q 448 97 442 107 q 464 76 454 86 q 489 62 474 67 q 525 57 504 57 q 533 57 529 57 q 540 57 536 57 q 548 58 544 57 q 556 60 551 58 q 561 60 558 60 q 567 61 564 61 q 578 65 572 63 q 589 68 583 67 q 627 83 608 75 q 664 104 646 92 q 699 128 683 115 q 731 153 715 140 q 751 169 742 161 q 771 186 761 178 q 776 192 774 189 q 781 197 778 194 q 791 207 786 201 q 800 217 796 213 q 845 275 825 244 q 879 338 865 306 q 901 403 893 369 q 908 471 908 436 q 908 482 908 476 q 906 493 907 488 q 905 499 906 496 q 904 504 904 501 q 899 519 903 511 q 893 535 896 526 q 890 540 892 538 q 889 543 889 542 q 886 548 888 546 q 883 551 885 550 q 880 556 882 554 q 876 560 878 558 q 872 565 874 563 q 868 569 869 567 q 874 572 871 571 q 879 572 876 572 q 882 574 881 574 q 885 575 883 575 q 890 577 888 576 q 896 578 893 578 q 899 580 897 579 q 901 581 900 581 q 913 585 907 583 q 925 589 919 586 q 938 592 932 590 q 950 596 944 594 q 975 602 963 599 q 1001 607 988 606 q 1029 590 1017 599 q 1047 574 1042 582 q 1058 553 1054 564 q 1063 528 1063 542 q 1060 496 1063 513 q 1051 463 1057 479 q 1039 429 1046 446 q 1022 396 1032 413 q 997 354 1010 375 q 971 314 985 333 q 955 294 963 304 q 940 275 947 283 q 926 256 933 265 q 910 239 918 247 q 907 236 908 238 q 904 233 906 235 q 899 228 901 231 q 893 222 896 225 q 890 219 892 221 q 888 217 889 218 q 882 211 885 214 q 876 206 879 208 q 867 197 872 201 q 857 189 863 193 q 848 179 853 183 q 838 171 843 175 q 826 163 832 167 q 815 153 821 158 q 804 144 810 149 q 793 135 799 139 q 726 90 763 113 q 650 47 690 68 q 569 13 610 26 q 488 -8 528 0 q 466 -12 476 -11 q 446 -14 456 -12 q 424 -16 435 -15 q 404 -17 414 -17 q 356 -10 376 -17 q 322 6 335 -4 q 302 32 310 18 q 292 61 294 46 q 291 64 292 63 q 290 67 290 65 q 290 68 290 67 q 289 71 289 69 q 289 76 289 74 q 289 82 289 79 q 290 100 289 90 q 292 119 290 110 q 296 139 293 129 q 301 158 299 149 q 316 194 308 176 q 333 229 324 211 q 355 264 343 247 q 381 296 367 281 q 408 325 393 311 q 439 353 422 339 q 472 380 454 367 q 508 406 490 393 q 515 410 511 408 q 522 415 518 413 q 528 421 525 418 q 535 426 532 424 q 544 433 539 431 q 554 440 549 436 q 559 444 557 442 q 564 447 561 446 l 560 451 q 523 445 542 447 q 485 442 504 443 q 465 441 475 442 q 447 440 456 440 q 428 440 438 440 q 408 440 418 440 q 402 440 406 440 q 396 440 399 440 q 393 440 394 440 q 390 440 392 440 q 386 439 388 439 q 383 439 385 439 q 378 439 381 439 q 375 439 376 439 q 370 439 372 439 q 367 439 368 439 q 359 439 363 439 q 351 439 356 439 q 345 438 349 438 q 339 438 342 438 q 327 437 333 438 q 318 435 321 436 q 297 425 306 431 q 281 413 288 419 q 267 396 274 404 q 256 379 261 388 q 253 375 254 378 q 250 371 251 372 q 247 366 249 368 q 246 361 246 364 q 241 353 243 357 q 238 346 239 349 l 217 300 l 217 300 l 217 300 z "},"w":{"ha":1417,"x_min":181,"x_max":1576,"o":"m 217 289 l 181 324 q 189 340 183 331 q 200 360 194 349 q 210 383 204 371 q 225 408 217 396 q 231 419 228 414 q 238 431 235 425 q 244 440 240 435 q 250 451 247 446 q 263 472 257 463 q 276 489 269 481 q 278 491 278 490 q 279 492 278 492 q 279 493 279 493 q 281 494 279 493 q 282 496 281 494 q 285 499 283 497 q 288 501 286 500 q 290 503 289 501 q 293 505 292 504 q 296 507 294 506 q 311 516 303 513 q 329 521 319 519 q 349 523 339 522 q 368 524 358 524 l 606 518 q 619 517 613 517 q 631 517 625 517 q 636 517 633 517 q 643 517 639 517 q 649 517 646 517 q 654 517 651 517 q 660 517 657 517 q 665 517 663 517 q 671 517 668 517 q 676 517 674 517 q 690 518 683 517 q 701 521 696 519 q 707 522 704 521 q 714 522 710 522 q 719 524 717 524 q 725 526 722 525 q 738 532 732 529 q 750 539 744 535 l 771 539 q 771 536 771 538 q 771 533 771 535 q 771 533 771 533 q 772 532 771 532 q 772 531 772 531 q 772 531 772 531 q 772 528 772 529 q 772 526 772 528 q 772 524 772 525 q 772 524 772 524 l 772 515 q 772 515 772 515 q 771 513 771 514 q 769 512 769 513 q 768 511 768 511 q 768 511 768 511 q 768 511 768 511 q 767 510 767 510 q 767 510 767 510 q 671 441 717 479 q 583 358 625 403 q 513 269 540 315 q 476 178 486 224 q 472 166 474 172 q 471 153 471 160 q 471 147 471 150 q 471 142 471 144 q 471 135 471 138 q 471 129 471 132 q 471 126 471 128 q 471 121 471 124 q 471 117 471 119 q 472 113 471 115 q 477 94 472 103 q 488 79 482 86 q 505 69 494 72 q 531 65 515 65 q 550 67 540 65 q 571 71 560 68 q 582 74 576 72 q 593 76 588 75 q 603 81 597 79 q 614 85 608 83 q 624 90 618 88 q 635 93 629 92 q 644 98 639 96 q 654 103 650 100 q 663 108 658 106 q 672 113 668 110 q 681 117 676 114 q 689 122 685 119 q 707 133 699 128 q 722 143 715 138 q 730 148 726 146 q 738 153 733 150 q 744 157 740 154 q 750 161 747 160 q 760 169 754 165 q 771 178 765 174 q 776 182 774 181 q 781 186 778 183 q 785 190 782 188 q 789 193 788 192 q 826 232 810 213 q 856 272 843 251 q 880 314 868 292 q 901 361 892 336 q 902 361 901 361 q 903 363 903 361 q 903 363 903 363 q 904 364 904 364 q 904 365 904 364 q 906 367 904 365 q 906 367 906 367 q 906 369 906 368 l 967 504 l 1118 532 l 1026 340 q 1024 334 1025 338 q 1021 328 1022 331 q 1017 320 1018 324 q 1014 314 1015 317 q 1011 308 1013 311 q 1010 301 1010 304 q 1007 295 1008 299 q 1004 289 1006 292 q 999 281 1001 285 q 996 274 997 276 q 992 265 993 269 q 989 257 990 261 q 983 241 986 249 q 976 226 979 233 q 967 199 971 213 q 960 172 963 186 q 956 147 957 158 q 954 124 954 135 q 954 121 954 122 q 954 118 954 119 q 954 116 954 117 q 954 114 954 115 q 960 94 956 104 q 975 75 965 83 q 997 63 982 67 q 1029 58 1011 58 q 1049 60 1039 58 q 1071 64 1060 61 q 1091 70 1081 67 q 1114 79 1101 74 q 1131 88 1122 83 q 1150 99 1140 93 q 1159 104 1154 101 q 1168 110 1164 107 q 1197 127 1183 118 q 1222 146 1210 136 q 1243 163 1233 154 q 1263 179 1253 171 q 1280 195 1272 188 q 1293 208 1288 203 q 1331 255 1314 231 q 1364 306 1349 279 q 1391 359 1379 332 q 1408 413 1403 386 q 1409 421 1408 417 q 1411 429 1410 425 q 1413 438 1413 433 q 1414 446 1414 442 q 1415 454 1414 450 q 1415 463 1415 458 q 1416 471 1415 467 q 1417 479 1417 475 q 1416 490 1417 485 q 1414 499 1415 494 q 1413 503 1414 501 q 1413 508 1413 506 q 1410 516 1411 513 q 1410 524 1410 519 q 1408 530 1408 526 q 1406 538 1407 533 q 1403 544 1404 542 q 1400 551 1401 547 q 1399 555 1399 553 q 1397 558 1399 557 q 1394 564 1396 561 q 1393 569 1393 567 q 1390 575 1392 572 q 1388 581 1389 578 l 1404 586 q 1408 586 1406 586 q 1413 588 1410 586 q 1416 588 1414 588 q 1421 590 1418 589 q 1434 594 1428 593 q 1446 599 1440 596 q 1459 602 1453 600 q 1471 606 1465 604 q 1496 612 1483 608 q 1522 617 1508 615 q 1551 601 1540 610 q 1567 581 1561 592 q 1574 559 1571 571 q 1576 536 1576 547 q 1574 506 1576 522 q 1567 475 1571 490 q 1555 444 1561 460 q 1542 411 1549 428 q 1515 367 1529 389 q 1485 324 1500 344 q 1468 302 1476 313 q 1451 282 1460 292 q 1433 263 1442 272 q 1417 244 1425 253 q 1407 235 1411 239 q 1400 226 1403 231 q 1395 223 1397 225 q 1390 219 1393 221 q 1387 215 1389 217 q 1383 211 1385 214 q 1376 205 1379 208 q 1368 199 1372 201 q 1353 185 1361 192 q 1338 172 1346 179 q 1325 161 1332 167 q 1311 151 1318 156 q 1296 140 1303 146 q 1281 129 1289 135 q 1226 94 1254 111 q 1167 60 1199 76 q 1136 44 1151 51 q 1106 29 1121 36 q 1074 17 1089 22 q 1043 6 1058 11 q 1027 2 1035 4 q 1011 0 1019 0 q 995 -4 1003 -3 q 979 -7 988 -6 q 948 -12 964 -10 q 917 -14 932 -14 q 863 -8 886 -14 q 826 6 839 -3 q 806 32 813 17 q 800 67 800 47 q 801 94 800 81 q 806 119 803 107 q 815 144 808 132 q 826 167 821 156 l 822 171 q 802 153 813 163 q 779 135 792 144 q 767 126 774 131 q 753 117 760 121 q 740 106 746 111 q 726 97 733 101 q 681 69 704 83 q 633 40 658 54 q 608 28 621 33 q 582 17 594 22 q 556 7 569 11 q 531 0 543 3 q 506 -6 518 -3 q 481 -11 493 -10 q 456 -15 468 -14 q 431 -17 443 -17 q 379 -10 401 -17 q 342 6 357 -4 q 319 33 326 18 q 313 67 313 49 q 317 111 313 89 q 331 156 321 133 q 351 199 340 178 q 376 239 363 219 q 401 270 389 256 q 426 297 414 285 q 440 310 433 304 q 451 322 446 315 q 465 334 458 328 q 481 346 472 340 q 495 359 488 353 q 513 371 503 365 q 531 385 522 378 q 550 399 540 392 l 621 450 l 617 453 q 606 449 611 451 q 594 446 600 447 q 583 444 589 444 q 572 442 578 443 q 547 440 560 440 q 522 439 535 439 l 414 443 q 344 433 374 442 q 297 407 315 424 q 267 372 281 390 q 242 332 253 353 q 239 329 240 331 q 238 326 238 328 q 237 324 238 325 q 236 324 236 324 q 235 322 236 322 q 235 321 235 321 q 234 320 235 321 q 233 318 233 319 q 231 317 232 318 q 231 315 231 317 q 231 313 231 314 q 231 313 231 313 q 229 310 229 311 q 229 310 229 310 l 217 289 l 217 289 l 217 289 z "},"x":{"ha":875,"x_min":146,"x_max":1214,"o":"m 146 35 l 164 71 q 166 73 165 72 q 168 75 167 74 q 169 77 168 76 q 171 79 169 78 q 172 82 171 81 q 174 85 172 83 q 176 88 175 86 q 176 90 176 89 q 182 98 179 94 q 188 104 185 101 q 199 117 193 111 q 210 129 204 124 q 231 144 219 136 q 254 158 242 151 q 269 167 261 163 q 288 178 278 172 q 307 188 297 182 q 329 199 317 193 l 521 300 q 518 305 519 303 q 517 310 517 307 q 515 316 515 313 q 514 324 514 319 q 511 332 513 328 q 508 340 510 336 q 507 345 507 343 q 506 350 507 347 q 505 358 506 354 q 503 365 504 361 q 501 372 501 368 q 500 381 500 376 q 486 417 494 400 q 467 449 478 433 q 436 472 454 464 q 393 481 418 481 q 358 478 375 481 q 326 469 342 475 q 296 458 311 464 q 267 444 281 451 q 255 439 261 442 q 242 433 249 436 q 230 428 236 431 q 217 424 224 426 l 217 463 q 233 469 224 465 q 251 479 242 474 q 271 490 261 485 q 292 501 281 496 q 318 516 304 508 q 347 531 332 524 q 357 535 353 533 q 367 539 361 536 q 386 547 376 543 q 406 554 396 551 q 424 559 415 557 q 443 563 433 561 q 453 565 447 564 q 464 565 458 565 q 474 567 468 567 q 483 567 479 567 q 544 558 521 567 q 579 533 568 550 q 599 499 590 517 q 613 461 607 481 q 613 459 613 460 q 613 457 613 458 q 613 455 613 456 q 614 454 613 454 q 614 452 614 453 q 614 451 614 451 q 614 449 614 450 q 614 447 614 449 q 615 445 614 446 q 615 444 615 444 q 616 442 615 443 q 617 442 617 442 l 633 368 l 922 556 q 928 556 925 556 q 933 557 931 557 q 936 558 935 557 q 939 558 938 558 q 944 559 942 558 q 950 560 947 560 q 953 562 951 561 q 956 563 954 563 q 959 563 957 563 q 963 563 961 563 q 969 565 965 564 q 976 565 972 565 q 982 565 979 565 q 988 567 985 565 q 994 567 990 567 q 1000 567 997 567 q 1006 567 1003 567 q 1013 567 1010 567 q 1019 565 1015 565 q 1025 565 1022 565 q 1030 565 1028 565 q 1035 564 1032 564 q 1039 562 1036 563 q 1043 561 1042 561 q 1046 560 1044 561 q 1049 560 1047 560 q 1051 558 1050 558 q 1054 557 1053 557 q 1060 554 1057 556 q 1067 551 1064 553 l 1026 460 q 1024 460 1025 460 q 1021 460 1022 460 q 1019 460 1019 460 q 1018 460 1019 460 q 1017 460 1018 460 q 1015 461 1017 460 q 1013 461 1014 461 q 1013 461 1013 461 q 1003 463 1008 463 q 994 465 999 464 q 985 466 990 465 q 976 468 981 467 q 968 469 972 468 q 960 469 964 469 q 951 471 956 471 q 942 471 946 471 q 933 471 938 471 q 922 469 928 471 q 903 466 913 468 q 883 460 894 464 q 852 448 868 454 q 821 433 836 442 q 802 423 811 428 q 783 413 793 418 q 765 401 774 407 q 746 390 756 396 q 716 372 731 381 q 689 354 701 363 q 665 338 676 344 q 643 325 653 331 l 717 22 q 723 5 719 13 q 729 -11 726 -3 q 735 -28 732 -19 q 743 -46 739 -36 q 774 -96 756 -72 q 814 -142 792 -119 q 872 -174 838 -162 q 951 -185 907 -185 q 1010 -178 983 -185 q 1058 -156 1036 -171 q 1099 -126 1081 -142 q 1131 -93 1117 -110 q 1131 -91 1131 -92 q 1131 -90 1131 -90 q 1131 -90 1131 -90 q 1132 -90 1132 -90 q 1133 -89 1132 -89 q 1133 -89 1133 -89 l 1214 -151 q 1176 -177 1197 -165 q 1126 -197 1154 -189 q 1099 -204 1113 -201 q 1072 -210 1085 -207 q 1044 -215 1058 -212 q 1017 -218 1031 -217 q 1010 -218 1014 -218 q 1003 -218 1007 -218 q 995 -218 999 -218 q 989 -218 992 -218 q 983 -218 986 -218 q 976 -219 979 -218 q 970 -219 974 -219 q 964 -219 967 -219 q 858 -211 910 -219 q 758 -187 807 -203 q 672 -147 708 -172 q 613 -86 636 -122 q 594 -52 603 -71 q 579 -12 586 -33 q 567 28 574 6 q 558 72 561 50 q 549 112 553 92 q 543 151 546 132 q 540 176 542 164 q 538 199 539 188 q 536 210 536 204 q 535 219 536 215 l 529 258 q 432 196 476 229 q 351 125 388 163 q 289 46 314 86 q 250 -36 264 6 q 247 -37 249 -36 q 244 -37 246 -37 q 242 -39 243 -39 q 239 -39 240 -39 q 236 -39 238 -39 q 233 -39 235 -39 q 232 -39 232 -39 q 231 -39 232 -39 q 230 -39 231 -39 q 228 -39 229 -39 q 225 -37 226 -37 q 222 -37 224 -37 q 219 -37 221 -37 q 218 -37 218 -37 q 217 -36 217 -36 q 217 -36 217 -36 q 215 -36 215 -36 q 214 -36 215 -36 l 146 35 l 146 35 l 146 35 z "}}}
